ETBook-Semibold.ufo
<glyph name="exclam" format="2">
  <advance width="272"/>
  <unicode hex="0021"/>
  <outline>
    <contour>
      <point x="155" y="184" type="curve"/>
      <point x="189" y="642" type="line" smooth="yes"/>
      <point x="192" y="678"/>
      <point x="193" y="690"/>
      <point x="154" y="690" type="curve" smooth="yes"/>
      <point x="118" y="690" type="line" smooth="yes"/>
      <point x="84" y="690"/>
      <point x="83" y="669"/>
      <point x="85" y="642" type="curve" smooth="yes"/>
      <point x="119" y="184" type="line"/>
      <point x="128" y="164"/>
      <point x="150" y="173"/>
    </contour>
    <contour>
      <point x="137" y="-15" type="curve" smooth="yes"/>
      <point x="169" y="-15"/>
      <point x="195" y="9"/>
      <point x="195" y="43" type="curve" smooth="yes"/>
      <point x="195" y="78"/>
      <point x="168" y="100"/>
      <point x="137" y="100" type="curve" smooth="yes"/>
      <point x="105" y="100"/>
      <point x="80" y="77"/>
      <point x="80" y="43" type="curve" smooth="yes"/>
      <point x="80" y="9"/>
      <point x="105" y="-15"/>
    </contour>
  </outline>
</glyph>
<glyph name="quotedbl" format="2">
  <advance width="425"/>
  <unicode hex="0022"/>
  <outline>
    <contour>
      <point x="352" y="519" type="line" smooth="yes"/>
      <point x="357" y="544"/>
      <point x="363" y="581"/>
      <point x="363" y="608" type="curve" smooth="yes"/>
      <point x="363" y="647"/>
      <point x="340" y="674"/>
      <point x="303" y="674" type="curve" smooth="yes"/>
      <point x="260" y="674"/>
      <point x="242" y="646"/>
      <point x="242" y="597" type="curve" smooth="yes"/>
      <point x="242" y="570"/>
      <point x="250" y="544"/>
      <point x="255" y="518" type="curve" smooth="yes"/>
      <point x="281" y="371" type="line" smooth="yes"/>
      <point x="283" y="360"/>
      <point x="317" y="348"/>
      <point x="324" y="371" type="curve"/>
    </contour>
    <contour>
      <point x="180" y="564" type="curve" smooth="yes"/>
      <point x="182" y="578"/>
      <point x="184" y="593"/>
      <point x="184" y="608" type="curve" smooth="yes"/>
      <point x="184" y="647"/>
      <point x="161" y="674"/>
      <point x="123" y="674" type="curve" smooth="yes"/>
      <point x="84" y="674"/>
      <point x="66" y="647"/>
      <point x="66" y="603" type="curve" smooth="yes"/>
      <point x="66" y="575"/>
      <point x="72" y="548"/>
      <point x="77" y="521" type="curve" smooth="yes"/>
      <point x="101" y="383" type="line" smooth="yes"/>
      <point x="103" y="370"/>
      <point x="113" y="362"/>
      <point x="123" y="361" type="curve" smooth="yes"/>
      <point x="134" y="360"/>
      <point x="140" y="365"/>
      <point x="144" y="370" type="curve"/>
      <point x="172" y="520" type="line" smooth="yes"/>
      <point x="175" y="534"/>
      <point x="178" y="549"/>
    </contour>
  </outline>
</glyph>
<glyph name="numbersign" format="2">
  <advance width="699"/>
  <unicode hex="0023"/>
  <outline>
    <contour>
      <point x="642" y="201" type="curve" smooth="yes"/>
      <point x="648" y="230" type="line" smooth="yes"/>
      <point x="653" y="256"/>
      <point x="632" y="253"/>
      <point x="615" y="253" type="curve"/>
      <point x="580" y="251"/>
      <point x="545" y="252"/>
      <point x="517" y="253" type="curve" smooth="yes"/>
      <point x="512" y="253"/>
      <point x="506" y="255"/>
      <point x="508" y="264" type="curve" smooth="yes"/>
      <point x="536" y="402" type="line" smooth="yes"/>
      <point x="537" y="407"/>
      <point x="538" y="411"/>
      <point x="539" y="414" type="curve"/>
      <point x="541" y="424"/>
      <point x="544" y="428"/>
      <point x="555" y="427" type="curve"/>
      <point x="574" y="427"/>
      <point x="606" y="427"/>
      <point x="625" y="427" type="curve"/>
      <point x="641" y="428"/>
      <point x="651" y="430"/>
      <point x="653" y="441" type="curve" smooth="yes"/>
      <point x="656" y="456"/>
      <point x="658" y="466"/>
      <point x="661" y="482" type="curve"/>
      <point x="662" y="497"/>
      <point x="657" y="500"/>
      <point x="643" y="501" type="curve" smooth="yes"/>
      <point x="618" y="502"/>
      <point x="590" y="500"/>
      <point x="565" y="502" type="curve"/>
      <point x="560" y="502"/>
      <point x="557" y="503"/>
      <point x="559" y="511" type="curve" smooth="yes"/>
      <point x="591" y="666"/>
      <point x="612" y="713"/>
      <point x="571" y="710" type="curve" smooth="yes"/>
      <point x="547" y="708" type="line" smooth="yes"/>
      <point x="523" y="706"/>
      <point x="523" y="693"/>
      <point x="519" y="674" type="curve" smooth="yes"/>
      <point x="512" y="643"/>
      <point x="486" y="515"/>
      <point x="486" y="515" type="curve"/>
      <point x="484" y="506"/>
      <point x="483" y="503"/>
      <point x="473" y="502" type="curve"/>
      <point x="427" y="500"/>
      <point x="341" y="505"/>
      <point x="295" y="502" type="curve"/>
      <point x="291" y="502"/>
      <point x="287" y="505"/>
      <point x="289" y="511" type="curve"/>
      <point x="322" y="679" type="line" smooth="yes"/>
      <point x="327" y="703"/>
      <point x="323" y="705"/>
      <point x="299" y="707" type="curve"/>
      <point x="292" y="708"/>
      <point x="286" y="709"/>
      <point x="281" y="709" type="curve"/>
      <point x="262" y="712"/>
      <point x="256" y="708"/>
      <point x="251" y="687" type="curve" smooth="yes"/>
      <point x="215" y="512" type="line" smooth="yes"/>
      <point x="213" y="502"/>
      <point x="212" y="502"/>
      <point x="203" y="502" type="curve"/>
      <point x="170" y="504"/>
      <point x="126" y="503"/>
      <point x="88" y="502" type="curve" smooth="yes"/>
      <point x="70" y="501"/>
      <point x="62" y="493"/>
      <point x="62" y="485" type="curve"/>
      <point x="60" y="475"/>
      <point x="54" y="460"/>
      <point x="56" y="448" type="curve"/>
      <point x="55" y="431"/>
      <point x="66" y="427"/>
      <point x="86" y="427" type="curve" smooth="yes"/>
      <point x="114" y="428"/>
      <point x="161" y="427"/>
      <point x="189" y="427" type="curve" smooth="yes"/>
      <point x="195" y="427"/>
      <point x="196" y="422"/>
      <point x="195" y="418" type="curve" smooth="yes"/>
      <point x="164" y="266" type="line" smooth="yes"/>
      <point x="161" y="254"/>
      <point x="159" y="253"/>
      <point x="147" y="253" type="curve" smooth="yes"/>
      <point x="68" y="253" type="line" smooth="yes"/>
      <point x="49" y="253"/>
      <point x="41" y="247"/>
      <point x="41" y="232" type="curve"/>
      <point x="39" y="220"/>
      <point x="37" y="214"/>
      <point x="36" y="200" type="curve"/>
      <point x="36" y="178"/>
      <point x="45" y="178"/>
      <point x="62" y="178" type="curve" smooth="yes"/>
      <point x="130" y="178" type="line" smooth="yes"/>
      <point x="142" y="178"/>
      <point x="145" y="175"/>
      <point x="143" y="165" type="curve" smooth="yes"/>
      <point x="111" y="7" type="line"/>
      <point x="110" y="0"/>
      <point x="108" y="-1"/>
      <point x="108" y="-8" type="curve" smooth="yes"/>
      <point x="108" y="-28"/>
      <point x="126" y="-29"/>
      <point x="139" y="-28" type="curve" smooth="yes"/>
      <point x="162" y="-27"/>
      <point x="177" y="-31"/>
      <point x="183" y="-1" type="curve" smooth="yes"/>
      <point x="216" y="160" type="line" smooth="yes"/>
      <point x="220" y="180"/>
      <point x="221" y="177"/>
      <point x="240" y="178" type="curve" smooth="yes"/>
      <point x="281" y="180"/>
      <point x="352" y="180"/>
      <point x="404" y="178" type="curve"/>
      <point x="415" y="177"/>
      <point x="416" y="176"/>
      <point x="413" y="159" type="curve" smooth="yes"/>
      <point x="383" y="17"/>
      <point x="364" y="-29"/>
      <point x="398" y="-29" type="curve" smooth="yes"/>
      <point x="427" y="-29" type="line" smooth="yes"/>
      <point x="447" y="-29"/>
      <point x="451" y="-18"/>
      <point x="455" y="-2" type="curve" smooth="yes"/>
      <point x="487" y="157" type="line" smooth="yes"/>
      <point x="491" y="174"/>
      <point x="485" y="179"/>
      <point x="512" y="178" type="curve" smooth="yes"/>
      <point x="539" y="177"/>
      <point x="580" y="177"/>
      <point x="609" y="178" type="curve" smooth="yes"/>
      <point x="626" y="179"/>
      <point x="638" y="178"/>
    </contour>
    <contour>
      <point x="457" y="427" type="curve" smooth="yes"/>
      <point x="467" y="427"/>
      <point x="468" y="424"/>
      <point x="465" y="410" type="curve" smooth="yes"/>
      <point x="435" y="267" type="line" smooth="yes"/>
      <point x="432" y="254"/>
      <point x="426" y="253"/>
      <point x="414" y="254" type="curve"/>
      <point x="373" y="255"/>
      <point x="288" y="256"/>
      <point x="241" y="254" type="curve"/>
      <point x="236" y="256"/>
      <point x="235" y="257"/>
      <point x="236" y="264" type="curve"/>
      <point x="268" y="413" type="line" smooth="yes"/>
      <point x="271" y="429"/>
      <point x="273" y="427"/>
      <point x="287" y="427" type="curve" smooth="yes"/>
      <point x="318" y="428"/>
      <point x="418" y="428"/>
    </contour>
  </outline>
</glyph>
<glyph name="dollar" format="2">
  <advance width="479"/>
  <unicode hex="0024"/>
  <outline>
    <contour>
      <point x="298" y="506" type="line" smooth="yes"/>
      <point x="298" y="521"/>
      <point x="304" y="513"/>
      <point x="309" y="506" type="curve" smooth="yes"/>
      <point x="325" y="484"/>
      <point x="338" y="453"/>
      <point x="370" y="453" type="curve" smooth="yes"/>
      <point x="393" y="453"/>
      <point x="410" y="471"/>
      <point x="410" y="495" type="curve" smooth="yes"/>
      <point x="410" y="534"/>
      <point x="366" y="567"/>
      <point x="308" y="586" type="curve" smooth="yes"/>
      <point x="301" y="588"/>
      <point x="298" y="596"/>
      <point x="298" y="603" type="curve" smooth="yes"/>
      <point x="299" y="641" type="line" smooth="yes"/>
      <point x="299" y="650"/>
      <point x="292" y="657"/>
      <point x="285" y="657" type="curve" smooth="yes"/>
      <point x="272" y="657" type="line"/>
      <point x="266" y="655"/>
      <point x="257" y="650"/>
      <point x="256" y="644" type="curve"/>
      <point x="256" y="604" type="line" smooth="yes"/>
      <point x="256" y="600"/>
      <point x="253" y="599"/>
      <point x="247" y="599" type="curve"/>
      <point x="234" y="600"/>
      <point x="219" y="600"/>
      <point x="206" y="599" type="curve"/>
      <point x="204" y="599"/>
      <point x="204" y="602"/>
      <point x="202" y="604" type="curve"/>
      <point x="202" y="645" type="line"/>
      <point x="199" y="652"/>
      <point x="193" y="657"/>
      <point x="186" y="658" type="curve"/>
      <point x="176" y="657"/>
      <point x="164" y="658"/>
      <point x="161" y="647" type="curve"/>
      <point x="161" y="602" type="line" smooth="yes"/>
      <point x="161" y="596"/>
      <point x="159" y="588"/>
      <point x="153" y="586" type="curve" smooth="yes"/>
      <point x="93" y="563"/>
      <point x="53" y="513"/>
      <point x="53" y="452" type="curve" smooth="yes"/>
      <point x="53" y="376"/>
      <point x="103" y="342"/>
      <point x="156" y="302" type="curve"/>
      <point x="158" y="300"/>
      <point x="159" y="299"/>
      <point x="161" y="296" type="curve"/>
      <point x="161" y="63" type="line" smooth="yes"/>
      <point x="161" y="57"/>
      <point x="159" y="47"/>
      <point x="155" y="50" type="curve"/>
      <point x="146" y="58"/>
      <point x="142" y="65"/>
      <point x="138" y="72" type="curve"/>
      <point x="125" y="99"/>
      <point x="120" y="151"/>
      <point x="79" y="151" type="curve" smooth="yes"/>
      <point x="56" y="151"/>
      <point x="36" y="130"/>
      <point x="36" y="106" type="curve" smooth="yes"/>
      <point x="36" y="86"/>
      <point x="48" y="61"/>
      <point x="67" y="41" type="curve" smooth="yes"/>
      <point x="91" y="15"/>
      <point x="127" y="2"/>
      <point x="158" y="-8" type="curve"/>
      <point x="158" y="-8"/>
      <point x="160" y="-10"/>
      <point x="161" y="-13" type="curve"/>
      <point x="161" y="-77" type="line"/>
      <point x="161" y="-90" type="line"/>
      <point x="160" y="-95"/>
      <point x="159" y="-103"/>
      <point x="169" y="-107" type="curve"/>
      <point x="195" y="-107" type="line"/>
      <point x="204" y="-103"/>
      <point x="206" y="-98"/>
      <point x="205" y="-89" type="curve" smooth="yes"/>
      <point x="202" y="-67"/>
      <point x="204" y="-44"/>
      <point x="203" y="-22" type="curve" smooth="yes"/>
      <point x="203" y="-16"/>
      <point x="209" y="-18"/>
      <point x="212" y="-18" type="curve"/>
      <point x="226" y="-20"/>
      <point x="237" y="-21"/>
      <point x="253" y="-18" type="curve"/>
      <point x="254" y="-19"/>
      <point x="256" y="-20"/>
      <point x="256" y="-23" type="curve"/>
      <point x="255" y="-89" type="line"/>
      <point x="254" y="-97"/>
      <point x="259" y="-105"/>
      <point x="268" y="-107" type="curve"/>
      <point x="283" y="-107" type="line" smooth="yes"/>
      <point x="290" y="-107"/>
      <point x="299" y="-105"/>
      <point x="299" y="-93" type="curve" smooth="yes"/>
      <point x="298" y="-65"/>
      <point x="298" y="-49"/>
      <point x="298" y="-22" type="curve" smooth="yes"/>
      <point x="298" y="-18"/>
      <point x="296" y="-12"/>
      <point x="303" y="-10" type="curve" smooth="yes"/>
      <point x="383" y="16"/>
      <point x="434" y="76"/>
      <point x="434" y="151" type="curve" smooth="yes"/>
      <point x="434" y="238"/>
      <point x="365" y="286"/>
      <point x="301" y="326" type="curve"/>
      <point x="298" y="329"/>
      <point x="298" y="338"/>
      <point x="298" y="342" type="curve" smooth="yes"/>
    </contour>
    <contour>
      <point x="256" y="537" type="line"/>
      <point x="256" y="372" type="line" smooth="yes"/>
      <point x="256" y="366"/>
      <point x="252" y="358"/>
      <point x="248" y="360" type="curve"/>
      <point x="231" y="372"/>
      <point x="226" y="373"/>
      <point x="209" y="387" type="curve"/>
      <point x="204" y="393"/>
      <point x="202" y="394"/>
      <point x="202" y="404" type="curve" smooth="yes"/>
      <point x="202" y="548" type="line" smooth="yes"/>
      <point x="202" y="557"/>
      <point x="203" y="557"/>
      <point x="211" y="557" type="curve"/>
      <point x="224" y="559"/>
      <point x="237" y="557"/>
      <point x="250" y="553" type="curve"/>
      <point x="255" y="552"/>
      <point x="256" y="545"/>
      <point x="256" y="536" type="curve"/>
    </contour>
    <contour>
      <point x="161" y="437" type="line" smooth="yes"/>
      <point x="161" y="429"/>
      <point x="157" y="426"/>
      <point x="153" y="430" type="curve" smooth="yes"/>
      <point x="133" y="449"/>
      <point x="127" y="465"/>
      <point x="127" y="487" type="curve" smooth="yes"/>
      <point x="127" y="507"/>
      <point x="138" y="527"/>
      <point x="156" y="540" type="curve" smooth="yes"/>
      <point x="159" y="542"/>
      <point x="161" y="538"/>
      <point x="161" y="531" type="curve" smooth="yes"/>
    </contour>
    <contour>
      <point x="305" y="43" type="curve"/>
      <point x="297" y="37"/>
      <point x="298" y="44"/>
      <point x="298" y="49" type="curve" smooth="yes"/>
      <point x="298" y="194" type="line" smooth="yes"/>
      <point x="298" y="201"/>
      <point x="300" y="209"/>
      <point x="306" y="204" type="curve"/>
      <point x="332" y="185"/>
      <point x="352" y="164"/>
      <point x="352" y="128" type="curve" smooth="yes"/>
      <point x="352" y="90"/>
      <point x="339" y="64"/>
    </contour>
    <contour>
      <point x="256" y="229" type="curve" smooth="yes"/>
      <point x="256" y="36" type="line" smooth="yes"/>
      <point x="256" y="31"/>
      <point x="258" y="23"/>
      <point x="250" y="22" type="curve" smooth="yes"/>
      <point x="239" y="21"/>
      <point x="223" y="22"/>
      <point x="212" y="24" type="curve"/>
      <point x="204" y="25"/>
      <point x="203" y="29"/>
      <point x="203" y="38" type="curve" smooth="yes"/>
      <point x="202" y="254" type="line" smooth="yes"/>
      <point x="202" y="266"/>
      <point x="203" y="273"/>
      <point x="209" y="268" type="curve"/>
      <point x="223" y="260"/>
      <point x="237" y="251"/>
      <point x="250" y="242" type="curve"/>
      <point x="253" y="242"/>
      <point x="256" y="234"/>
    </contour>
  </outline>
</glyph>
<glyph name="percent" format="2">
  <advance width="696"/>
  <unicode hex="0025"/>
  <outline>
    <contour>
      <point x="189" y="308" type="curve" smooth="yes"/>
      <point x="270" y="308"/>
      <point x="334" y="371"/>
      <point x="336" y="458" type="curve" smooth="yes"/>
      <point x="337" y="546"/>
      <point x="267" y="606"/>
      <point x="188" y="606" type="curve" smooth="yes"/>
      <point x="108" y="606"/>
      <point x="42" y="544"/>
      <point x="42" y="455" type="curve" smooth="yes"/>
      <point x="42" y="371"/>
      <point x="111" y="308"/>
    </contour>
    <contour>
      <point x="186" y="563" type="curve" smooth="yes"/>
      <point x="236" y="563"/>
      <point x="268" y="528"/>
      <point x="268" y="458" type="curve" smooth="yes"/>
      <point x="268" y="388"/>
      <point x="237" y="351"/>
      <point x="189" y="351" type="curve" smooth="yes"/>
      <point x="143" y="351"/>
      <point x="111" y="387"/>
      <point x="111" y="457" type="curve" smooth="yes"/>
      <point x="111" y="526"/>
      <point x="141" y="563"/>
    </contour>
    <contour>
      <point x="173" y="-56" type="curve"/>
      <point x="555" y="609" type="line"/>
      <point x="558" y="616"/>
      <point x="558" y="629"/>
      <point x="549" y="633" type="curve" smooth="yes"/>
      <point x="538" y="638" type="line"/>
      <point x="531" y="640"/>
      <point x="516" y="639"/>
      <point x="508" y="629" type="curve"/>
      <point x="124" y="-40" type="line" smooth="yes"/>
      <point x="116" y="-54"/>
      <point x="123" y="-63"/>
      <point x="143" y="-68" type="curve" smooth="yes"/>
      <point x="155" y="-71"/>
      <point x="167" y="-72"/>
    </contour>
    <contour>
      <point x="496" y="-42" type="curve" smooth="yes"/>
      <point x="577" y="-42"/>
      <point x="641" y="20"/>
      <point x="643" y="108" type="curve" smooth="yes"/>
      <point x="645" y="196"/>
      <point x="574" y="255"/>
      <point x="495" y="255" type="curve" smooth="yes"/>
      <point x="416" y="255"/>
      <point x="349" y="193"/>
      <point x="349" y="105" type="curve" smooth="yes"/>
      <point x="349" y="19"/>
      <point x="419" y="-42"/>
    </contour>
    <contour>
      <point x="493" y="213" type="curve" smooth="yes"/>
      <point x="543" y="213"/>
      <point x="575" y="178"/>
      <point x="575" y="108" type="curve" smooth="yes"/>
      <point x="575" y="37"/>
      <point x="544" y="1"/>
      <point x="496" y="1" type="curve" smooth="yes"/>
      <point x="450" y="1"/>
      <point x="418" y="37"/>
      <point x="418" y="107" type="curve" smooth="yes"/>
      <point x="418" y="175"/>
      <point x="449" y="213"/>
    </contour>
  </outline>
</glyph>
<glyph name="ampersand" format="2">
  <advance width="763"/>
  <unicode hex="0026"/>
  <outline>
    <contour>
      <point x="736" y="418" type="curve" smooth="yes"/>
      <point x="746" y="419"/>
      <point x="755" y="422"/>
      <point x="755" y="433" type="curve" smooth="yes"/>
      <point x="755" y="446" type="line"/>
      <point x="753" y="456"/>
      <point x="745" y="460"/>
      <point x="737" y="459" type="curve"/>
      <point x="688" y="457"/>
      <point x="604" y="456"/>
      <point x="566" y="458" type="curve"/>
      <point x="564" y="458"/>
      <point x="563" y="458"/>
      <point x="562" y="458" type="curve" smooth="yes"/>
      <point x="555" y="458"/>
      <point x="550" y="455"/>
      <point x="548" y="448" type="curve" smooth="yes"/>
      <point x="546" y="440"/>
      <point x="548" y="424"/>
      <point x="556" y="420" type="curve"/>
      <point x="561" y="419"/>
      <point x="576" y="418"/>
      <point x="589" y="416" type="curve" smooth="yes"/>
      <point x="598" y="415"/>
      <point x="608" y="415"/>
      <point x="608" y="409" type="curve" smooth="yes"/>
      <point x="608" y="400"/>
      <point x="592" y="358"/>
      <point x="560" y="308" type="curve" smooth="yes"/>
      <point x="539" y="276"/>
      <point x="514" y="241"/>
      <point x="496" y="219" type="curve"/>
      <point x="493" y="214"/>
      <point x="490" y="217"/>
      <point x="487" y="221" type="curve" smooth="yes"/>
      <point x="463" y="256"/>
      <point x="449" y="273"/>
      <point x="416" y="305" type="curve" smooth="yes"/>
      <point x="391" y="328"/>
      <point x="364" y="353"/>
      <point x="341" y="370" type="curve"/>
      <point x="338" y="373"/>
      <point x="338" y="377"/>
      <point x="342" y="379" type="curve"/>
      <point x="405" y="415"/>
      <point x="441" y="457"/>
      <point x="441" y="507" type="curve" smooth="yes"/>
      <point x="441" y="575"/>
      <point x="378" y="618"/>
      <point x="299" y="618" type="curve" smooth="yes"/>
      <point x="211" y="618"/>
      <point x="147" y="567"/>
      <point x="147" y="488" type="curve" smooth="yes"/>
      <point x="147" y="446"/>
      <point x="170" y="402"/>
      <point x="205" y="365" type="curve"/>
      <point x="210" y="361"/>
      <point x="207" y="355"/>
      <point x="202" y="352" type="curve"/>
      <point x="167" y="335"/>
      <point x="132" y="320"/>
      <point x="102" y="294" type="curve" smooth="yes"/>
      <point x="64" y="261"/>
      <point x="40" y="213"/>
      <point x="40" y="162" type="curve" smooth="yes"/>
      <point x="40" y="60"/>
      <point x="120" y="-19"/>
      <point x="220" y="-19" type="curve" smooth="yes"/>
      <point x="291" y="-19"/>
      <point x="371" y="23"/>
      <point x="444" y="94" type="curve"/>
      <point x="447" y="98"/>
      <point x="454" y="96"/>
      <point x="457" y="90" type="curve"/>
      <point x="490" y="32"/>
      <point x="509" y="-19"/>
      <point x="589" y="-19" type="curve" smooth="yes"/>
      <point x="631" y="-19"/>
      <point x="676" y="1"/>
      <point x="723" y="39" type="curve"/>
      <point x="738" y="47"/>
      <point x="719" y="79"/>
      <point x="704" y="75" type="curve"/>
      <point x="665" y="48"/>
      <point x="642" y="38"/>
      <point x="626" y="38" type="curve" smooth="yes"/>
      <point x="603" y="38"/>
      <point x="590" y="47"/>
      <point x="553" y="114" type="curve" smooth="yes"/>
      <point x="534" y="148"/>
      <point x="535" y="147"/>
      <point x="522" y="168" type="curve" smooth="yes"/>
      <point x="518" y="174"/>
      <point x="518" y="176"/>
      <point x="519" y="177" type="curve"/>
      <point x="543" y="204"/>
      <point x="576" y="247"/>
      <point x="599" y="289" type="curve"/>
      <point x="603" y="295"/>
      <point x="614" y="319"/>
      <point x="626" y="343" type="curve"/>
      <point x="639" y="366"/>
      <point x="653" y="390"/>
      <point x="664" y="400" type="curve" smooth="yes"/>
      <point x="681" y="417"/>
      <point x="714" y="415"/>
    </contour>
    <contour>
      <point x="292" y="575" type="curve" smooth="yes"/>
      <point x="330" y="575"/>
      <point x="356" y="547"/>
      <point x="356" y="500" type="curve" smooth="yes"/>
      <point x="356" y="458"/>
      <point x="342" y="431"/>
      <point x="309" y="407" type="curve" smooth="yes"/>
      <point x="303" y="403"/>
      <point x="301" y="401"/>
      <point x="294" y="408" type="curve"/>
      <point x="255" y="441"/>
      <point x="236" y="478"/>
      <point x="236" y="513" type="curve" smooth="yes"/>
      <point x="236" y="553"/>
      <point x="258" y="575"/>
    </contour>
    <contour>
      <point x="426" y="143" type="curve"/>
      <point x="428" y="139"/>
      <point x="427" y="137"/>
      <point x="426" y="137" type="curve"/>
      <point x="383" y="88"/>
      <point x="313" y="57"/>
      <point x="261" y="57" type="curve" smooth="yes"/>
      <point x="194" y="57"/>
      <point x="149" y="101"/>
      <point x="149" y="174" type="curve" smooth="yes"/>
      <point x="149" y="229"/>
      <point x="174" y="271"/>
      <point x="239" y="319" type="curve"/>
      <point x="245" y="324"/>
      <point x="248" y="326"/>
      <point x="252" y="323" type="curve"/>
      <point x="284" y="302"/>
      <point x="317" y="273"/>
      <point x="343" y="246" type="curve" smooth="yes"/>
      <point x="374" y="214"/>
      <point x="402" y="181"/>
    </contour>
  </outline>
</glyph>
<glyph name="quotesingle" format="2">
  <advance width="185"/>
  <unicode hex="0027"/>
  <outline>
    <contour>
      <point x="144" y="562" type="curve" smooth="yes"/>
      <point x="147" y="578"/>
      <point x="149" y="594"/>
      <point x="149" y="608" type="curve" smooth="yes"/>
      <point x="149" y="648"/>
      <point x="127" y="674"/>
      <point x="92" y="674" type="curve" smooth="yes"/>
      <point x="54" y="674"/>
      <point x="38" y="646"/>
      <point x="38" y="598" type="curve" smooth="yes"/>
      <point x="38" y="572"/>
      <point x="45" y="546"/>
      <point x="49" y="520" type="curve" smooth="yes"/>
      <point x="71" y="386" type="line" smooth="yes"/>
      <point x="73" y="369"/>
      <point x="72" y="365"/>
      <point x="92" y="363" type="curve" smooth="yes"/>
      <point x="108" y="361"/>
      <point x="114" y="377"/>
      <point x="115" y="388" type="curve"/>
      <point x="125" y="446"/>
      <point x="134" y="504"/>
    </contour>
  </outline>
</glyph>
<glyph name="parenleft" format="2">
  <advance width="326"/>
  <unicode hex="0028"/>
  <outline>
    <contour>
      <point x="281" y="-223" type="curve"/>
      <point x="298" y="-215"/>
      <point x="313" y="-201"/>
      <point x="306" y="-185" type="curve"/>
      <point x="278" y="-151"/>
      <point x="270" y="-139"/>
      <point x="244" y="-93" type="curve" smooth="yes"/>
      <point x="181" y="22"/>
      <point x="157" y="112"/>
      <point x="157" y="240" type="curve" smooth="yes"/>
      <point x="157" y="327"/>
      <point x="168" y="392"/>
      <point x="193" y="461" type="curve" smooth="yes"/>
      <point x="220" y="533"/>
      <point x="265" y="617"/>
      <point x="306" y="664" type="curve"/>
      <point x="320" y="687"/>
      <point x="289" y="723"/>
      <point x="264" y="704" type="curve"/>
      <point x="153" y="579"/>
      <point x="77" y="411"/>
      <point x="77" y="240" type="curve" smooth="yes"/>
      <point x="77" y="75"/>
      <point x="149" y="-93"/>
      <point x="255" y="-214" type="curve" smooth="yes"/>
      <point x="261" y="-221"/>
      <point x="270" y="-229"/>
    </contour>
  </outline>
</glyph>
<glyph name="parenright" format="2">
  <advance width="316"/>
  <unicode hex="0029"/>
  <outline>
    <contour>
      <point x="55" y="-223" type="curve"/>
      <point x="169" y="-99"/>
      <point x="241" y="71"/>
      <point x="241" y="242" type="curve" smooth="yes"/>
      <point x="241" y="408"/>
      <point x="172" y="574"/>
      <point x="63" y="697" type="curve" smooth="yes"/>
      <point x="54" y="708"/>
      <point x="37" y="710"/>
      <point x="23" y="699" type="curve" smooth="yes"/>
      <point x="10" y="688"/>
      <point x="11" y="669"/>
      <point x="20" y="658" type="curve" smooth="yes"/>
      <point x="43" y="632"/>
      <point x="51" y="617"/>
      <point x="75" y="575" type="curve" smooth="yes"/>
      <point x="138" y="459"/>
      <point x="163" y="369"/>
      <point x="163" y="242" type="curve" smooth="yes"/>
      <point x="163" y="154"/>
      <point x="152" y="89"/>
      <point x="127" y="20" type="curve" smooth="yes"/>
      <point x="100" y="-52"/>
      <point x="55" y="-135"/>
      <point x="13" y="-183" type="curve"/>
      <point x="-7" y="-215"/>
      <point x="33" y="-240"/>
    </contour>
  </outline>
</glyph>
<glyph name="asterisk" format="2">
  <advance width="534"/>
  <unicode hex="002A"/>
  <outline>
    <contour>
      <point x="236" y="447" type="line"/>
      <point x="240" y="450"/>
      <point x="239" y="452"/>
      <point x="234" y="456" type="curve"/>
      <point x="214" y="466"/>
      <point x="199" y="470"/>
      <point x="184" y="475" type="curve" smooth="yes"/>
      <point x="163" y="482"/>
      <point x="145" y="484"/>
      <point x="130" y="489" type="curve"/>
      <point x="99" y="497"/>
      <point x="77" y="506"/>
      <point x="77" y="543" type="curve" smooth="yes"/>
      <point x="77" y="553"/>
      <point x="85" y="584"/>
      <point x="123" y="584" type="curve" smooth="yes"/>
      <point x="147" y="584"/>
      <point x="163" y="562"/>
      <point x="177" y="546" type="curve" smooth="yes"/>
      <point x="193" y="528"/>
      <point x="213" y="504"/>
      <point x="249" y="482" type="curve" smooth="yes"/>
      <point x="254" y="479"/>
      <point x="256" y="478"/>
      <point x="256" y="486" type="curve"/>
      <point x="254" y="524"/>
      <point x="248" y="546"/>
      <point x="243" y="566" type="curve" smooth="yes"/>
      <point x="237" y="586"/>
      <point x="229" y="605"/>
      <point x="229" y="627" type="curve" smooth="yes"/>
      <point x="229" y="649"/>
      <point x="243" y="674"/>
      <point x="272" y="674" type="curve" smooth="yes"/>
      <point x="301" y="674"/>
      <point x="315" y="649"/>
      <point x="315" y="627" type="curve" smooth="yes"/>
      <point x="315" y="605"/>
      <point x="308" y="586"/>
      <point x="302" y="566" type="curve" smooth="yes"/>
      <point x="296" y="545"/>
      <point x="290" y="526"/>
      <point x="289" y="486" type="curve"/>
      <point x="289" y="482"/>
      <point x="296" y="482"/>
      <point x="298" y="483" type="curve"/>
      <point x="335" y="507"/>
      <point x="351" y="527"/>
      <point x="367" y="546" type="curve" smooth="yes"/>
      <point x="381" y="563"/>
      <point x="398" y="584"/>
      <point x="422" y="584" type="curve" smooth="yes"/>
      <point x="460" y="584"/>
      <point x="467" y="553"/>
      <point x="467" y="543" type="curve" smooth="yes"/>
      <point x="467" y="488"/>
      <point x="398" y="487"/>
      <point x="361" y="475" type="curve" smooth="yes"/>
      <point x="345" y="470"/>
      <point x="334" y="466"/>
      <point x="312" y="455" type="curve"/>
      <point x="309" y="454"/>
      <point x="307" y="448"/>
      <point x="310" y="447" type="curve"/>
      <point x="332" y="434"/>
      <point x="344" y="429"/>
      <point x="360" y="424" type="curve" smooth="yes"/>
      <point x="398" y="412"/>
      <point x="467" y="414"/>
      <point x="467" y="357" type="curve" smooth="yes"/>
      <point x="467" y="339"/>
      <point x="451" y="317"/>
      <point x="426" y="317" type="curve" smooth="yes"/>
      <point x="396" y="317"/>
      <point x="382" y="335"/>
      <point x="366" y="356" type="curve" smooth="yes"/>
      <point x="351" y="375"/>
      <point x="335" y="396"/>
      <point x="297" y="420" type="curve"/>
      <point x="296" y="420"/>
      <point x="290" y="419"/>
      <point x="290" y="414" type="curve" smooth="yes"/>
      <point x="291" y="364"/>
      <point x="297" y="345"/>
      <point x="303" y="329" type="curve" smooth="yes"/>
      <point x="307" y="319"/>
      <point x="310" y="311"/>
      <point x="312" y="303" type="curve"/>
      <point x="315" y="296"/>
      <point x="316" y="286"/>
      <point x="316" y="274" type="curve" smooth="yes"/>
      <point x="316" y="249"/>
      <point x="300" y="225"/>
      <point x="272" y="225" type="curve" smooth="yes"/>
      <point x="244" y="225"/>
      <point x="228" y="249"/>
      <point x="228" y="274" type="curve" smooth="yes"/>
      <point x="228" y="299"/>
      <point x="234" y="307"/>
      <point x="242" y="329" type="curve" smooth="yes"/>
      <point x="247" y="345"/>
      <point x="253" y="363"/>
      <point x="255" y="413" type="curve" smooth="yes"/>
      <point x="255" y="415"/>
      <point x="253" y="423"/>
      <point x="250" y="421" type="curve" smooth="yes"/>
      <point x="213" y="398"/>
      <point x="194" y="375"/>
      <point x="179" y="356" type="curve" smooth="yes"/>
      <point x="162" y="335"/>
      <point x="149" y="317"/>
      <point x="118" y="317" type="curve" smooth="yes"/>
      <point x="94" y="317"/>
      <point x="77" y="339"/>
      <point x="77" y="357" type="curve" smooth="yes"/>
      <point x="77" y="396"/>
      <point x="100" y="403"/>
      <point x="131" y="410" type="curve" smooth="yes"/>
      <point x="170" y="420"/>
      <point x="235" y="446"/>
      <point x="235" y="446" type="curve"/>
    </contour>
  </outline>
</glyph>
<glyph name="plus" format="2">
  <advance width="698"/>
  <unicode hex="002B"/>
  <outline>
    <contour>
      <point x="599" y="300" type="line" smooth="yes"/>
      <point x="617" y="300"/>
      <point x="628" y="301"/>
      <point x="628" y="323" type="curve" smooth="yes"/>
      <point x="628" y="354" type="line" smooth="yes"/>
      <point x="628" y="369"/>
      <point x="627" y="376"/>
      <point x="606" y="376" type="curve" smooth="yes"/>
      <point x="402" y="376" type="line" smooth="yes"/>
      <point x="397" y="376"/>
      <point x="389" y="376"/>
      <point x="388" y="380" type="curve"/>
      <point x="388" y="593" type="line" smooth="yes"/>
      <point x="388" y="615"/>
      <point x="385" y="620"/>
      <point x="369" y="620" type="curve" smooth="yes"/>
      <point x="330" y="620" type="line" smooth="yes"/>
      <point x="307" y="620"/>
      <point x="312" y="604"/>
      <point x="312" y="589" type="curve" smooth="yes"/>
      <point x="312" y="384" type="line" smooth="yes"/>
      <point x="312" y="377"/>
      <point x="311" y="376"/>
      <point x="303" y="376" type="curve" smooth="yes"/>
      <point x="93" y="376" type="line" smooth="yes"/>
      <point x="68" y="376"/>
      <point x="71" y="371"/>
      <point x="71" y="353" type="curve" smooth="yes"/>
      <point x="71" y="323" type="line" smooth="yes"/>
      <point x="71" y="302"/>
      <point x="74" y="300"/>
      <point x="92" y="300" type="curve" smooth="yes"/>
      <point x="304" y="300" type="line" smooth="yes"/>
      <point x="312" y="300"/>
      <point x="312" y="299"/>
      <point x="312" y="293" type="curve" smooth="yes"/>
      <point x="312" y="75" type="line" smooth="yes"/>
      <point x="312" y="59"/>
      <point x="311" y="52"/>
      <point x="332" y="52" type="curve"/>
      <point x="347" y="51"/>
      <point x="350" y="52"/>
      <point x="363" y="52" type="curve" smooth="yes"/>
      <point x="384" y="52"/>
      <point x="388" y="52"/>
      <point x="388" y="75" type="curve" smooth="yes"/>
      <point x="388" y="285" type="line" smooth="yes"/>
      <point x="388" y="294"/>
      <point x="389" y="300"/>
      <point x="397" y="300" type="curve" smooth="yes"/>
    </contour>
  </outline>
</glyph>
<glyph name="comma" format="2">
  <advance width="251"/>
  <unicode hex="002C"/>
  <outline>
    <contour>
      <point x="103" y="-136" type="curve"/>
      <point x="156" y="-110"/>
      <point x="190" y="-53"/>
      <point x="190" y="2" type="curve" smooth="yes"/>
      <point x="190" y="48"/>
      <point x="165" y="82"/>
      <point x="125" y="82" type="curve" smooth="yes"/>
      <point x="96" y="82"/>
      <point x="70" y="60"/>
      <point x="70" y="28" type="curve" smooth="yes"/>
      <point x="70" y="-5"/>
      <point x="96" y="-29"/>
      <point x="128" y="-22" type="curve"/>
      <point x="136" y="-19"/>
      <point x="137" y="-18"/>
      <point x="137" y="-26" type="curve" smooth="yes"/>
      <point x="137" y="-52"/>
      <point x="119" y="-79"/>
      <point x="78" y="-104" type="curve"/>
      <point x="70" y="-107"/>
      <point x="70" y="-119"/>
      <point x="73" y="-128" type="curve"/>
      <point x="76" y="-130"/>
      <point x="77" y="-133"/>
      <point x="79" y="-135" type="curve" smooth="yes"/>
      <point x="84" y="-140"/>
      <point x="96" y="-139"/>
    </contour>
  </outline>
</glyph>
<glyph name="hyphen" format="2">
  <advance width="435"/>
  <unicode hex="002D"/>
  <outline>
    <contour>
      <point x="394" y="215" type="curve"/>
      <point x="396" y="249" type="line"/>
      <point x="396" y="258"/>
      <point x="387" y="268"/>
      <point x="377" y="268" type="curve" smooth="yes"/>
      <point x="297" y="265"/>
      <point x="143" y="266"/>
      <point x="68" y="268" type="curve" smooth="yes"/>
      <point x="60" y="268"/>
      <point x="44" y="263"/>
      <point x="44" y="249" type="curve" smooth="yes"/>
      <point x="44" y="214" type="line"/>
      <point x="46" y="208"/>
      <point x="49" y="199"/>
      <point x="59" y="199" type="curve" smooth="yes"/>
      <point x="198" y="197"/>
      <point x="254" y="197"/>
      <point x="379" y="199" type="curve"/>
      <point x="386" y="200"/>
      <point x="391" y="204"/>
    </contour>
  </outline>
</glyph>
<glyph name="period" format="2">
  <advance width="217"/>
  <unicode hex="002E"/>
  <outline>
    <contour>
      <point x="126" y="-18" type="curve" smooth="yes"/>
      <point x="161" y="-18"/>
      <point x="184" y="7"/>
      <point x="184" y="40" type="curve" smooth="yes"/>
      <point x="184" y="74"/>
      <point x="161" y="97"/>
      <point x="126" y="97" type="curve" smooth="yes"/>
      <point x="91" y="97"/>
      <point x="65" y="74"/>
      <point x="65" y="39" type="curve" smooth="yes"/>
      <point x="65" y="6"/>
      <point x="92" y="-18"/>
    </contour>
  </outline>
</glyph>
<glyph name="slash" format="2">
  <advance width="479"/>
  <unicode hex="002F"/>
  <outline>
    <contour>
      <point x="121" y="1" type="curve" smooth="yes"/>
      <point x="449" y="640" type="line"/>
      <point x="461" y="657"/>
      <point x="454" y="673"/>
      <point x="441" y="675" type="curve" smooth="yes"/>
      <point x="412" y="680"/>
      <point x="386" y="688"/>
      <point x="371" y="658" type="curve" smooth="yes"/>
      <point x="258" y="441"/>
      <point x="152" y="230"/>
      <point x="41" y="13" type="curve" smooth="yes"/>
      <point x="29" y="-9"/>
      <point x="45" y="-18"/>
      <point x="59" y="-20" type="curve" smooth="yes"/>
      <point x="66" y="-21"/>
      <point x="74" y="-21"/>
      <point x="80" y="-21" type="curve" smooth="yes"/>
      <point x="106" y="-21"/>
      <point x="109" y="-23"/>
    </contour>
  </outline>
</glyph>
<glyph name="zero" format="2">
  <advance width="489"/>
  <unicode hex="0030"/>
  <outline>
    <contour>
      <point x="249" y="-14" type="curve" smooth="yes"/>
      <point x="375" y="-14"/>
      <point x="463" y="83"/>
      <point x="463" y="218" type="curve" smooth="yes"/>
      <point x="463" y="355"/>
      <point x="375" y="455"/>
      <point x="250" y="455" type="curve" smooth="yes"/>
      <point x="127" y="455"/>
      <point x="38" y="354"/>
      <point x="38" y="215" type="curve" smooth="yes"/>
      <point x="38" y="84"/>
      <point x="128" y="-14"/>
    </contour>
    <contour>
      <point x="248" y="397" type="curve" smooth="yes"/>
      <point x="332" y="397"/>
      <point x="382" y="336"/>
      <point x="382" y="220" type="curve" smooth="yes"/>
      <point x="382" y="107"/>
      <point x="331" y="46"/>
      <point x="249" y="46" type="curve" smooth="yes"/>
      <point x="170" y="46"/>
      <point x="120" y="108"/>
      <point x="120" y="221" type="curve" smooth="yes"/>
      <point x="120" y="333"/>
      <point x="172" y="397"/>
    </contour>
  </outline>
</glyph>
<glyph name="two" format="2">
  <advance width="481"/>
  <unicode hex="0032"/>
  <outline>
    <contour>
      <point x="406" y="14" type="curve" smooth="yes"/>
      <point x="439" y="150" type="line" smooth="yes"/>
      <point x="443" y="166"/>
      <point x="414" y="173"/>
      <point x="402" y="161" type="curve"/>
      <point x="391" y="132"/>
      <point x="381" y="112"/>
      <point x="373" y="99" type="curve"/>
      <point x="364" y="81"/>
      <point x="359" y="80"/>
      <point x="336" y="79" type="curve" smooth="yes"/>
      <point x="283" y="77"/>
      <point x="251" y="78"/>
      <point x="199" y="78" type="curve" smooth="yes"/>
      <point x="197" y="78"/>
      <point x="169" y="76"/>
      <point x="182" y="85" type="curve" smooth="yes"/>
      <point x="260" y="140"/>
      <point x="385" y="231"/>
      <point x="385" y="335" type="curve" smooth="yes"/>
      <point x="385" y="404"/>
      <point x="321" y="455"/>
      <point x="245" y="455" type="curve" smooth="yes"/>
      <point x="178" y="455"/>
      <point x="128" y="427"/>
      <point x="68" y="359" type="curve"/>
      <point x="57" y="335"/>
      <point x="92" y="329"/>
      <point x="98" y="334" type="curve"/>
      <point x="140" y="373"/>
      <point x="171" y="386"/>
      <point x="207" y="386" type="curve" smooth="yes"/>
      <point x="259" y="386"/>
      <point x="294" y="350"/>
      <point x="294" y="297" type="curve" smooth="yes"/>
      <point x="294" y="259"/>
      <point x="273" y="223"/>
      <point x="213" y="169" type="curve" smooth="yes"/>
      <point x="164" y="126"/>
      <point x="120" y="90"/>
      <point x="38" y="33" type="curve"/>
      <point x="33" y="27"/>
      <point x="28" y="3"/>
      <point x="42" y="-4" type="curve"/>
      <point x="366" y="-4" type="line"/>
      <point x="374" y="-4" type="line" smooth="yes"/>
      <point x="386" y="-4"/>
      <point x="402" y="-1"/>
    </contour>
  </outline>
</glyph>
<glyph name="three" format="2">
  <advance width="407"/>
  <unicode hex="0033"/>
  <outline>
    <contour>
      <point x="253" y="191" type="curve"/>
      <point x="249" y="192"/>
      <point x="247" y="195"/>
      <point x="251" y="200" type="curve"/>
      <point x="296" y="243"/>
      <point x="330" y="264"/>
      <point x="330" y="333" type="curve" smooth="yes"/>
      <point x="330" y="403"/>
      <point x="278" y="458"/>
      <point x="212" y="458" type="curve" smooth="yes"/>
      <point x="152" y="458"/>
      <point x="101" y="419"/>
      <point x="68" y="353" type="curve"/>
      <point x="65" y="343"/>
      <point x="70" y="335"/>
      <point x="75" y="330" type="curve"/>
      <point x="103" y="307"/>
      <point x="115" y="382"/>
      <point x="184" y="382" type="curve" smooth="yes"/>
      <point x="219" y="382"/>
      <point x="243" y="359"/>
      <point x="243" y="313" type="curve" smooth="yes"/>
      <point x="243" y="259"/>
      <point x="207" y="202"/>
      <point x="125" y="151" type="curve" smooth="yes"/>
      <point x="116" y="145"/>
      <point x="118" y="108"/>
      <point x="139" y="114" type="curve" smooth="yes"/>
      <point x="170" y="123"/>
      <point x="193" y="123"/>
      <point x="217" y="102" type="curve" smooth="yes"/>
      <point x="243" y="78"/>
      <point x="254" y="50"/>
      <point x="254" y="-13" type="curve" smooth="yes"/>
      <point x="254" y="-85"/>
      <point x="226" y="-125"/>
      <point x="195" y="-125" type="curve" smooth="yes"/>
      <point x="180" y="-125"/>
      <point x="166" y="-120"/>
      <point x="135" y="-96" type="curve"/>
      <point x="129" y="-92"/>
      <point x="124" y="-87"/>
      <point x="118" y="-83" type="curve"/>
      <point x="92" y="-68"/>
      <point x="54" y="-83"/>
      <point x="54" y="-119" type="curve" smooth="yes"/>
      <point x="54" y="-160"/>
      <point x="94" y="-180"/>
      <point x="149" y="-180" type="curve" smooth="yes"/>
      <point x="257" y="-180"/>
      <point x="345" y="-72"/>
      <point x="345" y="51" type="curve" smooth="yes"/>
      <point x="345" y="108"/>
      <point x="319" y="145"/>
      <point x="284" y="175" type="curve" smooth="yes"/>
      <point x="277" y="181"/>
      <point x="265" y="187"/>
    </contour>
  </outline>
</glyph>
<glyph name="four" format="2">
  <advance width="489"/>
  <unicode hex="0034"/>
  <outline>
    <contour>
      <point x="435" y="-4" type="line"/>
      <point x="447" y="-6"/>
      <point x="457" y="-2"/>
      <point x="457" y="14" type="curve" smooth="yes"/>
      <point x="457" y="25"/>
      <point x="458" y="43"/>
      <point x="456" y="53" type="curve" smooth="yes"/>
      <point x="452" y="69"/>
      <point x="450" y="64"/>
      <point x="439" y="67" type="curve"/>
      <point x="351" y="66" type="line"/>
      <point x="345" y="69"/>
      <point x="343" y="71"/>
      <point x="342" y="78" type="curve"/>
      <point x="342" y="449" type="line" smooth="yes"/>
      <point x="342" y="452"/>
      <point x="339" y="455"/>
      <point x="334" y="457" type="curve"/>
      <point x="328" y="458"/>
      <point x="316" y="456"/>
      <point x="311" y="454" type="curve"/>
      <point x="307" y="452"/>
      <point x="304" y="450"/>
      <point x="302" y="447" type="curve" smooth="yes"/>
      <point x="30" y="32" type="line" smooth="yes"/>
      <point x="24" y="23"/>
      <point x="25" y="-1"/>
      <point x="37" y="-3" type="curve"/>
      <point x="109" y="-3"/>
      <point x="172" y="-3"/>
      <point x="237" y="-3" type="curve" smooth="yes"/>
      <point x="244" y="-3"/>
      <point x="251" y="-8"/>
      <point x="251" y="-11" type="curve" smooth="yes"/>
      <point x="251" y="-55"/>
      <point x="250" y="-138"/>
      <point x="250" y="-164" type="curve" smooth="yes"/>
      <point x="250" y="-169"/>
      <point x="258" y="-179"/>
      <point x="272" y="-178" type="curve"/>
      <point x="328" y="-178" type="line" smooth="yes"/>
      <point x="347" y="-178"/>
      <point x="342" y="-163"/>
      <point x="342" y="-154" type="curve" smooth="yes"/>
      <point x="343" y="-123"/>
      <point x="344" y="-60"/>
      <point x="342" y="-10" type="curve" smooth="yes"/>
      <point x="342" y="-9"/>
      <point x="348" y="-3"/>
      <point x="350" y="-3" type="curve" smooth="yes"/>
    </contour>
    <contour>
      <point x="248" y="283" type="line" smooth="yes"/>
      <point x="252" y="289"/>
      <point x="255" y="289"/>
      <point x="255" y="277" type="curve"/>
      <point x="253" y="206"/>
      <point x="251" y="137"/>
      <point x="252" y="82" type="curve" smooth="yes"/>
      <point x="252" y="73"/>
      <point x="246" y="66"/>
      <point x="242" y="66" type="curve" smooth="yes"/>
      <point x="197" y="66"/>
      <point x="177" y="64"/>
      <point x="122" y="66" type="curve" smooth="yes"/>
      <point x="119" y="66"/>
      <point x="109" y="69"/>
      <point x="111" y="72" type="curve" smooth="yes"/>
    </contour>
  </outline>
</glyph>
<glyph name="five" format="2">
  <advance width="437"/>
  <unicode hex="0035"/>
  <outline>
    <contour>
      <point x="334" y="365" type="curve" smooth="yes"/>
      <point x="339" y="370"/>
      <point x="364" y="404"/>
      <point x="367" y="418" type="curve"/>
      <point x="372" y="435"/>
      <point x="363" y="439"/>
      <point x="346" y="441" type="curve" smooth="yes"/>
      <point x="236" y="454" type="line" smooth="yes"/>
      <point x="227" y="455"/>
      <point x="224" y="453"/>
      <point x="218" y="446" type="curve" smooth="yes"/>
      <point x="180" y="405"/>
      <point x="112" y="318"/>
      <point x="80" y="273" type="curve" smooth="yes"/>
      <point x="77" y="269"/>
      <point x="69" y="253"/>
      <point x="82" y="245" type="curve" smooth="yes"/>
      <point x="165" y="193"/>
      <point x="276" y="114"/>
      <point x="276" y="11" type="curve" smooth="yes"/>
      <point x="276" y="-58"/>
      <point x="229" y="-113"/>
      <point x="179" y="-113" type="curve" smooth="yes"/>
      <point x="168" y="-113"/>
      <point x="152" y="-109"/>
      <point x="110" y="-94" type="curve" smooth="yes"/>
      <point x="100" y="-90"/>
      <point x="90" y="-88"/>
      <point x="83" y="-88" type="curve" smooth="yes"/>
      <point x="60" y="-88"/>
      <point x="43" y="-108"/>
      <point x="43" y="-131" type="curve" smooth="yes"/>
      <point x="43" y="-161"/>
      <point x="68" y="-177"/>
      <point x="99" y="-177" type="curve" smooth="yes"/>
      <point x="150" y="-177"/>
      <point x="206" y="-161"/>
      <point x="253" y="-130" type="curve" smooth="yes"/>
      <point x="317" y="-88"/>
      <point x="358" y="-26"/>
      <point x="358" y="42" type="curve" smooth="yes"/>
      <point x="358" y="104"/>
      <point x="320" y="171"/>
      <point x="263" y="225" type="curve" smooth="yes"/>
      <point x="230" y="257"/>
      <point x="211" y="273"/>
      <point x="172" y="298" type="curve" smooth="yes"/>
      <point x="160" y="305"/>
      <point x="162" y="305"/>
      <point x="172" y="316" type="curve"/>
      <point x="210" y="364" type="line"/>
      <point x="214" y="370"/>
      <point x="215" y="369"/>
      <point x="222" y="369" type="curve"/>
      <point x="313" y="357" type="line"/>
      <point x="323" y="357"/>
      <point x="327" y="358"/>
    </contour>
  </outline>
</glyph>
<glyph name="six" format="2">
  <advance width="503"/>
  <unicode hex="0036"/>
  <outline>
    <contour>
      <point x="255" y="-14" type="curve" smooth="yes"/>
      <point x="367" y="-14"/>
      <point x="453" y="78"/>
      <point x="453" y="199" type="curve" smooth="yes"/>
      <point x="453" y="317"/>
      <point x="371" y="399"/>
      <point x="255" y="399" type="curve" smooth="yes"/>
      <point x="246" y="399"/>
      <point x="237" y="399"/>
      <point x="228" y="398" type="curve"/>
      <point x="225" y="397"/>
      <point x="200" y="395"/>
      <point x="208" y="406" type="curve" smooth="yes"/>
      <point x="270" y="490"/>
      <point x="339" y="535"/>
      <point x="440" y="581" type="curve"/>
      <point x="461" y="609"/>
      <point x="434" y="621"/>
      <point x="411" y="614" type="curve" smooth="yes"/>
      <point x="240" y="560"/>
      <point x="45" y="432"/>
      <point x="45" y="221" type="curve" smooth="yes"/>
      <point x="45" y="87"/>
      <point x="135" y="-14"/>
    </contour>
    <contour>
      <point x="242" y="361" type="curve" smooth="yes"/>
      <point x="313" y="361"/>
      <point x="357" y="300"/>
      <point x="357" y="183" type="curve" smooth="yes"/>
      <point x="357" y="120"/>
      <point x="344" y="78"/>
      <point x="318" y="52" type="curve" smooth="yes"/>
      <point x="301" y="35"/>
      <point x="277" y="25"/>
      <point x="252" y="25" type="curve" smooth="yes"/>
      <point x="187" y="25"/>
      <point x="143" y="86"/>
      <point x="143" y="199" type="curve" smooth="yes"/>
      <point x="143" y="251"/>
      <point x="149" y="280"/>
      <point x="174" y="343" type="curve"/>
      <point x="206" y="358"/>
      <point x="221" y="361"/>
    </contour>
  </outline>
</glyph>
<glyph name="nine" format="2">
  <advance width="489"/>
  <unicode hex="0039"/>
  <outline>
    <contour>
      <point x="70" y="-176" type="curve" smooth="yes"/>
      <point x="265" y="-129"/>
      <point x="443" y="-17"/>
      <point x="443" y="214" type="curve" smooth="yes"/>
      <point x="443" y="350"/>
      <point x="357" y="456"/>
      <point x="234" y="456" type="curve" smooth="yes"/>
      <point x="121" y="456"/>
      <point x="35" y="369"/>
      <point x="35" y="248" type="curve" smooth="yes"/>
      <point x="35" y="135"/>
      <point x="120" y="42"/>
      <point x="230" y="42" type="curve" smooth="yes"/>
      <point x="257" y="42"/>
      <point x="271" y="46"/>
      <point x="297" y="52" type="curve"/>
      <point x="303" y="54"/>
      <point x="297" y="38"/>
      <point x="294" y="33" type="curve" smooth="yes"/>
      <point x="241" y="-52"/>
      <point x="144" y="-100"/>
      <point x="52" y="-134" type="curve" smooth="yes"/>
      <point x="31" y="-142"/>
      <point x="43" y="-182"/>
    </contour>
    <contour>
      <point x="238" y="417" type="curve" smooth="yes"/>
      <point x="301" y="417"/>
      <point x="346" y="358"/>
      <point x="346" y="245" type="curve" smooth="yes"/>
      <point x="346" y="198"/>
      <point x="344" y="167"/>
      <point x="330" y="119" type="curve" smooth="yes"/>
      <point x="326" y="105"/>
      <point x="325" y="103"/>
      <point x="314" y="97" type="curve" smooth="yes"/>
      <point x="286" y="83"/>
      <point x="268" y="80"/>
      <point x="246" y="80" type="curve" smooth="yes"/>
      <point x="176" y="80"/>
      <point x="131" y="142"/>
      <point x="131" y="258" type="curve" smooth="yes"/>
      <point x="131" y="329"/>
      <point x="150" y="417"/>
    </contour>
  </outline>
</glyph>
<glyph name="colon" format="2">
  <advance width="257"/>
  <unicode hex="003A"/>
  <outline>
    <contour>
      <point x="129" y="292" type="curve" smooth="yes"/>
      <point x="159" y="292"/>
      <point x="182" y="314"/>
      <point x="182" y="346" type="curve" smooth="yes"/>
      <point x="182" y="379"/>
      <point x="159" y="401"/>
      <point x="129" y="401" type="curve" smooth="yes"/>
      <point x="99" y="401"/>
      <point x="76" y="379"/>
      <point x="76" y="346" type="curve" smooth="yes"/>
      <point x="76" y="314"/>
      <point x="99" y="292"/>
    </contour>
    <contour>
      <point x="129" y="-10" type="curve" smooth="yes"/>
      <point x="159" y="-10"/>
      <point x="182" y="13"/>
      <point x="182" y="45" type="curve" smooth="yes"/>
      <point x="182" y="78"/>
      <point x="159" y="99"/>
      <point x="129" y="99" type="curve" smooth="yes"/>
      <point x="99" y="99"/>
      <point x="76" y="78"/>
      <point x="76" y="45" type="curve" smooth="yes"/>
      <point x="76" y="14"/>
      <point x="99" y="-10"/>
    </contour>
  </outline>
</glyph>
<glyph name="semicolon" format="2">
  <advance width="230"/>
  <unicode hex="003B"/>
  <outline>
    <contour>
      <point x="118" y="289" type="curve" smooth="yes"/>
      <point x="148" y="289"/>
      <point x="173" y="312"/>
      <point x="173" y="344" type="curve" smooth="yes"/>
      <point x="173" y="377"/>
      <point x="148" y="399"/>
      <point x="118" y="399" type="curve" smooth="yes"/>
      <point x="87" y="399"/>
      <point x="64" y="376"/>
      <point x="64" y="344" type="curve" smooth="yes"/>
      <point x="64" y="312"/>
      <point x="87" y="289"/>
    </contour>
    <contour>
      <point x="85" y="-144" type="curve"/>
      <point x="147" y="-118"/>
      <point x="191" y="-55"/>
      <point x="191" y="8" type="curve" smooth="yes"/>
      <point x="191" y="58"/>
      <point x="161" y="94"/>
      <point x="120" y="94" type="curve" smooth="yes"/>
      <point x="89" y="94"/>
      <point x="63" y="71"/>
      <point x="63" y="38" type="curve" smooth="yes"/>
      <point x="63" y="9"/>
      <point x="83" y="-16"/>
      <point x="110" y="-16" type="curve" smooth="yes"/>
      <point x="118" y="-16"/>
      <point x="125" y="-13"/>
      <point x="133" y="-13" type="curve" smooth="yes"/>
      <point x="134" y="-13"/>
      <point x="134" y="-15"/>
      <point x="134" y="-21" type="curve" smooth="yes"/>
      <point x="134" y="-49"/>
      <point x="115" y="-79"/>
      <point x="71" y="-107" type="curve"/>
      <point x="55" y="-115"/>
      <point x="68" y="-150"/>
    </contour>
  </outline>
</glyph>
<glyph name="less" format="2">
  <advance width="698"/>
  <unicode hex="003C"/>
  <outline>
    <contour>
      <point x="592" y="85" type="curve" smooth="yes"/>
      <point x="623" y="74"/>
      <point x="630" y="92"/>
      <point x="630" y="111" type="curve" smooth="yes"/>
      <point x="630" y="132" type="line" smooth="yes"/>
      <point x="630" y="144"/>
      <point x="628" y="154"/>
      <point x="613" y="160" type="curve" smooth="yes"/>
      <point x="509" y="201"/>
      <point x="306" y="286"/>
      <point x="198" y="332" type="curve"/>
      <point x="188" y="337"/>
      <point x="193" y="344"/>
      <point x="200" y="346" type="curve"/>
      <point x="305" y="388"/>
      <point x="503" y="472"/>
      <point x="605" y="515" type="curve" smooth="yes"/>
      <point x="614" y="519"/>
      <point x="630" y="531"/>
      <point x="630" y="543" type="curve" smooth="yes"/>
      <point x="630" y="558" type="line" smooth="yes"/>
      <point x="630" y="582"/>
      <point x="627" y="605"/>
      <point x="597" y="594" type="curve" smooth="yes"/>
      <point x="487" y="550"/>
      <point x="212" y="432"/>
      <point x="85" y="376" type="curve" smooth="yes"/>
      <point x="71" y="370"/>
      <point x="70" y="363"/>
      <point x="70" y="353" type="curve"/>
      <point x="69" y="348"/>
      <point x="67" y="336"/>
      <point x="70" y="327" type="curve"/>
      <point x="70" y="315"/>
      <point x="71" y="309"/>
      <point x="84" y="303" type="curve" smooth="yes"/>
      <point x="206" y="247"/>
      <point x="455" y="136"/>
    </contour>
  </outline>
</glyph>
<glyph name="equal" format="2">
  <advance width="698"/>
  <unicode hex="003D"/>
  <outline>
    <contour>
      <point x="600" y="417" type="line" smooth="yes"/>
      <point x="620" y="417"/>
      <point x="631" y="415"/>
      <point x="631" y="439" type="curve" smooth="yes"/>
      <point x="631" y="447"/>
      <point x="630" y="455"/>
      <point x="630" y="460" type="curve" smooth="yes"/>
      <point x="630" y="480"/>
      <point x="628" y="497"/>
      <point x="604" y="496" type="curve" smooth="yes"/>
      <point x="482" y="493"/>
      <point x="223" y="494"/>
      <point x="97" y="493" type="curve" smooth="yes"/>
      <point x="87" y="493"/>
      <point x="74" y="490"/>
      <point x="71" y="477" type="curve"/>
      <point x="72" y="440" type="line"/>
      <point x="74" y="429"/>
      <point x="76" y="415"/>
      <point x="97" y="417" type="curve"/>
    </contour>
    <contour>
      <point x="630" y="212" type="curve" smooth="yes"/>
      <point x="631" y="240" type="line" smooth="yes"/>
      <point x="632" y="259"/>
      <point x="617" y="263"/>
      <point x="607" y="263" type="curve" smooth="yes"/>
      <point x="472" y="263"/>
      <point x="226" y="263"/>
      <point x="101" y="265" type="curve"/>
      <point x="88" y="266"/>
      <point x="68" y="270"/>
      <point x="68" y="243" type="curve" smooth="yes"/>
      <point x="68" y="212" type="line" smooth="yes"/>
      <point x="68" y="188"/>
      <point x="82" y="186"/>
      <point x="100" y="186" type="curve" smooth="yes"/>
      <point x="599" y="186" type="line" smooth="yes"/>
      <point x="626" y="186"/>
      <point x="629" y="193"/>
    </contour>
  </outline>
</glyph>
<glyph name="greater" format="2">
  <advance width="698"/>
  <unicode hex="003E"/>
  <outline>
    <contour>
      <point x="606" y="299" type="curve" smooth="yes"/>
      <point x="626" y="308"/>
      <point x="630" y="313"/>
      <point x="630" y="328" type="curve"/>
      <point x="632" y="336"/>
      <point x="630" y="348"/>
      <point x="629" y="353" type="curve"/>
      <point x="629" y="366"/>
      <point x="621" y="373"/>
      <point x="609" y="378" type="curve" smooth="yes"/>
      <point x="481" y="434"/>
      <point x="256" y="530"/>
      <point x="102" y="594" type="curve" smooth="yes"/>
      <point x="80" y="603"/>
      <point x="70" y="590"/>
      <point x="70" y="562" type="curve" smooth="yes"/>
      <point x="70" y="545" type="line" smooth="yes"/>
      <point x="70" y="522"/>
      <point x="77" y="522"/>
      <point x="94" y="515" type="curve" smooth="yes"/>
      <point x="192" y="475"/>
      <point x="361" y="406"/>
      <point x="499" y="346" type="curve"/>
      <point x="507" y="343"/>
      <point x="507" y="335"/>
      <point x="501" y="332" type="curve"/>
      <point x="395" y="286"/>
      <point x="189" y="201"/>
      <point x="86" y="160" type="curve" smooth="yes"/>
      <point x="72" y="154"/>
      <point x="69" y="145"/>
      <point x="69" y="132" type="curve" smooth="yes"/>
      <point x="69" y="126"/>
      <point x="70" y="119"/>
      <point x="70" y="111" type="curve" smooth="yes"/>
      <point x="70" y="93"/>
      <point x="76" y="72"/>
      <point x="107" y="85" type="curve" smooth="yes"/>
      <point x="233" y="138"/>
      <point x="483" y="243"/>
    </contour>
  </outline>
</glyph>
<glyph name="question" format="2">
  <advance width="362"/>
  <unicode hex="003F"/>
  <outline>
    <contour>
      <point x="251" y="324" type="curve" smooth="yes"/>
      <point x="298" y="357"/>
      <point x="325" y="408"/>
      <point x="325" y="475" type="curve" smooth="yes"/>
      <point x="325" y="590"/>
      <point x="248" y="670"/>
      <point x="140" y="670" type="curve" smooth="yes"/>
      <point x="86" y="670"/>
      <point x="42" y="653"/>
      <point x="42" y="610" type="curve" smooth="yes"/>
      <point x="42" y="576"/>
      <point x="71" y="561"/>
      <point x="110" y="561" type="curve" smooth="yes"/>
      <point x="135" y="561"/>
      <point x="157" y="568"/>
      <point x="185" y="568" type="curve" smooth="yes"/>
      <point x="244" y="568"/>
      <point x="276" y="539"/>
      <point x="276" y="490" type="curve" smooth="yes"/>
      <point x="276" y="442"/>
      <point x="256" y="417"/>
      <point x="171" y="384" type="curve" smooth="yes"/>
      <point x="113" y="362"/>
      <point x="89" y="336"/>
      <point x="89" y="285" type="curve" smooth="yes"/>
      <point x="89" y="249"/>
      <point x="106" y="215"/>
      <point x="141" y="171" type="curve" smooth="yes"/>
      <point x="148" y="163"/>
      <point x="166" y="158"/>
      <point x="176" y="161" type="curve"/>
      <point x="181" y="163"/>
      <point x="188" y="175"/>
      <point x="184" y="180" type="curve" smooth="yes"/>
      <point x="152" y="219"/>
      <point x="144" y="235"/>
      <point x="144" y="252" type="curve" smooth="yes"/>
      <point x="144" y="267"/>
      <point x="151" y="277"/>
      <point x="181" y="288" type="curve" smooth="yes"/>
      <point x="218" y="302"/>
      <point x="229" y="309"/>
    </contour>
    <contour>
      <point x="156" y="-17" type="curve" smooth="yes"/>
      <point x="191" y="-17"/>
      <point x="218" y="8"/>
      <point x="218" y="43" type="curve" smooth="yes"/>
      <point x="218" y="78"/>
      <point x="191" y="102"/>
      <point x="156" y="102" type="curve" smooth="yes"/>
      <point x="122" y="102"/>
      <point x="94" y="79"/>
      <point x="94" y="43" type="curve" smooth="yes"/>
      <point x="94" y="8"/>
      <point x="122" y="-17"/>
    </contour>
  </outline>
</glyph>
<glyph name="at" format="2">
  <advance width="960"/>
  <unicode hex="0040"/>
  <outline>
    <contour>
      <point x="587" y="473" type="curve"/>
      <point x="586" y="469"/>
      <point x="586" y="468"/>
      <point x="580" y="477" type="curve"/>
      <point x="565" y="496"/>
      <point x="544" y="506"/>
      <point x="515" y="506" type="curve" smooth="yes"/>
      <point x="475" y="506"/>
      <point x="424" y="479"/>
      <point x="382" y="435" type="curve" smooth="yes"/>
      <point x="318" y="369"/>
      <point x="283" y="275"/>
      <point x="283" y="201" type="curve" smooth="yes"/>
      <point x="283" y="143"/>
      <point x="319" y="92"/>
      <point x="370" y="92" type="curve" smooth="yes"/>
      <point x="422" y="92"/>
      <point x="474" y="137"/>
      <point x="509" y="177" type="curve" smooth="yes"/>
      <point x="519" y="189"/>
      <point x="516" y="166"/>
      <point x="516" y="162" type="curve" smooth="yes"/>
      <point x="516" y="116"/>
      <point x="543" y="92"/>
      <point x="590" y="92" type="curve" smooth="yes"/>
      <point x="723" y="92"/>
      <point x="837" y="243"/>
      <point x="837" y="409" type="curve" smooth="yes"/>
      <point x="837" y="585"/>
      <point x="704" y="697"/>
      <point x="522" y="697" type="curve" smooth="yes"/>
      <point x="297" y="697"/>
      <point x="114" y="512"/>
      <point x="114" y="276" type="curve" smooth="yes"/>
      <point x="114" y="57"/>
      <point x="278" y="-105"/>
      <point x="491" y="-105" type="curve" smooth="yes"/>
      <point x="660" y="-105"/>
      <point x="804" y="-4"/>
      <point x="859" y="156" type="curve" smooth="yes"/>
      <point x="861" y="162"/>
      <point x="864" y="174"/>
      <point x="849" y="177" type="curve"/>
      <point x="846" y="177"/>
      <point x="842" y="178"/>
      <point x="839" y="178" type="curve" smooth="yes"/>
      <point x="823" y="178"/>
      <point x="821" y="174"/>
      <point x="815" y="162" type="curve" smooth="yes"/>
      <point x="752" y="19"/>
      <point x="638" y="-54"/>
      <point x="493" y="-54" type="curve" smooth="yes"/>
      <point x="324" y="-54"/>
      <point x="177" y="74"/>
      <point x="177" y="265" type="curve" smooth="yes"/>
      <point x="177" y="484"/>
      <point x="333" y="654"/>
      <point x="525" y="654" type="curve" smooth="yes"/>
      <point x="677" y="654"/>
      <point x="788" y="550"/>
      <point x="788" y="406" type="curve" smooth="yes"/>
      <point x="788" y="331"/>
      <point x="756" y="254"/>
      <point x="712" y="201" type="curve" smooth="yes"/>
      <point x="684" y="167"/>
      <point x="644" y="144"/>
      <point x="618" y="144" type="curve" smooth="yes"/>
      <point x="601" y="144"/>
      <point x="596" y="156"/>
      <point x="597" y="176" type="curve" smooth="yes"/>
      <point x="599" y="203"/>
      <point x="604" y="210"/>
      <point x="622" y="274" type="curve" smooth="yes"/>
      <point x="641" y="342"/>
      <point x="672" y="455"/>
      <point x="682" y="488" type="curve"/>
      <point x="682" y="498"/>
      <point x="677" y="505"/>
      <point x="666" y="505" type="curve" smooth="yes"/>
      <point x="659" y="505"/>
      <point x="635" y="505"/>
      <point x="626" y="505" type="curve"/>
      <point x="600" y="502"/>
      <point x="599" y="500"/>
    </contour>
    <contour>
      <point x="519" y="465" type="curve" smooth="yes"/>
      <point x="543" y="465"/>
      <point x="566" y="445"/>
      <point x="566" y="412" type="curve" smooth="yes"/>
      <point x="566" y="352"/>
      <point x="547" y="287"/>
      <point x="510" y="238" type="curve" smooth="yes"/>
      <point x="470" y="184"/>
      <point x="437" y="164"/>
      <point x="408" y="164" type="curve" smooth="yes"/>
      <point x="390" y="164"/>
      <point x="371" y="183"/>
      <point x="371" y="214" type="curve" smooth="yes"/>
      <point x="371" y="268"/>
      <point x="407" y="369"/>
      <point x="459" y="430" type="curve" smooth="yes"/>
      <point x="478" y="453"/>
      <point x="502" y="465"/>
    </contour>
  </outline>
</glyph>
<glyph name="B" format="2">
  <advance width="656"/>
  <unicode hex="0042"/>
  <outline>
    <contour>
      <point x="499" y="362" type="curve" smooth="yes"/>
      <point x="491" y="366"/>
      <point x="485" y="373"/>
      <point x="497" y="379" type="curve" smooth="yes"/>
      <point x="544" y="404"/>
      <point x="577" y="449"/>
      <point x="577" y="500" type="curve" smooth="yes"/>
      <point x="577" y="557"/>
      <point x="541" y="607"/>
      <point x="486" y="632" type="curve" smooth="yes"/>
      <point x="439" y="653"/>
      <point x="418" y="660"/>
      <point x="331" y="660" type="curve" smooth="yes"/>
      <point x="228" y="660"/>
      <point x="144" y="663"/>
      <point x="42" y="651" type="curve" smooth="yes"/>
      <point x="31" y="650"/>
      <point x="28" y="606"/>
      <point x="42" y="606" type="curve" smooth="yes"/>
      <point x="65" y="606" type="line" smooth="yes"/>
      <point x="127" y="606"/>
      <point x="142" y="606"/>
      <point x="142" y="512" type="curve" smooth="yes"/>
      <point x="142" y="136" type="line" smooth="yes"/>
      <point x="142" y="57"/>
      <point x="133" y="45"/>
      <point x="58" y="45" type="curve"/>
      <point x="50" y="47"/>
      <point x="40" y="45"/>
      <point x="32" y="44" type="curve"/>
      <point x="23" y="41"/>
      <point x="11" y="-2"/>
      <point x="34" y="-4" type="curve"/>
      <point x="119" y="-2"/>
      <point x="228" y="-2"/>
      <point x="325" y="-4" type="curve" smooth="yes"/>
      <point x="408" y="-6"/>
      <point x="426" y="0"/>
      <point x="458" y="6" type="curve" smooth="yes"/>
      <point x="546" y="23"/>
      <point x="615" y="108"/>
      <point x="615" y="201" type="curve" smooth="yes"/>
      <point x="615" y="272"/>
      <point x="569" y="328"/>
    </contour>
    <contour>
      <point x="421" y="590" type="curve" smooth="yes"/>
      <point x="447" y="568"/>
      <point x="461" y="534"/>
      <point x="461" y="494" type="curve" smooth="yes"/>
      <point x="461" y="449"/>
      <point x="443" y="417"/>
      <point x="413" y="404" type="curve" smooth="yes"/>
      <point x="369" y="385"/>
      <point x="319" y="390"/>
      <point x="272" y="390" type="curve" smooth="yes"/>
      <point x="271" y="390"/>
      <point x="253" y="394"/>
      <point x="253" y="404" type="curve" smooth="yes"/>
      <point x="253" y="600" type="line" smooth="yes"/>
      <point x="253" y="610"/>
      <point x="259" y="616"/>
      <point x="266" y="618" type="curve"/>
      <point x="320" y="622"/>
      <point x="375" y="628"/>
    </contour>
    <contour>
      <point x="424" y="323" type="curve" smooth="yes"/>
      <point x="469" y="297"/>
      <point x="496" y="248"/>
      <point x="496" y="195" type="curve" smooth="yes"/>
      <point x="496" y="113"/>
      <point x="440" y="49"/>
      <point x="357" y="49" type="curve" smooth="yes"/>
      <point x="289" y="49"/>
      <point x="264" y="66"/>
      <point x="258" y="101" type="curve" smooth="yes"/>
      <point x="255" y="116"/>
      <point x="253" y="144"/>
      <point x="253" y="178" type="curve" smooth="yes"/>
      <point x="253" y="320" type="line" smooth="yes"/>
      <point x="253" y="328"/>
      <point x="260" y="342"/>
      <point x="270" y="344" type="curve"/>
      <point x="326" y="344"/>
      <point x="374" y="353"/>
    </contour>
  </outline>
</glyph>
<glyph name="C" format="2">
  <advance width="762"/>
  <unicode hex="0043"/>
  <outline>
    <contour>
      <point x="627" y="6" type="curve"/>
      <point x="656" y="54"/>
      <point x="683" y="116"/>
      <point x="699" y="168" type="curve" smooth="yes"/>
      <point x="704" y="187"/>
      <point x="663" y="187"/>
      <point x="657" y="173" type="curve"/>
      <point x="632" y="128"/>
      <point x="625" y="119"/>
      <point x="600" y="96" type="curve" smooth="yes"/>
      <point x="553" y="54"/>
      <point x="508" y="34"/>
      <point x="443" y="34" type="curve" smooth="yes"/>
      <point x="287" y="34"/>
      <point x="178" y="163"/>
      <point x="178" y="338" type="curve" smooth="yes"/>
      <point x="178" y="509"/>
      <point x="273" y="616"/>
      <point x="429" y="616" type="curve" smooth="yes"/>
      <point x="530" y="616"/>
      <point x="598" y="560"/>
      <point x="631" y="464" type="curve"/>
      <point x="639" y="451"/>
      <point x="667" y="457"/>
      <point x="671" y="474" type="curve"/>
      <point x="670" y="493"/>
      <point x="671" y="512"/>
      <point x="671" y="534" type="curve" smooth="yes"/>
      <point x="672" y="558"/>
      <point x="670" y="586"/>
      <point x="662" y="624" type="curve"/>
      <point x="660" y="631"/>
      <point x="636" y="634"/>
      <point x="629" y="628" type="curve" smooth="yes"/>
      <point x="617" y="618"/>
      <point x="599" y="626"/>
      <point x="586" y="631" type="curve" smooth="yes"/>
      <point x="525" y="654"/>
      <point x="487" y="665"/>
      <point x="423" y="665" type="curve" smooth="yes"/>
      <point x="205" y="665"/>
      <point x="53" y="522"/>
      <point x="53" y="317" type="curve" smooth="yes"/>
      <point x="53" y="123"/>
      <point x="201" y="-19"/>
      <point x="412" y="-19" type="curve" smooth="yes"/>
      <point x="450" y="-19"/>
      <point x="490" y="-17"/>
      <point x="527" y="-5" type="curve" smooth="yes"/>
      <point x="557" y="5"/>
      <point x="570" y="10"/>
      <point x="602" y="10" type="curve" smooth="yes"/>
      <point x="609" y="10"/>
      <point x="611" y="10"/>
    </contour>
  </outline>
</glyph>
<glyph name="D" format="2">
  <advance width="773"/>
  <unicode hex="0044"/>
  <outline>
    <contour>
      <point x="24" y="649" type="curve"/>
      <point x="14" y="646"/>
      <point x="8" y="606"/>
      <point x="25" y="606" type="curve" smooth="yes"/>
      <point x="34" y="606" type="line" smooth="yes"/>
      <point x="113" y="606"/>
      <point x="111" y="594"/>
      <point x="111" y="512" type="curve" smooth="yes"/>
      <point x="111" y="137" type="line" smooth="yes"/>
      <point x="111" y="118"/>
      <point x="113" y="98"/>
      <point x="107" y="80" type="curve" smooth="yes"/>
      <point x="94" y="42"/>
      <point x="57" y="51"/>
      <point x="28" y="46" type="curve"/>
      <point x="10" y="40"/>
      <point x="13" y="18"/>
      <point x="16" y="9" type="curve" smooth="yes"/>
      <point x="20" y="-3"/>
      <point x="34" y="-4"/>
      <point x="43" y="-4" type="curve" smooth="yes"/>
      <point x="279" y="-3" type="line" smooth="yes"/>
      <point x="351" y="-3"/>
      <point x="404" y="-2"/>
      <point x="475" y="18" type="curve" smooth="yes"/>
      <point x="620" y="60"/>
      <point x="722" y="196"/>
      <point x="722" y="346" type="curve" smooth="yes"/>
      <point x="722" y="446"/>
      <point x="679" y="531"/>
      <point x="600" y="588" type="curve" smooth="yes"/>
      <point x="528" y="639"/>
      <point x="451" y="659"/>
      <point x="322" y="659" type="curve" smooth="yes"/>
      <point x="224" y="659"/>
      <point x="130" y="655"/>
      <point x="31" y="651" type="curve"/>
      <point x="29" y="650"/>
      <point x="26" y="650"/>
    </contour>
    <contour>
      <point x="505" y="558" type="curve" smooth="yes"/>
      <point x="566" y="511"/>
      <point x="602" y="426"/>
      <point x="602" y="330" type="curve" smooth="yes"/>
      <point x="602" y="124"/>
      <point x="474" y="45"/>
      <point x="291" y="45" type="curve" smooth="yes"/>
      <point x="229" y="45"/>
      <point x="221" y="62"/>
      <point x="221" y="106" type="curve" smooth="yes"/>
      <point x="221" y="594" type="line" smooth="yes"/>
      <point x="221" y="604"/>
      <point x="231" y="613"/>
      <point x="240" y="614" type="curve"/>
      <point x="283" y="616"/>
      <point x="306" y="616"/>
      <point x="349" y="612" type="curve" smooth="yes"/>
      <point x="426" y="604"/>
      <point x="462" y="590"/>
    </contour>
  </outline>
</glyph>
<glyph name="E" format="2">
  <advance width="619"/>
  <unicode hex="0045"/>
  <outline>
    <contour>
      <point x="565" y="17" type="curve" smooth="yes"/>
      <point x="575" y="101"/>
      <point x="585" y="152"/>
      <point x="579" y="163" type="curve" smooth="yes"/>
      <point x="576" y="169"/>
      <point x="562" y="172"/>
      <point x="550" y="171" type="curve"/>
      <point x="544" y="170"/>
      <point x="538" y="166"/>
      <point x="536" y="156" type="curve"/>
      <point x="527" y="121"/>
      <point x="514" y="94"/>
      <point x="501" y="79" type="curve" smooth="yes"/>
      <point x="486" y="61"/>
      <point x="475" y="57"/>
      <point x="401" y="57" type="curve" smooth="yes"/>
      <point x="330" y="57" type="line" smooth="yes"/>
      <point x="254" y="57"/>
      <point x="257" y="58"/>
      <point x="257" y="131" type="curve" smooth="yes"/>
      <point x="257" y="286" type="line" smooth="yes"/>
      <point x="257" y="292"/>
      <point x="261" y="306"/>
      <point x="278" y="306" type="curve" smooth="yes"/>
      <point x="375" y="306" type="line" smooth="yes"/>
      <point x="451" y="305"/>
      <point x="452" y="302"/>
      <point x="462" y="238" type="curve" smooth="yes"/>
      <point x="464" y="226"/>
      <point x="502" y="219"/>
      <point x="503" y="247" type="curve" smooth="yes"/>
      <point x="503" y="291"/>
      <point x="505" y="372"/>
      <point x="503" y="423" type="curve"/>
      <point x="498" y="450"/>
      <point x="466" y="442"/>
      <point x="463" y="433" type="curve"/>
      <point x="454" y="365"/>
      <point x="453" y="365"/>
      <point x="378" y="365" type="curve" smooth="yes"/>
      <point x="275" y="365" type="line" smooth="yes"/>
      <point x="272" y="365"/>
      <point x="257" y="366"/>
      <point x="257" y="380" type="curve" smooth="yes"/>
      <point x="257" y="577" type="line" smooth="yes"/>
      <point x="257" y="588"/>
      <point x="269" y="595"/>
      <point x="275" y="595" type="curve" smooth="yes"/>
      <point x="316" y="597"/>
      <point x="366" y="595"/>
      <point x="399" y="594" type="curve" smooth="yes"/>
      <point x="476" y="593"/>
      <point x="485" y="586"/>
      <point x="498" y="507" type="curve"/>
      <point x="498" y="502"/>
      <point x="499" y="494"/>
      <point x="509" y="492" type="curve"/>
      <point x="520" y="488"/>
      <point x="539" y="490"/>
      <point x="541" y="500" type="curve"/>
      <point x="539" y="529"/>
      <point x="540" y="563"/>
      <point x="532" y="635" type="curve" smooth="yes"/>
      <point x="531" y="644"/>
      <point x="520" y="650"/>
      <point x="508" y="650" type="curve" smooth="yes"/>
      <point x="413" y="652"/>
      <point x="201" y="651"/>
      <point x="71" y="650" type="curve" smooth="yes"/>
      <point x="62" y="650"/>
      <point x="54" y="652"/>
      <point x="49" y="642" type="curve"/>
      <point x="45" y="635"/>
      <point x="41" y="624"/>
      <point x="45" y="616" type="curve"/>
      <point x="53" y="602"/>
      <point x="64" y="604"/>
      <point x="77" y="604" type="curve" smooth="yes"/>
      <point x="142" y="604"/>
      <point x="148" y="579"/>
      <point x="148" y="511" type="curve" smooth="yes"/>
      <point x="148" y="137" type="line" smooth="yes"/>
      <point x="148" y="59"/>
      <point x="132" y="49"/>
      <point x="81" y="48" type="curve" smooth="yes"/>
      <point x="66" y="48"/>
      <point x="53" y="49"/>
      <point x="39" y="47" type="curve" smooth="yes"/>
      <point x="22" y="45"/>
      <point x="15" y="2"/>
      <point x="37" y="-2" type="curve" smooth="yes"/>
      <point x="42" y="-3" type="line"/>
      <point x="173" y="-1"/>
      <point x="390" y="-1"/>
      <point x="521" y="-2" type="curve" smooth="yes"/>
      <point x="535" y="-2"/>
      <point x="563" y="-4"/>
    </contour>
  </outline>
</glyph>
<glyph name="F" format="2">
  <advance width="543"/>
  <unicode hex="0046"/>
  <outline>
    <contour>
      <point x="496" y="517" type="curve"/>
      <point x="499" y="627" type="line"/>
      <point x="500" y="637"/>
      <point x="489" y="650"/>
      <point x="478" y="650" type="curve" smooth="yes"/>
      <point x="365" y="651"/>
      <point x="171" y="651"/>
      <point x="57" y="650" type="curve"/>
      <point x="37" y="652"/>
      <point x="38" y="609"/>
      <point x="52" y="606" type="curve"/>
      <point x="103" y="604"/>
      <point x="118" y="595"/>
      <point x="118" y="545" type="curve" smooth="yes"/>
      <point x="118" y="103" type="line" smooth="yes"/>
      <point x="118" y="54"/>
      <point x="106" y="44"/>
      <point x="52" y="41" type="curve"/>
      <point x="39" y="39"/>
      <point x="34" y="-3"/>
      <point x="56" y="-3" type="curve" smooth="yes"/>
      <point x="131" y="-1"/>
      <point x="229" y="-2"/>
      <point x="302" y="-3" type="curve"/>
      <point x="309" y="-4"/>
      <point x="315" y="6"/>
      <point x="315" y="18" type="curve" smooth="yes"/>
      <point x="315" y="33"/>
      <point x="313" y="41"/>
      <point x="304" y="43" type="curve"/>
      <point x="293" y="43" type="line" smooth="yes"/>
      <point x="239" y="43"/>
      <point x="226" y="53"/>
      <point x="226" y="103" type="curve" smooth="yes"/>
      <point x="226" y="298" type="line" smooth="yes"/>
      <point x="226" y="306"/>
      <point x="234" y="317"/>
      <point x="245" y="318" type="curve"/>
      <point x="273" y="317"/>
      <point x="325" y="317"/>
      <point x="353" y="318" type="curve" smooth="yes"/>
      <point x="427" y="320"/>
      <point x="435" y="311"/>
      <point x="440" y="251" type="curve" smooth="yes"/>
      <point x="442" y="234"/>
      <point x="476" y="239"/>
      <point x="478" y="250" type="curve"/>
      <point x="480" y="302"/>
      <point x="478" y="418"/>
      <point x="478" y="428" type="curve"/>
      <point x="476" y="443"/>
      <point x="441" y="442"/>
      <point x="439" y="424" type="curve" smooth="yes"/>
      <point x="435" y="380"/>
      <point x="427" y="377"/>
      <point x="357" y="377" type="curve" smooth="yes"/>
      <point x="316" y="376"/>
      <point x="280" y="374"/>
      <point x="240" y="377" type="curve"/>
      <point x="237" y="377"/>
      <point x="225" y="384"/>
      <point x="225" y="389" type="curve" smooth="yes"/>
      <point x="226" y="576" type="line"/>
      <point x="229" y="587"/>
      <point x="233" y="592"/>
      <point x="241" y="592" type="curve" smooth="yes"/>
      <point x="354" y="592" type="line" smooth="yes"/>
      <point x="439" y="592"/>
      <point x="452" y="582"/>
      <point x="456" y="527" type="curve"/>
      <point x="456" y="522"/>
      <point x="456" y="516"/>
      <point x="464" y="513" type="curve"/>
      <point x="473" y="511"/>
      <point x="485" y="510"/>
    </contour>
  </outline>
</glyph>
<glyph name="H" format="2">
  <advance width="788"/>
  <unicode hex="0048"/>
  <outline>
    <contour>
      <point x="751" y="-3" type="curve" smooth="yes"/>
      <point x="769" y="-3"/>
      <point x="772" y="25"/>
      <point x="768" y="36" type="curve"/>
      <point x="763" y="46"/>
      <point x="750" y="47"/>
      <point x="741" y="47" type="curve" smooth="yes"/>
      <point x="689" y="47"/>
      <point x="671" y="61"/>
      <point x="671" y="103" type="curve" smooth="yes"/>
      <point x="671" y="198"/>
      <point x="668" y="396"/>
      <point x="671" y="545" type="curve" smooth="yes"/>
      <point x="673" y="594"/>
      <point x="699" y="602"/>
      <point x="731" y="605" type="curve"/>
      <point x="734" y="605"/>
      <point x="737" y="605"/>
      <point x="740" y="606" type="curve"/>
      <point x="761" y="610"/>
      <point x="755" y="651"/>
      <point x="732" y="650" type="curve" smooth="yes"/>
      <point x="673" y="648"/>
      <point x="556" y="655"/>
      <point x="485" y="653" type="curve" smooth="yes"/>
      <point x="474" y="653"/>
      <point x="467" y="651"/>
      <point x="462" y="641" type="curve"/>
      <point x="458" y="629"/>
      <point x="460" y="610"/>
      <point x="473" y="608" type="curve"/>
      <point x="494" y="607" type="line" smooth="yes"/>
      <point x="537" y="605"/>
      <point x="564" y="593"/>
      <point x="564" y="545" type="curve" smooth="yes"/>
      <point x="564" y="486"/>
      <point x="565" y="437"/>
      <point x="564" y="377" type="curve"/>
      <point x="564" y="363"/>
      <point x="545" y="356"/>
      <point x="540" y="356" type="curve" smooth="yes"/>
      <point x="431" y="354"/>
      <point x="340" y="356"/>
      <point x="240" y="356" type="curve" smooth="yes"/>
      <point x="230" y="356"/>
      <point x="223" y="363"/>
      <point x="223" y="375" type="curve" smooth="yes"/>
      <point x="223" y="545" type="line" smooth="yes"/>
      <point x="223" y="589"/>
      <point x="237" y="608"/>
      <point x="293" y="608" type="curve"/>
      <point x="301" y="609"/>
      <point x="308" y="609"/>
      <point x="310" y="618" type="curve" smooth="yes"/>
      <point x="312" y="627"/>
      <point x="314" y="637"/>
      <point x="307" y="645" type="curve"/>
      <point x="299" y="650"/>
      <point x="301" y="650"/>
      <point x="293" y="650" type="curve"/>
      <point x="237" y="647"/>
      <point x="120" y="647"/>
      <point x="56" y="650" type="curve"/>
      <point x="46" y="651"/>
      <point x="43" y="628"/>
      <point x="47" y="615" type="curve"/>
      <point x="50" y="607"/>
      <point x="52" y="608"/>
      <point x="61" y="607" type="curve" smooth="yes"/>
      <point x="103" y="604"/>
      <point x="116" y="592"/>
      <point x="116" y="545" type="curve" smooth="yes"/>
      <point x="116" y="103" type="line" smooth="yes"/>
      <point x="116" y="57"/>
      <point x="103" y="49"/>
      <point x="61" y="46" type="curve"/>
      <point x="48" y="46"/>
      <point x="34" y="50"/>
      <point x="27" y="37" type="curve" smooth="yes"/>
      <point x="22" y="28"/>
      <point x="24" y="14"/>
      <point x="26" y="7" type="curve"/>
      <point x="30" y="-2"/>
      <point x="39" y="-3"/>
      <point x="47" y="-3" type="curve" smooth="yes"/>
      <point x="109" y="-3"/>
      <point x="234" y="-1"/>
      <point x="298" y="-3" type="curve"/>
      <point x="325" y="1"/>
      <point x="318" y="48"/>
      <point x="297" y="45" type="curve"/>
      <point x="288" y="45" type="line" smooth="yes"/>
      <point x="236" y="45"/>
      <point x="223" y="54"/>
      <point x="223" y="103" type="curve" smooth="yes"/>
      <point x="223" y="280" type="line" smooth="yes"/>
      <point x="223" y="293"/>
      <point x="237" y="299"/>
      <point x="238" y="299" type="curve" smooth="yes"/>
      <point x="341" y="299"/>
      <point x="444" y="298"/>
      <point x="541" y="299" type="curve" smooth="yes"/>
      <point x="548" y="299"/>
      <point x="563" y="294"/>
      <point x="564" y="286" type="curve"/>
      <point x="564" y="103" type="line" smooth="yes"/>
      <point x="564" y="56"/>
      <point x="544" y="46"/>
      <point x="494" y="46" type="curve" smooth="yes"/>
      <point x="470" y="46" type="line" smooth="yes"/>
      <point x="453" y="46"/>
      <point x="449" y="22"/>
      <point x="453" y="10" type="curve"/>
      <point x="455" y="1"/>
      <point x="461" y="-3"/>
      <point x="471" y="-3" type="curve" smooth="yes"/>
      <point x="604" y="-3"/>
      <point x="682" y="-1"/>
    </contour>
  </outline>
</glyph>
<glyph name="I" format="2">
  <advance width="363"/>
  <unicode hex="0049"/>
  <outline>
    <contour>
      <point x="294" y="607" type="curve" smooth="yes"/>
      <point x="301" y="607"/>
      <point x="311" y="608"/>
      <point x="314" y="615" type="curve"/>
      <point x="317" y="620"/>
      <point x="318" y="629"/>
      <point x="317" y="635" type="curve"/>
      <point x="316" y="650"/>
      <point x="306" y="651"/>
      <point x="296" y="651" type="curve" smooth="yes"/>
      <point x="179" y="646"/>
      <point x="154" y="650"/>
      <point x="76" y="651" type="curve" smooth="yes"/>
      <point x="67" y="651"/>
      <point x="63" y="651"/>
      <point x="58" y="643" type="curve"/>
      <point x="53" y="634"/>
      <point x="52" y="616"/>
      <point x="62" y="609" type="curve"/>
      <point x="64" y="608"/>
      <point x="70" y="607"/>
      <point x="74" y="607" type="curve"/>
      <point x="122" y="601"/>
      <point x="127" y="594"/>
      <point x="128" y="545" type="curve" smooth="yes"/>
      <point x="129" y="511" type="line"/>
      <point x="129" y="137" type="line"/>
      <point x="128" y="103" type="line" smooth="yes"/>
      <point x="127" y="60"/>
      <point x="120" y="49"/>
      <point x="76" y="44" type="curve" smooth="yes"/>
      <point x="66" y="43"/>
      <point x="60" y="45"/>
      <point x="54" y="37" type="curve"/>
      <point x="51" y="32"/>
      <point x="52" y="23"/>
      <point x="52" y="17" type="curve" smooth="yes"/>
      <point x="52" y="5"/>
      <point x="60" y="-4"/>
      <point x="69" y="-4" type="curve" smooth="yes"/>
      <point x="129" y="-2"/>
      <point x="245" y="-2"/>
      <point x="306" y="-4" type="curve" smooth="yes"/>
      <point x="320" y="-4"/>
      <point x="323" y="21"/>
      <point x="317" y="35" type="curve"/>
      <point x="313" y="43"/>
      <point x="310" y="45"/>
      <point x="302" y="45" type="curve" smooth="yes"/>
      <point x="253" y="47"/>
      <point x="233" y="45"/>
      <point x="233" y="103" type="curve" smooth="yes"/>
      <point x="233" y="511" type="line" smooth="yes"/>
      <point x="233" y="600"/>
      <point x="240" y="606"/>
    </contour>
  </outline>
</glyph>
<glyph name="J" format="2">
  <advance width="324"/>
  <unicode hex="004A"/>
  <outline>
    <contour>
      <point x="291" y="609" type="curve"/>
      <point x="301" y="612"/>
      <point x="306" y="650"/>
      <point x="283" y="650" type="curve" smooth="yes"/>
      <point x="178" y="651"/>
      <point x="114" y="649"/>
      <point x="55" y="649" type="curve"/>
      <point x="46" y="650"/>
      <point x="40" y="650"/>
      <point x="33" y="650" type="curve"/>
      <point x="7" y="653"/>
      <point x="11" y="609"/>
      <point x="29" y="608" type="curve"/>
      <point x="32" y="608"/>
      <point x="37" y="605"/>
      <point x="41" y="605" type="curve" smooth="yes"/>
      <point x="95" y="605"/>
      <point x="109" y="595"/>
      <point x="110" y="545" type="curve" smooth="yes"/>
      <point x="111" y="524"/>
      <point x="111" y="505"/>
      <point x="111" y="484" type="curve" smooth="yes"/>
      <point x="111" y="430"/>
      <point x="111" y="307"/>
      <point x="111" y="9" type="curve" smooth="yes"/>
      <point x="111" y="-129"/>
      <point x="107" y="-165"/>
      <point x="87" y="-194" type="curve" smooth="yes"/>
      <point x="74" y="-213"/>
      <point x="46" y="-225"/>
      <point x="27" y="-215" type="curve" smooth="yes"/>
      <point x="18" y="-210"/>
      <point x="11" y="-203"/>
      <point x="3" y="-197" type="curve" smooth="yes"/>
      <point x="-10" y="-187"/>
      <point x="-24" y="-170"/>
      <point x="-42" y="-170" type="curve" smooth="yes"/>
      <point x="-69" y="-170"/>
      <point x="-90" y="-195"/>
      <point x="-90" y="-222" type="curve" smooth="yes"/>
      <point x="-90" y="-263"/>
      <point x="-46" y="-289"/>
      <point x="10" y="-289" type="curve" smooth="yes"/>
      <point x="70" y="-289"/>
      <point x="116" y="-253"/>
      <point x="151" y="-199" type="curve" smooth="yes"/>
      <point x="196" y="-129"/>
      <point x="216" y="-9"/>
      <point x="216" y="74" type="curve" smooth="yes"/>
      <point x="216" y="545" type="line" smooth="yes"/>
      <point x="216" y="580"/>
      <point x="230" y="603"/>
      <point x="260" y="605" type="curve"/>
      <point x="268" y="606"/>
      <point x="285" y="606"/>
    </contour>
  </outline>
</glyph>
<glyph name="L" format="2">
  <advance width="595"/>
  <unicode hex="004C"/>
  <outline>
    <contour>
      <point x="510" y="17" type="curve"/>
      <point x="524" y="38"/>
      <point x="548" y="93"/>
      <point x="572" y="149" type="curve"/>
      <point x="573" y="151"/>
      <point x="575" y="162"/>
      <point x="566" y="167" type="curve"/>
      <point x="558" y="173"/>
      <point x="548" y="171"/>
      <point x="539" y="167" type="curve"/>
      <point x="503" y="121" type="line" smooth="yes"/>
      <point x="456" y="59"/>
      <point x="443" y="57"/>
      <point x="371" y="57" type="curve" smooth="yes"/>
      <point x="288" y="57" type="line" smooth="yes"/>
      <point x="251" y="57"/>
      <point x="228" y="67"/>
      <point x="228" y="105" type="curve" smooth="yes"/>
      <point x="228" y="555" type="line" smooth="yes"/>
      <point x="228" y="595"/>
      <point x="240" y="600"/>
      <point x="300" y="602" type="curve" smooth="yes"/>
      <point x="311" y="602"/>
      <point x="322" y="603"/>
      <point x="332" y="604" type="curve" smooth="yes"/>
      <point x="351" y="605"/>
      <point x="353" y="624"/>
      <point x="349" y="639" type="curve" smooth="yes"/>
      <point x="346" y="651"/>
      <point x="337" y="652"/>
      <point x="330" y="652" type="curve" smooth="yes"/>
      <point x="217" y="650"/>
      <point x="148" y="649"/>
      <point x="51" y="651" type="curve"/>
      <point x="46" y="652"/>
      <point x="35" y="652"/>
      <point x="31" y="643" type="curve"/>
      <point x="24" y="634"/>
      <point x="27" y="607"/>
      <point x="40" y="606" type="curve"/>
      <point x="52" y="606" type="line" smooth="yes"/>
      <point x="107" y="606"/>
      <point x="122" y="595"/>
      <point x="122" y="545" type="curve" smooth="yes"/>
      <point x="122" y="141" type="line" smooth="yes"/>
      <point x="122" y="101"/>
      <point x="121" y="93"/>
      <point x="120" y="82" type="curve"/>
      <point x="114" y="52"/>
      <point x="71" y="47"/>
      <point x="47" y="47" type="curve"/>
      <point x="43" y="46"/>
      <point x="35" y="46"/>
      <point x="32" y="45" type="curve"/>
      <point x="20" y="40"/>
      <point x="20" y="18"/>
      <point x="23" y="10" type="curve"/>
      <point x="25" y="2"/>
      <point x="33" y="-4"/>
      <point x="43" y="-3" type="curve"/>
      <point x="73" y="-2"/>
      <point x="298" y="-1"/>
      <point x="475" y="-4" type="curve" smooth="yes"/>
      <point x="494" y="-4"/>
      <point x="504" y="6"/>
    </contour>
  </outline>
</glyph>
<glyph name="M" format="2">
  <advance width="942"/>
  <unicode hex="004D"/>
  <outline>
    <contour>
      <point x="204" y="484" type="line" smooth="yes"/>
      <point x="205" y="499"/>
      <point x="210" y="498"/>
      <point x="215" y="487" type="curve" smooth="yes"/>
      <point x="430" y="2" type="line" smooth="yes"/>
      <point x="435" y="-8"/>
      <point x="468" y="-8"/>
      <point x="472" y="2" type="curve" smooth="yes"/>
      <point x="683" y="490" type="line"/>
      <point x="686" y="499"/>
      <point x="693" y="488"/>
      <point x="693" y="480" type="curve"/>
      <point x="716" y="134"/>
      <point x="713" y="150"/>
      <point x="714" y="134" type="curve" smooth="yes"/>
      <point x="720" y="67"/>
      <point x="716" y="43"/>
      <point x="645" y="43" type="curve" smooth="yes"/>
      <point x="634" y="43"/>
      <point x="624" y="35"/>
      <point x="623" y="30" type="curve"/>
      <point x="622" y="23"/>
      <point x="621" y="15"/>
      <point x="623" y="9" type="curve"/>
      <point x="625" y="1"/>
      <point x="630" y="-2"/>
      <point x="645" y="-2" type="curve" smooth="yes"/>
      <point x="710" y="-1"/>
      <point x="844" y="0"/>
      <point x="893" y="-3" type="curve"/>
      <point x="905" y="-3"/>
      <point x="911" y="1"/>
      <point x="913" y="10" type="curve"/>
      <point x="913" y="16"/>
      <point x="914" y="22"/>
      <point x="913" y="28" type="curve" smooth="yes"/>
      <point x="910" y="43"/>
      <point x="902" y="43"/>
      <point x="890" y="43" type="curve" smooth="yes"/>
      <point x="838" y="43"/>
      <point x="826" y="49"/>
      <point x="820" y="139" type="curve" smooth="yes"/>
      <point x="793" y="529" type="line" smooth="yes"/>
      <point x="792" y="544"/>
      <point x="791" y="554"/>
      <point x="791" y="570" type="curve" smooth="yes"/>
      <point x="791" y="608"/>
      <point x="820" y="603"/>
      <point x="851" y="606" type="curve"/>
      <point x="854" y="606"/>
      <point x="860" y="608"/>
      <point x="862" y="614" type="curve"/>
      <point x="867" y="626"/>
      <point x="863" y="651"/>
      <point x="846" y="650" type="curve" smooth="yes"/>
      <point x="801" y="649"/>
      <point x="756" y="649"/>
      <point x="711" y="650" type="curve" smooth="yes"/>
      <point x="705" y="650"/>
      <point x="688" y="647"/>
      <point x="681" y="635" type="curve"/>
      <point x="479" y="170" type="line" smooth="yes"/>
      <point x="474" y="158"/>
      <point x="466" y="167"/>
      <point x="464" y="171" type="curve" smooth="yes"/>
      <point x="259" y="637" type="line" smooth="yes"/>
      <point x="253" y="650"/>
      <point x="242" y="650"/>
      <point x="230" y="650" type="curve" smooth="yes"/>
      <point x="198" y="649"/>
      <point x="128" y="649"/>
      <point x="93" y="651" type="curve"/>
      <point x="84" y="652"/>
      <point x="77" y="648"/>
      <point x="75" y="636" type="curve"/>
      <point x="73" y="628"/>
      <point x="74" y="619"/>
      <point x="76" y="613" type="curve"/>
      <point x="79" y="608"/>
      <point x="84" y="605"/>
      <point x="94" y="604" type="curve" smooth="yes"/>
      <point x="136" y="600"/>
      <point x="144" y="595"/>
      <point x="144" y="568" type="curve" smooth="yes"/>
      <point x="144" y="424"/>
      <point x="127" y="281"/>
      <point x="118" y="137" type="curve" smooth="yes"/>
      <point x="117" y="120"/>
      <point x="116" y="105"/>
      <point x="115" y="92" type="curve"/>
      <point x="109" y="50"/>
      <point x="92" y="39"/>
      <point x="45" y="42" type="curve" smooth="yes"/>
      <point x="35" y="43"/>
      <point x="31" y="41"/>
      <point x="27" y="32" type="curve" smooth="yes"/>
      <point x="24" y="25"/>
      <point x="24" y="16"/>
      <point x="27" y="9" type="curve"/>
      <point x="31" y="-2"/>
      <point x="38" y="0"/>
      <point x="48" y="-2" type="curve"/>
      <point x="115" y="0"/>
      <point x="194" y="-1"/>
      <point x="245" y="-3" type="curve"/>
      <point x="252" y="-1"/>
      <point x="259" y="-1"/>
      <point x="263" y="4" type="curve"/>
      <point x="267" y="10"/>
      <point x="267" y="22"/>
      <point x="265" y="29" type="curve" smooth="yes"/>
      <point x="262" y="40"/>
      <point x="253" y="42"/>
      <point x="245" y="42" type="curve"/>
      <point x="192" y="46"/>
      <point x="181" y="59"/>
      <point x="181" y="93" type="curve" smooth="yes"/>
      <point x="181" y="104"/>
      <point x="182" y="122"/>
      <point x="183" y="142" type="curve" smooth="yes"/>
    </contour>
  </outline>
</glyph>
<glyph name="N" format="2">
  <advance width="834"/>
  <unicode hex="004E"/>
  <outline>
    <contour>
      <point x="786" y="607" type="curve" smooth="yes"/>
      <point x="800" y="607"/>
      <point x="806" y="611"/>
      <point x="805" y="627" type="curve"/>
      <point x="805" y="634"/>
      <point x="804" y="652"/>
      <point x="794" y="652" type="curve" smooth="yes"/>
      <point x="704" y="650"/>
      <point x="628" y="648"/>
      <point x="551" y="651" type="curve" smooth="yes"/>
      <point x="529" y="652"/>
      <point x="533" y="606"/>
      <point x="551" y="605" type="curve" smooth="yes"/>
      <point x="573" y="603"/>
      <point x="591" y="603"/>
      <point x="605" y="601" type="curve" smooth="yes"/>
      <point x="617" y="599"/>
      <point x="624" y="595"/>
      <point x="629" y="590" type="curve"/>
      <point x="640" y="581"/>
      <point x="640" y="562"/>
      <point x="640" y="512" type="curve" smooth="yes"/>
      <point x="640" y="197" type="line" smooth="yes"/>
      <point x="640" y="189"/>
      <point x="633" y="176"/>
      <point x="630" y="181" type="curve"/>
      <point x="230" y="637" type="line" smooth="yes"/>
      <point x="223" y="645"/>
      <point x="209" y="651"/>
      <point x="202" y="651" type="curve" smooth="yes"/>
      <point x="168" y="650"/>
      <point x="116" y="654"/>
      <point x="61" y="651" type="curve" smooth="yes"/>
      <point x="49" y="650"/>
      <point x="40" y="646"/>
      <point x="40" y="630" type="curve" smooth="yes"/>
      <point x="40" y="619"/>
      <point x="42" y="607"/>
      <point x="49" y="607" type="curve" smooth="yes"/>
      <point x="84" y="606"/>
      <point x="109" y="601"/>
      <point x="126" y="590" type="curve"/>
      <point x="126" y="96" type="line" smooth="yes"/>
      <point x="126" y="74"/>
      <point x="118" y="44"/>
      <point x="57" y="44" type="curve" smooth="yes"/>
      <point x="34" y="44"/>
      <point x="31" y="22"/>
      <point x="37" y="8" type="curve" smooth="yes"/>
      <point x="40" y="1"/>
      <point x="47" y="-4"/>
      <point x="52" y="-4" type="curve" smooth="yes"/>
      <point x="112" y="-1"/>
      <point x="222" y="-2"/>
      <point x="283" y="-3" type="curve" smooth="yes"/>
      <point x="304" y="-3"/>
      <point x="306" y="23"/>
      <point x="300" y="38" type="curve" smooth="yes"/>
      <point x="294" y="52"/>
      <point x="257" y="47"/>
      <point x="245" y="48" type="curve" smooth="yes"/>
      <point x="220" y="50"/>
      <point x="209" y="60"/>
      <point x="203" y="77" type="curve" smooth="yes"/>
      <point x="197" y="96"/>
      <point x="198" y="122"/>
      <point x="198" y="142" type="curve" smooth="yes"/>
      <point x="198" y="505" type="line" smooth="yes"/>
      <point x="198" y="515"/>
      <point x="211" y="503"/>
      <point x="216" y="498" type="curve"/>
      <point x="364" y="330"/>
      <point x="490" y="184"/>
      <point x="655" y="-4" type="curve" smooth="yes"/>
      <point x="663" y="-13"/>
      <point x="710" y="-18"/>
      <point x="710" y="9" type="curve" smooth="yes"/>
      <point x="710" y="529" type="line" smooth="yes"/>
      <point x="710" y="602"/>
      <point x="713" y="605"/>
    </contour>
  </outline>
</glyph>
<glyph name="O" format="2">
  <advance width="827"/>
  <unicode hex="004F"/>
  <outline>
    <contour>
      <point x="413" y="-19" type="curve" smooth="yes"/>
      <point x="619" y="-19"/>
      <point x="772" y="138"/>
      <point x="772" y="339" type="curve" smooth="yes"/>
      <point x="772" y="527"/>
      <point x="623" y="667"/>
      <point x="415" y="667" type="curve" smooth="yes"/>
      <point x="202" y="667"/>
      <point x="50" y="515"/>
      <point x="50" y="312" type="curve" smooth="yes"/>
      <point x="50" y="125"/>
      <point x="205" y="-19"/>
    </contour>
    <contour>
      <point x="387" y="619" type="curve" smooth="yes"/>
      <point x="546" y="619"/>
      <point x="651" y="491"/>
      <point x="651" y="309" type="curve" smooth="yes"/>
      <point x="651" y="160"/>
      <point x="598" y="30"/>
      <point x="430" y="30" type="curve" smooth="yes"/>
      <point x="278" y="30"/>
      <point x="171" y="162"/>
      <point x="171" y="338" type="curve" smooth="yes"/>
      <point x="171" y="506"/>
      <point x="256" y="619"/>
    </contour>
  </outline>
</glyph>
<glyph name="P" format="2">
  <advance width="577"/>
  <unicode hex="0050"/>
  <outline>
    <contour>
      <point x="38" y="609" type="curve" smooth="yes"/>
      <point x="87" y="610" type="line" smooth="yes"/>
      <point x="121" y="610"/>
      <point x="127" y="599"/>
      <point x="127" y="536" type="curve" smooth="yes"/>
      <point x="127" y="82" type="line" smooth="yes"/>
      <point x="127" y="50"/>
      <point x="120" y="47"/>
      <point x="74" y="47" type="curve" smooth="yes"/>
      <point x="60" y="47"/>
      <point x="41" y="44"/>
      <point x="40" y="20" type="curve"/>
      <point x="39" y="14"/>
      <point x="41" y="9"/>
      <point x="43" y="5" type="curve" smooth="yes"/>
      <point x="44" y="3" type="line"/>
      <point x="49" y="-4"/>
      <point x="58" y="-4"/>
      <point x="66" y="-4" type="curve" smooth="yes"/>
      <point x="135" y="-2"/>
      <point x="261" y="-2"/>
      <point x="337" y="-5" type="curve"/>
      <point x="346" y="-6"/>
      <point x="354" y="4"/>
      <point x="355" y="18" type="curve" smooth="yes"/>
      <point x="357" y="43"/>
      <point x="342" y="50"/>
      <point x="321" y="48" type="curve" smooth="yes"/>
      <point x="272" y="45"/>
      <point x="236" y="37"/>
      <point x="236" y="103" type="curve" smooth="yes"/>
      <point x="236" y="253" type="line"/>
      <point x="237" y="268"/>
      <point x="240" y="269"/>
      <point x="246" y="268" type="curve" smooth="yes"/>
      <point x="260" y="266"/>
      <point x="267" y="265"/>
      <point x="288" y="265" type="curve" smooth="yes"/>
      <point x="444" y="265"/>
      <point x="539" y="343"/>
      <point x="539" y="470" type="curve" smooth="yes"/>
      <point x="539" y="554"/>
      <point x="482" y="623"/>
      <point x="395" y="646" type="curve" smooth="yes"/>
      <point x="356" y="656"/>
      <point x="332" y="659"/>
      <point x="263" y="659" type="curve" smooth="yes"/>
      <point x="187" y="659"/>
      <point x="116" y="659"/>
      <point x="38" y="650" type="curve" smooth="yes"/>
      <point x="30" y="649"/>
      <point x="25" y="639"/>
      <point x="25" y="628" type="curve"/>
      <point x="26" y="618"/>
      <point x="33" y="609"/>
    </contour>
    <contour>
      <point x="359" y="600" type="curve" smooth="yes"/>
      <point x="398" y="580"/>
      <point x="423" y="534"/>
      <point x="423" y="472" type="curve" smooth="yes"/>
      <point x="423" y="372"/>
      <point x="379" y="307"/>
      <point x="282" y="307" type="curve" smooth="yes"/>
      <point x="266" y="307"/>
      <point x="266" y="307"/>
      <point x="251" y="310" type="curve"/>
      <point x="240" y="313"/>
      <point x="236" y="325"/>
      <point x="236" y="332" type="curve" smooth="yes"/>
      <point x="236" y="596" type="line" smooth="yes"/>
      <point x="236" y="602"/>
      <point x="237" y="614"/>
      <point x="252" y="616" type="curve" smooth="yes"/>
      <point x="287" y="620"/>
      <point x="327" y="618"/>
    </contour>
  </outline>
</glyph>
<glyph name="Q" format="2">
  <advance width="822"/>
  <unicode hex="0051"/>
  <outline>
    <contour>
      <point x="528" y="-8" type="curve"/>
      <point x="520" y="-5"/>
      <point x="522" y="1"/>
      <point x="528" y="4" type="curve"/>
      <point x="668" y="57"/>
      <point x="763" y="186"/>
      <point x="763" y="338" type="curve" smooth="yes"/>
      <point x="763" y="526"/>
      <point x="622" y="667"/>
      <point x="412" y="667" type="curve" smooth="yes"/>
      <point x="198" y="667"/>
      <point x="43" y="514"/>
      <point x="43" y="313" type="curve" smooth="yes"/>
      <point x="43" y="133"/>
      <point x="175" y="-2"/>
      <point x="375" y="-20" type="curve"/>
      <point x="398" y="-29"/>
      <point x="409" y="-34"/>
      <point x="423" y="-44" type="curve" smooth="yes"/>
      <point x="438" y="-55"/>
      <point x="455" y="-72"/>
      <point x="492" y="-103" type="curve" smooth="yes"/>
      <point x="558" y="-159"/>
      <point x="636" y="-213"/>
      <point x="729" y="-213" type="curve" smooth="yes"/>
      <point x="748" y="-213"/>
      <point x="761" y="-211"/>
      <point x="780" y="-207" type="curve" smooth="yes"/>
      <point x="796" y="-203"/>
      <point x="820" y="-166"/>
      <point x="801" y="-161" type="curve"/>
      <point x="739" y="-158"/>
      <point x="707" y="-143"/>
      <point x="647" y="-92" type="curve" smooth="yes"/>
      <point x="611" y="-61"/>
      <point x="572" y="-29"/>
    </contour>
    <contour>
      <point x="385" y="619" type="curve" smooth="yes"/>
      <point x="543" y="619"/>
      <point x="640" y="492"/>
      <point x="640" y="308" type="curve" smooth="yes"/>
      <point x="640" y="177"/>
      <point x="570" y="25"/>
      <point x="426" y="25" type="curve" smooth="yes"/>
      <point x="273" y="25"/>
      <point x="164" y="159"/>
      <point x="164" y="337" type="curve" smooth="yes"/>
      <point x="164" y="505"/>
      <point x="251" y="619"/>
    </contour>
  </outline>
</glyph>
<glyph name="R" format="2">
  <advance width="696"/>
  <unicode hex="0052"/>
  <outline>
    <contour>
      <point x="638" y="-15" type="curve" smooth="yes"/>
      <point x="652" y="-15"/>
      <point x="666" y="-15"/>
      <point x="677" y="-8" type="curve"/>
      <point x="686" y="5"/>
      <point x="682" y="19"/>
      <point x="672" y="27" type="curve"/>
      <point x="647" y="32"/>
      <point x="633" y="40"/>
      <point x="620" y="50" type="curve" smooth="yes"/>
      <point x="588" y="74"/>
      <point x="581" y="82"/>
      <point x="559" y="114" type="curve" smooth="yes"/>
      <point x="504" y="197" type="line" smooth="yes"/>
      <point x="485" y="226"/>
      <point x="474" y="243"/>
      <point x="451" y="279" type="curve" smooth="yes"/>
      <point x="444" y="289"/>
      <point x="445" y="296"/>
      <point x="450" y="299" type="curve" smooth="yes"/>
      <point x="508" y="332"/>
      <point x="547" y="397"/>
      <point x="547" y="469" type="curve" smooth="yes"/>
      <point x="547" y="618"/>
      <point x="402" y="659"/>
      <point x="279" y="659" type="curve" smooth="yes"/>
      <point x="199" y="659"/>
      <point x="114" y="659"/>
      <point x="34" y="651" type="curve"/>
      <point x="18" y="643"/>
      <point x="16" y="608"/>
      <point x="35" y="608" type="curve" smooth="yes"/>
      <point x="124" y="607"/>
      <point x="122" y="605"/>
      <point x="122" y="512" type="curve" smooth="yes"/>
      <point x="122" y="137" type="line"/>
      <point x="122" y="103" type="line" smooth="yes"/>
      <point x="122" y="59"/>
      <point x="111" y="44"/>
      <point x="55" y="44" type="curve" smooth="yes"/>
      <point x="44" y="44"/>
      <point x="25" y="46"/>
      <point x="20" y="33" type="curve" smooth="yes"/>
      <point x="16" y="21"/>
      <point x="17" y="-2"/>
      <point x="31" y="-3" type="curve" smooth="yes"/>
      <point x="47" y="-4" type="line"/>
      <point x="119" y="2"/>
      <point x="250" y="-3"/>
      <point x="321" y="-3" type="curve" smooth="yes"/>
      <point x="331" y="-3"/>
      <point x="339" y="0"/>
      <point x="341" y="9" type="curve"/>
      <point x="342" y="16"/>
      <point x="341" y="28"/>
      <point x="339" y="33" type="curve"/>
      <point x="333" y="51"/>
      <point x="314" y="47"/>
      <point x="301" y="46" type="curve"/>
      <point x="248" y="46"/>
      <point x="235" y="57"/>
      <point x="233" y="103" type="curve" smooth="yes"/>
      <point x="232" y="154"/>
      <point x="232" y="193"/>
      <point x="232" y="244" type="curve" smooth="yes"/>
      <point x="232" y="246"/>
      <point x="238" y="262"/>
      <point x="246" y="261" type="curve"/>
      <point x="280" y="260"/>
      <point x="308" y="261"/>
      <point x="341" y="264" type="curve"/>
      <point x="348" y="265"/>
      <point x="357" y="250"/>
      <point x="360" y="244" type="curve" smooth="yes"/>
      <point x="374" y="218"/>
      <point x="386" y="191"/>
      <point x="402" y="166" type="curve" smooth="yes"/>
      <point x="428" y="125"/>
      <point x="455" y="84"/>
      <point x="487" y="47" type="curve" smooth="yes"/>
      <point x="513" y="16"/>
      <point x="550" y="-15"/>
    </contour>
    <contour>
      <point x="269" y="618" type="curve" smooth="yes"/>
      <point x="396" y="618"/>
      <point x="428" y="554"/>
      <point x="428" y="462" type="curve" smooth="yes"/>
      <point x="428" y="394"/>
      <point x="395" y="331"/>
      <point x="331" y="309" type="curve" smooth="yes"/>
      <point x="308" y="302"/>
      <point x="275" y="304"/>
      <point x="244" y="306" type="curve"/>
      <point x="242" y="306"/>
      <point x="232" y="312"/>
      <point x="232" y="322" type="curve" smooth="yes"/>
      <point x="232" y="600" type="line" smooth="yes"/>
      <point x="232" y="616"/>
      <point x="256" y="618"/>
    </contour>
  </outline>
</glyph>
<glyph name="T" format="2">
  <advance width="681"/>
  <unicode hex="0054"/>
  <outline>
    <contour>
      <point x="634" y="476" type="curve" smooth="yes"/>
      <point x="643" y="476"/>
      <point x="653" y="480"/>
      <point x="652" y="492" type="curve" smooth="yes"/>
      <point x="637" y="656" type="line" smooth="yes"/>
      <point x="636" y="665"/>
      <point x="634" y="668"/>
      <point x="627" y="670" type="curve" smooth="yes"/>
      <point x="616" y="673"/>
      <point x="599" y="670"/>
      <point x="596" y="664" type="curve"/>
      <point x="590" y="650"/>
      <point x="589" y="650"/>
      <point x="544" y="650" type="curve" smooth="yes"/>
      <point x="447" y="652"/>
      <point x="245" y="652"/>
      <point x="140" y="650" type="curve" smooth="yes"/>
      <point x="126" y="650"/>
      <point x="96" y="649"/>
      <point x="90" y="664" type="curve" smooth="yes"/>
      <point x="86" y="673"/>
      <point x="63" y="679"/>
      <point x="50" y="664" type="curve"/>
      <point x="44" y="618"/>
      <point x="36" y="533"/>
      <point x="34" y="493" type="curve" smooth="yes"/>
      <point x="33" y="478"/>
      <point x="60" y="474"/>
      <point x="74" y="483" type="curve"/>
      <point x="92" y="578"/>
      <point x="107" y="590"/>
      <point x="139" y="590" type="curve" smooth="yes"/>
      <point x="159" y="590" type="line"/>
      <point x="265" y="590" type="line" smooth="yes"/>
      <point x="284" y="590"/>
      <point x="287" y="570"/>
      <point x="287" y="563" type="curve" smooth="yes"/>
      <point x="287" y="550"/>
      <point x="287" y="259"/>
      <point x="287" y="137" type="curve" smooth="yes"/>
      <point x="287" y="103" type="line" smooth="yes"/>
      <point x="287" y="47"/>
      <point x="256" y="45"/>
      <point x="229" y="45" type="curve"/>
      <point x="214" y="46"/>
      <point x="204" y="45"/>
      <point x="191" y="45" type="curve"/>
      <point x="185" y="44"/>
      <point x="179" y="41"/>
      <point x="175" y="34" type="curve"/>
      <point x="172" y="27"/>
      <point x="172" y="14"/>
      <point x="175" y="7" type="curve"/>
      <point x="176" y="2"/>
      <point x="180" y="-4"/>
      <point x="192" y="-4" type="curve" smooth="yes"/>
      <point x="265" y="-2"/>
      <point x="414" y="0"/>
      <point x="492" y="-3" type="curve" smooth="yes"/>
      <point x="500" y="-3"/>
      <point x="509" y="-3"/>
      <point x="513" y="8" type="curve" smooth="yes"/>
      <point x="518" y="22"/>
      <point x="513" y="48"/>
      <point x="494" y="48" type="curve" smooth="yes"/>
      <point x="466" y="48" type="line" smooth="yes"/>
      <point x="405" y="48"/>
      <point x="398" y="68"/>
      <point x="398" y="103" type="curve" smooth="yes"/>
      <point x="398" y="137" type="line" smooth="yes"/>
      <point x="398" y="247"/>
      <point x="398" y="495"/>
      <point x="398" y="560" type="curve" smooth="yes"/>
      <point x="398" y="582"/>
      <point x="407" y="590"/>
      <point x="416" y="590" type="curve" smooth="yes"/>
      <point x="548" y="590" type="line" smooth="yes"/>
      <point x="578" y="590"/>
      <point x="593" y="579"/>
      <point x="610" y="495" type="curve" smooth="yes"/>
      <point x="613" y="481"/>
      <point x="617" y="476"/>
    </contour>
  </outline>
</glyph>
<glyph name="U" format="2">
  <advance width="815"/>
  <unicode hex="0055"/>
  <outline>
    <contour>
      <point x="779" y="609" type="curve" smooth="yes"/>
      <point x="790" y="610"/>
      <point x="793" y="623"/>
      <point x="793" y="630" type="curve" smooth="yes"/>
      <point x="793" y="640"/>
      <point x="787" y="650"/>
      <point x="779" y="650" type="curve" smooth="yes"/>
      <point x="718" y="651"/>
      <point x="589" y="651"/>
      <point x="539" y="650" type="curve" smooth="yes"/>
      <point x="534" y="650"/>
      <point x="528" y="646"/>
      <point x="526" y="642" type="curve"/>
      <point x="522" y="635"/>
      <point x="522" y="624"/>
      <point x="526" y="616" type="curve"/>
      <point x="529" y="609"/>
      <point x="533" y="609"/>
      <point x="540" y="607" type="curve"/>
      <point x="613" y="605"/>
      <point x="624" y="590"/>
      <point x="624" y="482" type="curve" smooth="yes"/>
      <point x="624" y="304" type="line" smooth="yes"/>
      <point x="624" y="259"/>
      <point x="625" y="214"/>
      <point x="609" y="170" type="curve" smooth="yes"/>
      <point x="582" y="99"/>
      <point x="528" y="57"/>
      <point x="425" y="57" type="curve" smooth="yes"/>
      <point x="266" y="57"/>
      <point x="226" y="167"/>
      <point x="226" y="310" type="curve" smooth="yes"/>
      <point x="226" y="502" type="line" smooth="yes"/>
      <point x="226" y="517"/>
      <point x="227" y="530"/>
      <point x="227" y="545" type="curve" smooth="yes"/>
      <point x="229" y="596"/>
      <point x="241" y="607"/>
      <point x="297" y="607" type="curve" smooth="yes"/>
      <point x="306" y="607" type="line"/>
      <point x="317" y="606"/>
      <point x="322" y="629"/>
      <point x="315" y="642" type="curve" smooth="yes"/>
      <point x="312" y="648"/>
      <point x="304" y="650"/>
      <point x="297" y="650" type="curve" smooth="yes"/>
      <point x="231" y="650"/>
      <point x="111" y="650"/>
      <point x="46" y="650" type="curve" smooth="yes"/>
      <point x="36" y="650"/>
      <point x="33" y="649"/>
      <point x="28" y="643" type="curve"/>
      <point x="22" y="635"/>
      <point x="22" y="623"/>
      <point x="27" y="615" type="curve" smooth="yes"/>
      <point x="33" y="606"/>
      <point x="37" y="607"/>
      <point x="48" y="607" type="curve" smooth="yes"/>
      <point x="111" y="605"/>
      <point x="115" y="598"/>
      <point x="115" y="552" type="curve" smooth="yes"/>
      <point x="115" y="295" type="line" smooth="yes"/>
      <point x="115" y="200"/>
      <point x="117" y="177"/>
      <point x="138" y="132" type="curve" smooth="yes"/>
      <point x="182" y="35"/>
      <point x="266" y="-19"/>
      <point x="402" y="-19" type="curve" smooth="yes"/>
      <point x="500" y="-19"/>
      <point x="551" y="4"/>
      <point x="609" y="55" type="curve" smooth="yes"/>
      <point x="692" y="129"/>
      <point x="693" y="203"/>
      <point x="693" y="305" type="curve" smooth="yes"/>
      <point x="693" y="486" type="line" smooth="yes"/>
      <point x="693" y="591"/>
      <point x="707" y="606"/>
    </contour>
  </outline>
</glyph>
<glyph name="V" format="2">
  <advance width="761"/>
  <unicode hex="0056"/>
  <outline>
    <contour>
      <point x="727" y="610" type="curve" smooth="yes"/>
      <point x="743" y="611"/>
      <point x="750" y="651"/>
      <point x="724" y="650" type="curve" smooth="yes"/>
      <point x="685" y="649"/>
      <point x="536" y="647"/>
      <point x="498" y="650" type="curve"/>
      <point x="491" y="651"/>
      <point x="481" y="648"/>
      <point x="478" y="644" type="curve" smooth="yes"/>
      <point x="473" y="637"/>
      <point x="473" y="625"/>
      <point x="477" y="617" type="curve" smooth="yes"/>
      <point x="482" y="608"/>
      <point x="485" y="608"/>
      <point x="495" y="608" type="curve" smooth="yes"/>
      <point x="516" y="608"/>
      <point x="530" y="607"/>
      <point x="541" y="605" type="curve" smooth="yes"/>
      <point x="585" y="595"/>
      <point x="565" y="548"/>
      <point x="554" y="519" type="curve" smooth="yes"/>
      <point x="417" y="157" type="line" smooth="yes"/>
      <point x="413" y="146"/>
      <point x="399" y="156"/>
      <point x="396" y="162" type="curve"/>
      <point x="249" y="528" type="line" smooth="yes"/>
      <point x="237" y="558"/>
      <point x="223" y="590"/>
      <point x="258" y="598" type="curve" smooth="yes"/>
      <point x="271" y="601"/>
      <point x="292" y="603"/>
      <point x="320" y="604" type="curve"/>
      <point x="327" y="607"/>
      <point x="333" y="608"/>
      <point x="336" y="617" type="curve" smooth="yes"/>
      <point x="339" y="625"/>
      <point x="338" y="638"/>
      <point x="333" y="645" type="curve" smooth="yes"/>
      <point x="328" y="652"/>
      <point x="315" y="650"/>
      <point x="307" y="650" type="curve" smooth="yes"/>
      <point x="244" y="648"/>
      <point x="114" y="648"/>
      <point x="47" y="650" type="curve" smooth="yes"/>
      <point x="39" y="650"/>
      <point x="28" y="649"/>
      <point x="25" y="638" type="curve"/>
      <point x="23" y="633"/>
      <point x="22" y="623"/>
      <point x="24" y="615" type="curve"/>
      <point x="28" y="607"/>
      <point x="32" y="606"/>
      <point x="41" y="604" type="curve"/>
      <point x="82" y="603"/>
      <point x="103" y="600"/>
      <point x="134" y="525" type="curve" smooth="yes"/>
      <point x="345" y="-4" type="line" smooth="yes"/>
      <point x="348" y="-11"/>
      <point x="357" y="-22"/>
      <point x="364" y="-23" type="curve"/>
      <point x="379" y="-26"/>
      <point x="397" y="-25"/>
      <point x="403" y="-24" type="curve"/>
      <point x="412" y="-23"/>
      <point x="423" y="-9"/>
      <point x="426" y="-2" type="curve" smooth="yes"/>
      <point x="624" y="510" type="line" smooth="yes"/>
      <point x="657" y="594"/>
      <point x="674" y="609"/>
    </contour>
  </outline>
</glyph>
<glyph name="W" format="2">
  <advance width="1086"/>
  <unicode hex="0057"/>
  <outline>
    <contour>
      <point x="1050" y="610" type="curve" smooth="yes"/>
      <point x="1064" y="610"/>
      <point x="1067" y="623"/>
      <point x="1067" y="631" type="curve"/>
      <point x="1066" y="642"/>
      <point x="1059" y="652"/>
      <point x="1051" y="652" type="curve" smooth="yes"/>
      <point x="986" y="650"/>
      <point x="898" y="649"/>
      <point x="850" y="651" type="curve"/>
      <point x="833" y="653"/>
      <point x="824" y="614"/>
      <point x="845" y="611" type="curve"/>
      <point x="908" y="608"/>
      <point x="913" y="604"/>
      <point x="886" y="534" type="curve" smooth="yes"/>
      <point x="736" y="142" type="line"/>
      <point x="733" y="132"/>
      <point x="723" y="130"/>
      <point x="721" y="135" type="curve"/>
      <point x="721" y="135"/>
      <point x="653" y="295"/>
      <point x="610" y="398" type="curve"/>
      <point x="607" y="407"/>
      <point x="608" y="416"/>
      <point x="610" y="421" type="curve" smooth="yes"/>
      <point x="660" y="541" type="line" smooth="yes"/>
      <point x="683" y="598"/>
      <point x="693" y="606"/>
      <point x="755" y="608" type="curve" smooth="yes"/>
      <point x="766" y="608"/>
      <point x="768" y="607"/>
      <point x="772" y="619" type="curve" smooth="yes"/>
      <point x="775" y="628"/>
      <point x="774" y="642"/>
      <point x="767" y="647" type="curve"/>
      <point x="760" y="651"/>
      <point x="757" y="651"/>
      <point x="748" y="651" type="curve" smooth="yes"/>
      <point x="598" y="653"/>
      <point x="449" y="654"/>
      <point x="342" y="651" type="curve" smooth="yes"/>
      <point x="323" y="651"/>
      <point x="329" y="612"/>
      <point x="340" y="609" type="curve"/>
      <point x="412" y="606"/>
      <point x="417" y="602"/>
      <point x="442" y="542" type="curve" smooth="yes"/>
      <point x="512" y="378" type="line"/>
      <point x="514" y="371"/>
      <point x="513" y="353"/>
      <point x="510" y="346" type="curve" smooth="yes"/>
      <point x="431" y="152" type="line" smooth="yes"/>
      <point x="425" y="137"/>
      <point x="415" y="134"/>
      <point x="413" y="138" type="curve"/>
      <point x="258" y="526" type="line" smooth="yes"/>
      <point x="242" y="565"/>
      <point x="240" y="577"/>
      <point x="240" y="586" type="curve" smooth="yes"/>
      <point x="240" y="598"/>
      <point x="241" y="608"/>
      <point x="283" y="608" type="curve" smooth="yes"/>
      <point x="290" y="608"/>
      <point x="296" y="609"/>
      <point x="298" y="615" type="curve"/>
      <point x="301" y="622"/>
      <point x="302" y="634"/>
      <point x="300" y="642" type="curve"/>
      <point x="298" y="648"/>
      <point x="290" y="651"/>
      <point x="282" y="651" type="curve" smooth="yes"/>
      <point x="191" y="650"/>
      <point x="91" y="650"/>
      <point x="37" y="650" type="curve" smooth="yes"/>
      <point x="28" y="650"/>
      <point x="22" y="646"/>
      <point x="19" y="640" type="curve"/>
      <point x="16" y="631"/>
      <point x="16" y="612"/>
      <point x="26" y="606" type="curve" smooth="yes"/>
      <point x="31" y="603"/>
      <point x="37" y="603"/>
      <point x="43" y="603" type="curve" smooth="yes"/>
      <point x="117" y="601"/>
      <point x="118" y="602"/>
      <point x="154" y="510" type="curve" smooth="yes"/>
      <point x="352" y="6" type="line" smooth="yes"/>
      <point x="356" y="-5"/>
      <point x="362" y="-13"/>
      <point x="370" y="-16" type="curve"/>
      <point x="384" y="-20"/>
      <point x="405" y="-21"/>
      <point x="420" y="-18" type="curve" smooth="yes"/>
      <point x="431" y="-16"/>
      <point x="436" y="-10"/>
      <point x="442" y="3" type="curve" smooth="yes"/>
      <point x="542" y="248" type="line"/>
      <point x="545" y="257"/>
      <point x="557" y="268"/>
      <point x="561" y="259" type="curve" smooth="yes"/>
      <point x="669" y="2" type="line" smooth="yes"/>
      <point x="674" y="-10"/>
      <point x="673" y="-12"/>
      <point x="685" y="-15" type="curve" smooth="yes"/>
      <point x="697" y="-18"/>
      <point x="721" y="-18"/>
      <point x="735" y="-16" type="curve"/>
      <point x="744" y="-14"/>
      <point x="750" y="-3"/>
      <point x="752" y="3" type="curve" smooth="yes"/>
      <point x="952" y="525" type="line" smooth="yes"/>
      <point x="981" y="601"/>
      <point x="995" y="610"/>
    </contour>
    <contour>
      <point x="566" y="505" type="curve"/>
      <point x="552" y="537"/>
      <point x="549" y="546"/>
      <point x="544" y="557" type="curve" smooth="yes"/>
      <point x="540" y="565"/>
      <point x="535" y="577"/>
      <point x="531" y="587" type="curve"/>
      <point x="525" y="606"/>
      <point x="535" y="608"/>
      <point x="550" y="608" type="curve" smooth="yes"/>
      <point x="564" y="608"/>
      <point x="581" y="607"/>
      <point x="591" y="608" type="curve"/>
      <point x="608" y="608"/>
      <point x="613" y="600"/>
      <point x="609" y="587" type="curve"/>
      <point x="599" y="560"/>
      <point x="587" y="532"/>
      <point x="576" y="506" type="curve"/>
      <point x="576" y="506"/>
      <point x="570" y="498"/>
    </contour>
  </outline>
</glyph>
<glyph name="X" format="2">
  <advance width="785"/>
  <unicode hex="0058"/>
  <outline>
    <contour>
      <point x="753" y="-2" type="curve" smooth="yes"/>
      <point x="764" y="-2"/>
      <point x="768" y="10"/>
      <point x="768" y="17" type="curve" smooth="yes"/>
      <point x="768" y="28"/>
      <point x="763" y="38"/>
      <point x="754" y="39" type="curve" smooth="yes"/>
      <point x="668" y="49"/>
      <point x="665" y="67"/>
      <point x="618" y="128" type="curve" smooth="yes"/>
      <point x="453" y="343" type="line"/>
      <point x="445" y="355"/>
      <point x="438" y="356"/>
      <point x="447" y="369" type="curve" smooth="yes"/>
      <point x="537" y="488" type="line" smooth="yes"/>
      <point x="587" y="554"/>
      <point x="628" y="603"/>
      <point x="711" y="608" type="curve"/>
      <point x="732" y="607"/>
      <point x="735" y="648"/>
      <point x="711" y="651" type="curve"/>
      <point x="630" y="647"/>
      <point x="561" y="650"/>
      <point x="480" y="650" type="curve" smooth="yes"/>
      <point x="475" y="650"/>
      <point x="468" y="648"/>
      <point x="465" y="645" type="curve"/>
      <point x="458" y="639"/>
      <point x="457" y="619"/>
      <point x="466" y="610" type="curve"/>
      <point x="472" y="605"/>
      <point x="493" y="606"/>
      <point x="502" y="606" type="curve" smooth="yes"/>
      <point x="528" y="606"/>
      <point x="537" y="595"/>
      <point x="521" y="571" type="curve" smooth="yes"/>
      <point x="486" y="520"/>
      <point x="443" y="466"/>
      <point x="406" y="418" type="curve" smooth="yes"/>
      <point x="403" y="414"/>
      <point x="397" y="415"/>
      <point x="394" y="420" type="curve"/>
      <point x="298" y="548" type="line" smooth="yes"/>
      <point x="282" y="568"/>
      <point x="258" y="603"/>
      <point x="284" y="606" type="curve" smooth="yes"/>
      <point x="293" y="607"/>
      <point x="306" y="607"/>
      <point x="327" y="608" type="curve" smooth="yes"/>
      <point x="334" y="608"/>
      <point x="339" y="610"/>
      <point x="344" y="612" type="curve"/>
      <point x="350" y="617"/>
      <point x="350" y="636"/>
      <point x="348" y="641" type="curve" smooth="yes"/>
      <point x="343" y="652"/>
      <point x="333" y="652"/>
      <point x="326" y="652" type="curve"/>
      <point x="251" y="648"/>
      <point x="117" y="648"/>
      <point x="49" y="651" type="curve" smooth="yes"/>
      <point x="26" y="652"/>
      <point x="24" y="626"/>
      <point x="27" y="616" type="curve"/>
      <point x="29" y="607"/>
      <point x="43" y="601"/>
      <point x="47" y="601" type="curve" smooth="yes"/>
      <point x="124" y="599"/>
      <point x="126" y="595"/>
      <point x="187" y="517" type="curve" smooth="yes"/>
      <point x="325" y="341" type="line"/>
      <point x="325" y="336"/>
      <point x="334" y="325"/>
      <point x="325" y="317" type="curve"/>
      <point x="264" y="239"/>
      <point x="209" y="171"/>
      <point x="149" y="92" type="curve" smooth="yes"/>
      <point x="120" y="54"/>
      <point x="92" y="46"/>
      <point x="42" y="42" type="curve"/>
      <point x="32" y="42"/>
      <point x="27" y="30"/>
      <point x="27" y="20" type="curve" smooth="yes"/>
      <point x="27" y="10"/>
      <point x="33" y="-2"/>
      <point x="41" y="-2" type="curve" smooth="yes"/>
      <point x="111" y="1"/>
      <point x="222" y="-2"/>
      <point x="274" y="-3" type="curve" smooth="yes"/>
      <point x="295" y="-3"/>
      <point x="294" y="39"/>
      <point x="272" y="39" type="curve" smooth="yes"/>
      <point x="263" y="39" type="line" smooth="yes"/>
      <point x="210" y="39"/>
      <point x="210" y="53"/>
      <point x="210" y="59" type="curve" smooth="yes"/>
      <point x="210" y="64"/>
      <point x="215" y="76"/>
      <point x="231" y="96" type="curve"/>
      <point x="231" y="96"/>
      <point x="337" y="229"/>
      <point x="358" y="256" type="curve" smooth="yes"/>
      <point x="369" y="270"/>
      <point x="374" y="271"/>
      <point x="379" y="270" type="curve"/>
      <point x="500" y="105" type="line" smooth="yes"/>
      <point x="508" y="94"/>
      <point x="527" y="70"/>
      <point x="527" y="56" type="curve"/>
      <point x="528" y="50"/>
      <point x="530" y="40"/>
      <point x="489" y="40" type="curve" smooth="yes"/>
      <point x="479" y="40" type="line" smooth="yes"/>
      <point x="467" y="40"/>
      <point x="463" y="17"/>
      <point x="468" y="5" type="curve"/>
      <point x="472" y="-2"/>
      <point x="478" y="-4"/>
      <point x="485" y="-3" type="curve"/>
      <point x="528" y="-1"/>
      <point x="700" y="0"/>
    </contour>
  </outline>
</glyph>
<glyph name="Z" format="2">
  <advance width="705"/>
  <unicode hex="005A"/>
  <outline>
    <contour>
      <point x="128" y="492" type="curve"/>
      <point x="128" y="492" type="line"/>
      <point x="140" y="587"/>
      <point x="151" y="592"/>
      <point x="246" y="592" type="curve" smooth="yes"/>
      <point x="448" y="592" type="line" smooth="yes"/>
      <point x="451" y="592"/>
      <point x="454" y="581"/>
      <point x="449" y="575" type="curve" smooth="yes"/>
      <point x="42" y="38" type="line" smooth="yes"/>
      <point x="39" y="34"/>
      <point x="36" y="26"/>
      <point x="36" y="21" type="curve"/>
      <point x="34" y="3"/>
      <point x="50" y="-2"/>
      <point x="61" y="-2" type="curve" smooth="yes"/>
      <point x="73" y="-2"/>
      <point x="167" y="-3"/>
      <point x="276" y="-3" type="curve" smooth="yes"/>
      <point x="388" y="-3"/>
      <point x="518" y="-2"/>
      <point x="588" y="-2" type="curve" smooth="yes"/>
      <point x="595" y="-2"/>
      <point x="621" y="2"/>
      <point x="623" y="14" type="curve"/>
      <point x="628" y="60"/>
      <point x="635" y="147"/>
      <point x="637" y="196" type="curve" smooth="yes"/>
      <point x="637" y="209"/>
      <point x="600" y="208"/>
      <point x="591" y="196" type="curve"/>
      <point x="581" y="98"/>
      <point x="565" y="58"/>
      <point x="457" y="58" type="curve" smooth="yes"/>
      <point x="227" y="58" type="line" smooth="yes"/>
      <point x="221" y="58"/>
      <point x="184" y="58"/>
      <point x="198" y="72" type="curve"/>
      <point x="610" y="611" type="line"/>
      <point x="627" y="638"/>
      <point x="606" y="650"/>
      <point x="585" y="650" type="curve" smooth="yes"/>
      <point x="118" y="650" type="line"/>
      <point x="109" y="649"/>
      <point x="94" y="645"/>
      <point x="91" y="636" type="curve"/>
      <point x="87" y="602"/>
      <point x="86" y="533"/>
      <point x="86" y="496" type="curve"/>
      <point x="94" y="477"/>
      <point x="127" y="482"/>
    </contour>
  </outline>
</glyph>
<glyph name="bracketleft" format="2">
  <advance width="337"/>
  <unicode hex="005B"/>
  <outline>
    <contour>
      <point x="249" y="-229" type="curve"/>
      <point x="258" y="-229"/>
      <point x="272" y="-225"/>
      <point x="272" y="-215" type="curve" smooth="yes"/>
      <point x="272" y="-204" type="line" smooth="yes"/>
      <point x="272" y="-191"/>
      <point x="267" y="-188"/>
      <point x="257" y="-188" type="curve"/>
      <point x="234" y="-186" type="line" smooth="yes"/>
      <point x="194" y="-182"/>
      <point x="190" y="-181"/>
      <point x="189" y="-157" type="curve" smooth="yes"/>
      <point x="188" y="37"/>
      <point x="188" y="406"/>
      <point x="189" y="616" type="curve"/>
      <point x="190" y="633"/>
      <point x="193" y="638"/>
      <point x="198" y="641" type="curve" smooth="yes"/>
      <point x="209" y="648"/>
      <point x="246" y="649"/>
      <point x="260" y="649" type="curve"/>
      <point x="268" y="650"/>
      <point x="272" y="654"/>
      <point x="272" y="663" type="curve" smooth="yes"/>
      <point x="272" y="678" type="line" smooth="yes"/>
      <point x="272" y="688"/>
      <point x="262" y="690"/>
      <point x="255" y="690" type="curve" smooth="yes"/>
      <point x="250" y="690" type="line" smooth="yes"/>
      <point x="218" y="690"/>
      <point x="160" y="693"/>
      <point x="129" y="690" type="curve" smooth="yes"/>
      <point x="110" y="688"/>
      <point x="104" y="680"/>
      <point x="104" y="659" type="curve"/>
      <point x="101" y="444"/>
      <point x="101" y="12"/>
      <point x="104" y="-204" type="curve" smooth="yes"/>
      <point x="104" y="-222"/>
      <point x="115" y="-228"/>
      <point x="131" y="-229" type="curve" smooth="yes"/>
      <point x="162" y="-230"/>
      <point x="218" y="-231"/>
    </contour>
  </outline>
</glyph>
<glyph name="backslash" format="2">
  <advance width="479"/>
  <unicode hex="005C"/>
  <outline>
    <contour>
      <point x="423" y="-14" type="line" smooth="yes"/>
      <point x="447" y="-11"/>
      <point x="441" y="6"/>
      <point x="435" y="16" type="curve"/>
      <point x="125" y="656" type="line" smooth="yes"/>
      <point x="115" y="676"/>
      <point x="112" y="674"/>
      <point x="94" y="674" type="curve" smooth="yes"/>
      <point x="74" y="674" type="line" smooth="yes"/>
      <point x="58" y="674"/>
      <point x="32" y="669"/>
      <point x="41" y="651" type="curve" smooth="yes"/>
      <point x="356" y="0" type="line" smooth="yes"/>
      <point x="362" y="-13"/>
      <point x="366" y="-21"/>
      <point x="383" y="-19" type="curve" smooth="yes"/>
    </contour>
  </outline>
</glyph>
<glyph name="asciicircum" format="2">
  <advance width="491"/>
  <unicode hex="005E"/>
  <outline>
    <contour>
      <point x="453" y="336" type="line" smooth="yes"/>
      <point x="466" y="337"/>
      <point x="479" y="343"/>
      <point x="467" y="363" type="curve" smooth="yes"/>
      <point x="416" y="454"/>
      <point x="331" y="599"/>
      <point x="262" y="711" type="curve"/>
      <point x="234" y="711" type="line"/>
      <point x="176" y="621"/>
      <point x="76" y="451"/>
      <point x="29" y="367" type="curve"/>
      <point x="20" y="353"/>
      <point x="21" y="342"/>
      <point x="32" y="338" type="curve"/>
      <point x="40" y="334"/>
      <point x="51" y="335"/>
      <point x="59" y="334" type="curve"/>
      <point x="74" y="334"/>
      <point x="81" y="335"/>
      <point x="90" y="349" type="curve"/>
      <point x="127" y="414"/>
      <point x="198" y="537"/>
      <point x="239" y="600" type="curve"/>
      <point x="241" y="604"/>
      <point x="256" y="600"/>
      <point x="260" y="592" type="curve"/>
      <point x="301" y="527"/>
      <point x="366" y="417"/>
      <point x="402" y="353" type="curve" smooth="yes"/>
      <point x="410" y="340"/>
      <point x="415" y="332"/>
      <point x="434" y="334" type="curve" smooth="yes"/>
    </contour>
  </outline>
</glyph>
<glyph name="underscore" format="2">
  <advance width="523"/>
  <unicode hex="005F"/>
  <outline>
    <contour>
      <point x="522" y="-232" type="curve" smooth="yes"/>
      <point x="530" y="-231"/>
      <point x="536" y="-227"/>
      <point x="536" y="-218" type="curve" smooth="yes"/>
      <point x="536" y="-193" type="line" smooth="yes"/>
      <point x="536" y="-184"/>
      <point x="525" y="-179"/>
      <point x="511" y="-179" type="curve" smooth="yes"/>
      <point x="347" y="-174"/>
      <point x="180" y="-178"/>
      <point x="15" y="-178" type="curve" smooth="yes"/>
      <point x="-1" y="-178"/>
      <point x="-10" y="-182"/>
      <point x="-10" y="-190" type="curve" smooth="yes"/>
      <point x="-10" y="-213" type="line" smooth="yes"/>
      <point x="-10" y="-228"/>
      <point x="10" y="-232"/>
      <point x="33" y="-232" type="curve" smooth="yes"/>
      <point x="500" y="-232" type="line" smooth="yes"/>
      <point x="507" y="-232"/>
      <point x="514" y="-233"/>
    </contour>
  </outline>
</glyph>
<glyph name="grave" format="2">
  <advance width="348"/>
  <unicode hex="0060"/>
  <outline>
    <contour>
      <point x="197" y="482" type="curve"/>
      <point x="207" y="472"/>
      <point x="230" y="475"/>
      <point x="229" y="493" type="curve"/>
      <point x="219" y="534"/>
      <point x="199" y="605"/>
      <point x="183" y="648" type="curve"/>
      <point x="176" y="658"/>
      <point x="169" y="658"/>
      <point x="160" y="658" type="curve" smooth="yes"/>
      <point x="88" y="657" type="line" smooth="yes"/>
      <point x="76" y="657"/>
      <point x="61" y="642"/>
      <point x="71" y="630" type="curve"/>
      <point x="112" y="587"/>
      <point x="166" y="521"/>
    </contour>
  </outline>
</glyph>
<glyph name="b" format="2">
  <advance width="491"/>
  <unicode hex="0062"/>
  <outline>
    <contour>
      <point x="228" y="-15" type="curve" smooth="yes"/>
      <point x="362" y="-15"/>
      <point x="457" y="92"/>
      <point x="457" y="230" type="curve" smooth="yes"/>
      <point x="457" y="339"/>
      <point x="385" y="432"/>
      <point x="294" y="432" type="curve" smooth="yes"/>
      <point x="253" y="432"/>
      <point x="206" y="396"/>
      <point x="172" y="372" type="curve"/>
      <point x="166" y="367"/>
      <point x="163" y="374"/>
      <point x="163" y="389" type="curve" smooth="yes"/>
      <point x="163" y="474"/>
      <point x="163" y="634"/>
      <point x="163" y="702" type="curve" smooth="yes"/>
      <point x="163" y="720"/>
      <point x="158" y="731"/>
      <point x="138" y="724" type="curve" smooth="yes"/>
      <point x="19" y="683" type="line"/>
      <point x="5" y="679"/>
      <point x="5" y="651"/>
      <point x="19" y="646" type="curve"/>
      <point x="33" y="643"/>
      <point x="47" y="641"/>
      <point x="60" y="638" type="curve"/>
      <point x="72" y="636"/>
      <point x="77" y="634"/>
      <point x="77" y="625" type="curve"/>
      <point x="78" y="618"/>
      <point x="78" y="606"/>
      <point x="78" y="589" type="curve" smooth="yes"/>
      <point x="79" y="462"/>
      <point x="80" y="222"/>
      <point x="78" y="27" type="curve"/>
      <point x="79" y="17"/>
      <point x="86" y="6"/>
      <point x="92" y="4" type="curve"/>
      <point x="141" y="-7"/>
      <point x="199" y="-15"/>
    </contour>
    <contour>
      <point x="256" y="362" type="curve" smooth="yes"/>
      <point x="320" y="362"/>
      <point x="369" y="299"/>
      <point x="369" y="199" type="curve" smooth="yes"/>
      <point x="369" y="101"/>
      <point x="322" y="39"/>
      <point x="254" y="39" type="curve" smooth="yes"/>
      <point x="210" y="39"/>
      <point x="179" y="64"/>
      <point x="170" y="101" type="curve" smooth="yes"/>
      <point x="164" y="125"/>
      <point x="163" y="173"/>
      <point x="163" y="219" type="curve" smooth="yes"/>
      <point x="163" y="247"/>
      <point x="164" y="274"/>
      <point x="164" y="293" type="curve" smooth="yes"/>
      <point x="164" y="307"/>
      <point x="166" y="318"/>
      <point x="170" y="321" type="curve" smooth="yes"/>
      <point x="208" y="349"/>
      <point x="232" y="362"/>
    </contour>
  </outline>
</glyph>
<glyph name="c" format="2">
  <advance width="432"/>
  <unicode hex="0063"/>
  <outline>
    <contour>
      <point x="389" y="93" type="curve" smooth="yes"/>
      <point x="391" y="96"/>
      <point x="395" y="105"/>
      <point x="393" y="112" type="curve"/>
      <point x="392" y="118"/>
      <point x="385" y="126"/>
      <point x="380" y="128" type="curve"/>
      <point x="369" y="131"/>
      <point x="360" y="121"/>
      <point x="357" y="114" type="curve"/>
      <point x="330" y="75"/>
      <point x="294" y="53"/>
      <point x="247" y="53" type="curve" smooth="yes"/>
      <point x="174" y="53"/>
      <point x="121" y="117"/>
      <point x="121" y="216" type="curve" smooth="yes"/>
      <point x="121" y="309"/>
      <point x="176" y="384"/>
      <point x="235" y="384" type="curve" smooth="yes"/>
      <point x="253" y="384"/>
      <point x="266" y="379"/>
      <point x="287" y="358" type="curve" smooth="yes"/>
      <point x="312" y="334"/>
      <point x="328" y="323"/>
      <point x="351" y="323" type="curve" smooth="yes"/>
      <point x="373" y="323"/>
      <point x="391" y="341"/>
      <point x="391" y="364" type="curve" smooth="yes"/>
      <point x="391" y="408"/>
      <point x="331" y="432"/>
      <point x="270" y="432" type="curve" smooth="yes"/>
      <point x="137" y="432"/>
      <point x="30" y="326"/>
      <point x="30" y="193" type="curve" smooth="yes"/>
      <point x="30" y="76"/>
      <point x="107" y="-12"/>
      <point x="213" y="-12" type="curve" smooth="yes"/>
      <point x="285" y="-12"/>
      <point x="346" y="24"/>
    </contour>
  </outline>
</glyph>
<glyph name="f" format="2">
  <advance width="321"/>
  <unicode hex="0066"/>
  <outline>
    <contour>
      <point x="283" y="409" type="curve"/>
      <point x="280" y="415"/>
      <point x="282" y="420"/>
      <point x="265" y="420" type="curve" smooth="yes"/>
      <point x="197" y="420" type="line" smooth="yes"/>
      <point x="189" y="420"/>
      <point x="186" y="427"/>
      <point x="186" y="438" type="curve" smooth="yes"/>
      <point x="185" y="502" type="line" smooth="yes"/>
      <point x="184" y="547"/>
      <point x="189" y="572"/>
      <point x="198" y="598" type="curve" smooth="yes"/>
      <point x="211" y="635"/>
      <point x="243" y="659"/>
      <point x="281" y="659" type="curve" smooth="yes"/>
      <point x="308" y="659"/>
      <point x="345" y="643"/>
      <point x="371" y="622" type="curve" smooth="yes"/>
      <point x="387" y="609"/>
      <point x="403" y="597"/>
      <point x="419" y="622" type="curve"/>
      <point x="428" y="638"/>
      <point x="439" y="656"/>
      <point x="439" y="666" type="curve" smooth="yes"/>
      <point x="439" y="671"/>
      <point x="438" y="676"/>
      <point x="435" y="680" type="curve"/>
      <point x="413" y="713"/>
      <point x="356" y="727"/>
      <point x="325" y="727" type="curve" smooth="yes"/>
      <point x="270" y="727"/>
      <point x="216" y="700"/>
      <point x="168" y="646" type="curve" smooth="yes"/>
      <point x="113" y="587"/>
      <point x="101" y="542"/>
      <point x="97" y="466" type="curve" smooth="yes"/>
      <point x="96" y="450"/>
      <point x="96" y="441"/>
      <point x="95" y="431" type="curve"/>
      <point x="95" y="423"/>
      <point x="95" y="417"/>
      <point x="87" y="413" type="curve" smooth="yes"/>
      <point x="69" y="403"/>
      <point x="52" y="397"/>
      <point x="25" y="391" type="curve"/>
      <point x="19" y="387"/>
      <point x="18" y="368"/>
      <point x="21" y="358" type="curve"/>
      <point x="24" y="350"/>
      <point x="32" y="351"/>
      <point x="37" y="351" type="curve" smooth="yes"/>
      <point x="88" y="351" type="line"/>
      <point x="95" y="349"/>
      <point x="95" y="340"/>
      <point x="95" y="330" type="curve" smooth="yes"/>
      <point x="95" y="135" type="line" smooth="yes"/>
      <point x="95" y="55"/>
      <point x="91" y="41"/>
      <point x="49" y="41" type="curve" smooth="yes"/>
      <point x="40" y="41"/>
      <point x="31" y="42"/>
      <point x="26" y="31" type="curve"/>
      <point x="24" y="28"/>
      <point x="24" y="22"/>
      <point x="24" y="18" type="curve" smooth="yes"/>
      <point x="24" y="8"/>
      <point x="29" y="-3"/>
      <point x="37" y="-3" type="curve" smooth="yes"/>
      <point x="98" y="0"/>
      <point x="220" y="-1"/>
      <point x="282" y="-3" type="curve" smooth="yes"/>
      <point x="289" y="-3"/>
      <point x="297" y="7"/>
      <point x="297" y="18" type="curve"/>
      <point x="295" y="32"/>
      <point x="293" y="43"/>
      <point x="279" y="44" type="curve" smooth="yes"/>
      <point x="269" y="45"/>
      <point x="257" y="44"/>
      <point x="246" y="44" type="curve" smooth="yes"/>
      <point x="233" y="44"/>
      <point x="204" y="45"/>
      <point x="194" y="57" type="curve"/>
      <point x="187" y="67"/>
      <point x="186" y="84"/>
      <point x="186" y="131" type="curve" smooth="yes"/>
      <point x="186" y="331" type="line" smooth="yes"/>
      <point x="186" y="341"/>
      <point x="190" y="349"/>
      <point x="193" y="349" type="curve" smooth="yes"/>
      <point x="274" y="348" type="line" smooth="yes"/>
      <point x="284" y="348"/>
      <point x="289" y="352"/>
      <point x="291" y="361" type="curve"/>
      <point x="291" y="361"/>
      <point x="288" y="389"/>
    </contour>
  </outline>
</glyph>
<glyph name="g" format="2">
  <advance width="483"/>
  <unicode hex="0067"/>
  <outline>
    <contour>
      <point x="121" y="139" type="curve"/>
      <point x="126" y="135"/>
      <point x="124" y="131"/>
      <point x="118" y="127" type="curve" smooth="yes"/>
      <point x="110" y="122"/>
      <point x="101" y="117"/>
      <point x="90" y="111" type="curve" smooth="yes"/>
      <point x="70" y="100"/>
      <point x="44" y="87"/>
      <point x="44" y="65" type="curve" smooth="yes"/>
      <point x="44" y="36"/>
      <point x="62" y="9"/>
      <point x="110" y="-11" type="curve"/>
      <point x="115" y="-12"/>
      <point x="118" y="-16"/>
      <point x="112" y="-21" type="curve"/>
      <point x="67" y="-49"/>
      <point x="26" y="-74"/>
      <point x="26" y="-136" type="curve" smooth="yes"/>
      <point x="26" y="-209"/>
      <point x="124" y="-250"/>
      <point x="189" y="-250" type="curve" smooth="yes"/>
      <point x="330" y="-250"/>
      <point x="453" y="-173"/>
      <point x="453" y="-67" type="curve" smooth="yes"/>
      <point x="453" y="-24"/>
      <point x="436" y="12"/>
      <point x="398" y="29" type="curve" smooth="yes"/>
      <point x="352" y="50"/>
      <point x="300" y="51"/>
      <point x="242" y="52" type="curve" smooth="yes"/>
      <point x="186" y="53"/>
      <point x="157" y="56"/>
      <point x="142" y="60" type="curve" smooth="yes"/>
      <point x="114" y="68"/>
      <point x="129" y="82"/>
      <point x="143" y="95" type="curve"/>
      <point x="152" y="102"/>
      <point x="162" y="109"/>
      <point x="169" y="118" type="curve"/>
      <point x="182" y="115"/>
      <point x="194" y="113"/>
      <point x="207" y="113" type="curve" smooth="yes"/>
      <point x="304" y="113"/>
      <point x="377" y="176"/>
      <point x="377" y="268" type="curve" smooth="yes"/>
      <point x="377" y="285"/>
      <point x="376" y="295"/>
      <point x="371" y="311" type="curve" smooth="yes"/>
      <point x="368" y="320"/>
      <point x="376" y="319"/>
      <point x="379" y="319" type="curve"/>
      <point x="400" y="316"/>
      <point x="428" y="313"/>
      <point x="433" y="313" type="curve" smooth="yes"/>
      <point x="444" y="313"/>
      <point x="447" y="322"/>
      <point x="448" y="330" type="curve"/>
      <point x="449" y="348"/>
      <point x="447" y="363"/>
      <point x="445" y="380" type="curve" smooth="yes"/>
      <point x="443" y="399"/>
      <point x="436" y="401"/>
      <point x="420" y="398" type="curve"/>
      <point x="395" y="395"/>
      <point x="338" y="388"/>
      <point x="333" y="388" type="curve" smooth="yes"/>
      <point x="327" y="388" type="line"/>
      <point x="301" y="415"/>
      <point x="264" y="429"/>
      <point x="221" y="429" type="curve" smooth="yes"/>
      <point x="127" y="429"/>
      <point x="51" y="357"/>
      <point x="51" y="260" type="curve" smooth="yes"/>
      <point x="51" y="207"/>
      <point x="78" y="165"/>
    </contour>
    <contour>
      <point x="210" y="386" type="curve" smooth="yes"/>
      <point x="256" y="386"/>
      <point x="294" y="337"/>
      <point x="294" y="262" type="curve" smooth="yes"/>
      <point x="294" y="194"/>
      <point x="261" y="158"/>
      <point x="218" y="158" type="curve" smooth="yes"/>
      <point x="173" y="158"/>
      <point x="135" y="202"/>
      <point x="135" y="281" type="curve" smooth="yes"/>
      <point x="135" y="343"/>
      <point x="168" y="386"/>
    </contour>
    <contour>
      <point x="280" y="-29" type="curve" smooth="yes"/>
      <point x="362" y="-35"/>
      <point x="383" y="-54"/>
      <point x="383" y="-94" type="curve" smooth="yes"/>
      <point x="383" y="-139"/>
      <point x="305" y="-189"/>
      <point x="243" y="-189" type="curve" smooth="yes"/>
      <point x="172" y="-189"/>
      <point x="109" y="-156"/>
      <point x="110" y="-110" type="curve" smooth="yes"/>
      <point x="110" y="-91"/>
      <point x="130" y="-67"/>
      <point x="143" y="-53" type="curve" smooth="yes"/>
      <point x="151" y="-45"/>
      <point x="163" y="-35"/>
      <point x="170" y="-26" type="curve"/>
      <point x="211" y="-27"/>
      <point x="238" y="-25"/>
    </contour>
  </outline>
</glyph>
<glyph name="h" format="2">
  <advance width="542"/>
  <unicode hex="0068"/>
  <outline>
    <contour>
      <point x="506" y="-2" type="curve" smooth="yes"/>
      <point x="514" y="-2"/>
      <point x="519" y="8"/>
      <point x="518" y="20" type="curve"/>
      <point x="516" y="34"/>
      <point x="516" y="44"/>
      <point x="498" y="44" type="curve" smooth="yes"/>
      <point x="445" y="44"/>
      <point x="442" y="49"/>
      <point x="442" y="68" type="curve" smooth="yes"/>
      <point x="442" y="90"/>
      <point x="443" y="112"/>
      <point x="444" y="133" type="curve" smooth="yes"/>
      <point x="447" y="200"/>
      <point x="455" y="294"/>
      <point x="435" y="358" type="curve" smooth="yes"/>
      <point x="419" y="409"/>
      <point x="380" y="431"/>
      <point x="325" y="431" type="curve" smooth="yes"/>
      <point x="271" y="431"/>
      <point x="238" y="415"/>
      <point x="196" y="388" type="curve" smooth="yes"/>
      <point x="184" y="381"/>
      <point x="184" y="404"/>
      <point x="184" y="409" type="curve" smooth="yes"/>
      <point x="184" y="701" type="line" smooth="yes"/>
      <point x="184" y="725"/>
      <point x="172" y="733"/>
      <point x="158" y="729" type="curve" smooth="yes"/>
      <point x="116" y="717"/>
      <point x="63" y="699"/>
      <point x="32" y="686" type="curve" smooth="yes"/>
      <point x="17" y="680"/>
      <point x="20" y="650"/>
      <point x="33" y="648" type="curve" smooth="yes"/>
      <point x="47" y="646"/>
      <point x="59" y="645"/>
      <point x="72" y="643" type="curve"/>
      <point x="83" y="642"/>
      <point x="92" y="634"/>
      <point x="92" y="623" type="curve" smooth="yes"/>
      <point x="93" y="586" type="line"/>
      <point x="93" y="135" type="line" smooth="yes"/>
      <point x="93" y="53"/>
      <point x="87" y="46"/>
      <point x="48" y="43" type="curve"/>
      <point x="41" y="42"/>
      <point x="29" y="42"/>
      <point x="24" y="36" type="curve" smooth="yes"/>
      <point x="15" y="26"/>
      <point x="19" y="-5"/>
      <point x="34" y="-3" type="curve"/>
      <point x="91" y="-5"/>
      <point x="182" y="-1"/>
      <point x="233" y="-3" type="curve"/>
      <point x="246" y="-5"/>
      <point x="251" y="0"/>
      <point x="251" y="13" type="curve"/>
      <point x="250" y="17"/>
      <point x="250" y="25"/>
      <point x="250" y="28" type="curve"/>
      <point x="248" y="42"/>
      <point x="239" y="41"/>
      <point x="230" y="41" type="curve" smooth="yes"/>
      <point x="191" y="41"/>
      <point x="184" y="45"/>
      <point x="184" y="93" type="curve" smooth="yes"/>
      <point x="184" y="298" type="line" smooth="yes"/>
      <point x="184" y="309"/>
      <point x="183" y="330"/>
      <point x="193" y="336" type="curve" smooth="yes"/>
      <point x="221" y="354"/>
      <point x="241" y="370"/>
      <point x="277" y="370" type="curve" smooth="yes"/>
      <point x="300" y="370"/>
      <point x="320" y="361"/>
      <point x="333" y="347" type="curve" smooth="yes"/>
      <point x="351" y="327"/>
      <point x="357" y="306"/>
      <point x="357" y="217" type="curve" smooth="yes"/>
      <point x="357" y="169"/>
      <point x="355" y="125"/>
      <point x="350" y="83" type="curve" smooth="yes"/>
      <point x="347" y="51"/>
      <point x="342" y="42"/>
      <point x="297" y="42" type="curve" smooth="yes"/>
      <point x="291" y="42" type="line" smooth="yes"/>
      <point x="280" y="42"/>
      <point x="276" y="27"/>
      <point x="277" y="20" type="curve"/>
      <point x="277" y="14"/>
      <point x="280" y="-2"/>
      <point x="298" y="-2" type="curve" smooth="yes"/>
      <point x="350" y="-1"/>
      <point x="409" y="-4"/>
    </contour>
  </outline>
</glyph>
<glyph name="j" format="2">
  <advance width="247"/>
  <unicode hex="006A"/>
  <outline>
    <contour>
      <point x="114" y="541" type="curve" smooth="yes"/>
      <point x="146" y="541"/>
      <point x="171" y="566"/>
      <point x="171" y="598" type="curve" smooth="yes"/>
      <point x="171" y="630"/>
      <point x="147" y="654"/>
      <point x="114" y="654" type="curve" smooth="yes"/>
      <point x="81" y="654"/>
      <point x="56" y="630"/>
      <point x="56" y="598" type="curve" smooth="yes"/>
      <point x="56" y="566"/>
      <point x="80" y="541"/>
    </contour>
    <contour>
      <point x="151" y="-131" type="curve" smooth="yes"/>
      <point x="168" y="-88"/>
      <point x="171" y="-59"/>
      <point x="171" y="27" type="curve" smooth="yes"/>
      <point x="171" y="422" type="line" smooth="yes"/>
      <point x="171" y="432"/>
      <point x="166" y="455"/>
      <point x="143" y="447" type="curve" smooth="yes"/>
      <point x="77" y="425"/>
      <point x="29" y="405"/>
      <point x="22" y="402" type="curve"/>
      <point x="13" y="397"/>
      <point x="11" y="370"/>
      <point x="23" y="367" type="curve"/>
      <point x="31" y="364"/>
      <point x="41" y="362"/>
      <point x="52" y="360" type="curve" smooth="yes"/>
      <point x="91" y="351"/>
      <point x="84" y="348"/>
      <point x="84" y="307" type="curve" smooth="yes"/>
      <point x="84" y="-10" type="line"/>
      <point x="84" y="-72" type="line" smooth="yes"/>
      <point x="84" y="-158"/>
      <point x="65" y="-185"/>
      <point x="29" y="-185" type="curve" smooth="yes"/>
      <point x="9" y="-185"/>
      <point x="-11" y="-170"/>
      <point x="-24" y="-155" type="curve"/>
      <point x="-34" y="-142"/>
      <point x="-49" y="-123"/>
      <point x="-67" y="-123" type="curve" smooth="yes"/>
      <point x="-92" y="-123"/>
      <point x="-107" y="-154"/>
      <point x="-107" y="-181" type="curve" smooth="yes"/>
      <point x="-107" y="-220"/>
      <point x="-62" y="-244"/>
      <point x="-7" y="-244" type="curve" smooth="yes"/>
      <point x="40" y="-244"/>
      <point x="79" y="-230"/>
      <point x="110" y="-195" type="curve" smooth="yes"/>
      <point x="126" y="-176"/>
      <point x="142" y="-155"/>
    </contour>
  </outline>
</glyph>
<glyph name="k" format="2">
  <advance width="518"/>
  <unicode hex="006B"/>
  <outline>
    <contour>
      <point x="179" y="197" type="curve"/>
      <point x="293" y="75" type="line" smooth="yes"/>
      <point x="320" y="46"/>
      <point x="320" y="39"/>
      <point x="285" y="39" type="curve" smooth="yes"/>
      <point x="270" y="39"/>
      <point x="265" y="35"/>
      <point x="265" y="19" type="curve" smooth="yes"/>
      <point x="265" y="8"/>
      <point x="273" y="-3"/>
      <point x="279" y="-3" type="curve" smooth="yes"/>
      <point x="330" y="-1"/>
      <point x="436" y="0"/>
      <point x="490" y="-3" type="curve" smooth="yes"/>
      <point x="503" y="-4"/>
      <point x="509" y="32"/>
      <point x="492" y="39" type="curve"/>
      <point x="481" y="39" type="line" smooth="yes"/>
      <point x="450" y="39"/>
      <point x="439" y="49"/>
      <point x="417" y="71" type="curve" smooth="yes"/>
      <point x="356" y="133"/>
      <point x="299" y="192"/>
      <point x="240" y="253" type="curve"/>
      <point x="234" y="260"/>
      <point x="238" y="263"/>
      <point x="241" y="267" type="curve"/>
      <point x="276" y="292"/>
      <point x="306" y="313"/>
      <point x="339" y="339" type="curve" smooth="yes"/>
      <point x="380" y="370"/>
      <point x="410" y="382"/>
      <point x="457" y="383" type="curve" smooth="yes"/>
      <point x="461" y="383"/>
      <point x="468" y="396"/>
      <point x="468" y="405" type="curve" smooth="yes"/>
      <point x="468" y="415"/>
      <point x="463" y="427"/>
      <point x="452" y="426" type="curve"/>
      <point x="407" y="426"/>
      <point x="331" y="425"/>
      <point x="271" y="426" type="curve" smooth="yes"/>
      <point x="256" y="426"/>
      <point x="253" y="420"/>
      <point x="252" y="407" type="curve" smooth="yes"/>
      <point x="250" y="388"/>
      <point x="259" y="388"/>
      <point x="268" y="386" type="curve"/>
      <point x="272" y="386"/>
      <point x="278" y="385"/>
      <point x="287" y="385" type="curve" smooth="yes"/>
      <point x="315" y="384"/>
      <point x="307" y="375"/>
      <point x="283" y="357" type="curve" smooth="yes"/>
      <point x="180" y="282" type="line" smooth="yes"/>
      <point x="172" y="276"/>
      <point x="169" y="290"/>
      <point x="169" y="296" type="curve" smooth="yes"/>
      <point x="168" y="700" type="line" smooth="yes"/>
      <point x="167" y="722"/>
      <point x="160" y="727"/>
      <point x="139" y="722" type="curve" smooth="yes"/>
      <point x="101" y="712"/>
      <point x="78" y="695"/>
      <point x="25" y="681" type="curve"/>
      <point x="14" y="679"/>
      <point x="9" y="648"/>
      <point x="26" y="644" type="curve"/>
      <point x="28" y="644"/>
      <point x="48" y="639"/>
      <point x="50" y="638" type="curve"/>
      <point x="58" y="637"/>
      <point x="79" y="633"/>
      <point x="80" y="622" type="curve" smooth="yes"/>
      <point x="81" y="603"/>
      <point x="81" y="589"/>
      <point x="81" y="570" type="curve" smooth="yes"/>
      <point x="81" y="135" type="line" smooth="yes"/>
      <point x="81" y="45"/>
      <point x="78" y="41"/>
      <point x="36" y="41" type="curve" smooth="yes"/>
      <point x="25" y="41"/>
      <point x="21" y="39"/>
      <point x="18" y="35" type="curve" smooth="yes"/>
      <point x="12" y="27"/>
      <point x="17" y="-4"/>
      <point x="28" y="-3" type="curve" smooth="yes"/>
      <point x="80" y="0"/>
      <point x="179" y="-2"/>
      <point x="228" y="-3" type="curve" smooth="yes"/>
      <point x="234" y="-3"/>
      <point x="241" y="7"/>
      <point x="241" y="18" type="curve" smooth="yes"/>
      <point x="241" y="29"/>
      <point x="234" y="40"/>
      <point x="228" y="40" type="curve" smooth="yes"/>
      <point x="218" y="40"/>
      <point x="209" y="40"/>
      <point x="199" y="40" type="curve"/>
      <point x="165" y="42"/>
      <point x="169" y="64"/>
      <point x="169" y="93" type="curve" smooth="yes"/>
      <point x="168" y="128"/>
      <point x="169" y="163"/>
      <point x="169" y="197" type="curve" smooth="yes"/>
      <point x="169" y="199"/>
      <point x="169" y="204"/>
    </contour>
  </outline>
</glyph>
<glyph name="l" format="2">
  <advance width="272"/>
  <unicode hex="006C"/>
  <outline>
    <contour>
      <point x="239" y="-2" type="curve" smooth="yes"/>
      <point x="252" y="-2"/>
      <point x="254" y="8"/>
      <point x="254" y="18" type="curve" smooth="yes"/>
      <point x="254" y="23"/>
      <point x="255" y="27"/>
      <point x="254" y="31" type="curve"/>
      <point x="252" y="43"/>
      <point x="238" y="41"/>
      <point x="230" y="41" type="curve" smooth="yes"/>
      <point x="188" y="41"/>
      <point x="187" y="45"/>
      <point x="187" y="102" type="curve" smooth="yes"/>
      <point x="187" y="694" type="line" smooth="yes"/>
      <point x="187" y="704"/>
      <point x="179" y="721"/>
      <point x="167" y="720" type="curve"/>
      <point x="111" y="698"/>
      <point x="65" y="685"/>
      <point x="40" y="678" type="curve" smooth="yes"/>
      <point x="25" y="673"/>
      <point x="27" y="643"/>
      <point x="40" y="640" type="curve" smooth="yes"/>
      <point x="56" y="637"/>
      <point x="72" y="635"/>
      <point x="88" y="631" type="curve"/>
      <point x="96" y="630"/>
      <point x="99" y="627"/>
      <point x="99" y="619" type="curve" smooth="yes"/>
      <point x="99" y="101" type="line" smooth="yes"/>
      <point x="99" y="51"/>
      <point x="93" y="41"/>
      <point x="46" y="41" type="curve" smooth="yes"/>
      <point x="35" y="41"/>
      <point x="31" y="43"/>
      <point x="26" y="33" type="curve" smooth="yes"/>
      <point x="22" y="25"/>
      <point x="24" y="15"/>
      <point x="25" y="10" type="curve"/>
      <point x="27" y="3"/>
      <point x="38" y="-2"/>
      <point x="41" y="-2" type="curve" smooth="yes"/>
      <point x="109" y="0"/>
      <point x="149" y="-1"/>
    </contour>
  </outline>
</glyph>
<glyph name="m" format="2">
  <advance width="825"/>
  <unicode hex="006D"/>
  <outline>
    <contour>
      <point x="248" y="-3" type="curve" smooth="yes"/>
      <point x="254" y="-3"/>
      <point x="260" y="0"/>
      <point x="262" y="10" type="curve"/>
      <point x="262" y="20"/>
      <point x="261" y="36"/>
      <point x="256" y="37" type="curve" smooth="yes"/>
      <point x="248" y="39"/>
      <point x="248" y="40"/>
      <point x="242" y="39" type="curve"/>
      <point x="195" y="39"/>
      <point x="189" y="46"/>
      <point x="189" y="92" type="curve" smooth="yes"/>
      <point x="189" y="315" type="line"/>
      <point x="221" y="336"/>
      <point x="267" y="369"/>
      <point x="307" y="369" type="curve" smooth="yes"/>
      <point x="344" y="369"/>
      <point x="368" y="343"/>
      <point x="368" y="293" type="curve" smooth="yes"/>
      <point x="368" y="134" type="line" smooth="yes"/>
      <point x="368" y="46"/>
      <point x="360" y="40"/>
      <point x="314" y="40" type="curve" smooth="yes"/>
      <point x="309" y="40"/>
      <point x="304" y="41"/>
      <point x="299" y="38" type="curve"/>
      <point x="287" y="32"/>
      <point x="281" y="-2"/>
      <point x="304" y="-2" type="curve" smooth="yes"/>
      <point x="358" y="-1"/>
      <point x="459" y="-2"/>
      <point x="508" y="-3" type="curve" smooth="yes"/>
      <point x="519" y="-3"/>
      <point x="524" y="11"/>
      <point x="524" y="19" type="curve"/>
      <point x="523" y="33"/>
      <point x="519" y="39"/>
      <point x="505" y="39" type="curve" smooth="yes"/>
      <point x="465" y="39"/>
      <point x="457" y="47"/>
      <point x="457" y="92" type="curve" smooth="yes"/>
      <point x="457" y="315" type="line"/>
      <point x="506" y="348"/>
      <point x="544" y="369"/>
      <point x="571" y="369" type="curve" smooth="yes"/>
      <point x="617" y="369"/>
      <point x="634" y="346"/>
      <point x="634" y="221" type="curve" smooth="yes"/>
      <point x="634" y="163"/>
      <point x="634" y="125"/>
      <point x="630" y="85" type="curve" smooth="yes"/>
      <point x="627" y="47"/>
      <point x="619" y="39"/>
      <point x="580" y="39" type="curve" smooth="yes"/>
      <point x="570" y="39" type="line" smooth="yes"/>
      <point x="552" y="39"/>
      <point x="549" y="-4"/>
      <point x="571" y="-3" type="curve" smooth="yes"/>
      <point x="576" y="-3" type="line" smooth="yes"/>
      <point x="643" y="-2"/>
      <point x="726" y="0"/>
      <point x="794" y="-3" type="curve" smooth="yes"/>
      <point x="801" y="-3"/>
      <point x="810" y="6"/>
      <point x="810" y="17" type="curve"/>
      <point x="811" y="25"/>
      <point x="809" y="37"/>
      <point x="803" y="40" type="curve"/>
      <point x="797" y="44"/>
      <point x="786" y="44"/>
      <point x="781" y="43" type="curve"/>
      <point x="725" y="43"/>
      <point x="722" y="49"/>
      <point x="722" y="75" type="curve" smooth="yes"/>
      <point x="722" y="126"/>
      <point x="726" y="177"/>
      <point x="726" y="229" type="curve" smooth="yes"/>
      <point x="726" y="308"/>
      <point x="724" y="337"/>
      <point x="711" y="367" type="curve" smooth="yes"/>
      <point x="694" y="406"/>
      <point x="658" y="429"/>
      <point x="614" y="429" type="curve" smooth="yes"/>
      <point x="554" y="429"/>
      <point x="506" y="393"/>
      <point x="459" y="360" type="curve"/>
      <point x="454" y="356"/>
      <point x="450" y="357"/>
      <point x="448" y="361" type="curve"/>
      <point x="433" y="403"/>
      <point x="396" y="429"/>
      <point x="351" y="429" type="curve" smooth="yes"/>
      <point x="293" y="429"/>
      <point x="236" y="392"/>
      <point x="193" y="362" type="curve"/>
      <point x="191" y="361"/>
      <point x="189" y="368"/>
      <point x="189" y="370" type="curve" smooth="yes"/>
      <point x="189" y="416" type="line" smooth="yes"/>
      <point x="189" y="431"/>
      <point x="184" y="443"/>
      <point x="167" y="439" type="curve" smooth="yes"/>
      <point x="121" y="427"/>
      <point x="65" y="409"/>
      <point x="37" y="397" type="curve"/>
      <point x="32" y="394"/>
      <point x="20" y="362"/>
      <point x="38" y="360" type="curve" smooth="yes"/>
      <point x="61" y="357" type="line" smooth="yes"/>
      <point x="89" y="353"/>
      <point x="94" y="349"/>
      <point x="97" y="344" type="curve"/>
      <point x="98" y="342"/>
      <point x="99" y="327"/>
      <point x="99" y="274" type="curve" smooth="yes"/>
      <point x="99" y="134" type="line" smooth="yes"/>
      <point x="99" y="50"/>
      <point x="91" y="42"/>
      <point x="53" y="41" type="curve" smooth="yes"/>
      <point x="44" y="41"/>
      <point x="30" y="41"/>
      <point x="26" y="31" type="curve" smooth="yes"/>
      <point x="22" y="20"/>
      <point x="22" y="-4"/>
      <point x="39" y="-3" type="curve" smooth="yes"/>
      <point x="96" y="-1"/>
      <point x="199" y="-1"/>
    </contour>
  </outline>
</glyph>
<glyph name="n" format="2">
  <advance width="523"/>
  <unicode hex="006E"/>
  <outline>
    <contour>
      <point x="501" y="-1" type="curve"/>
      <point x="512" y="4"/>
      <point x="510" y="28"/>
      <point x="505" y="36" type="curve"/>
      <point x="500" y="43"/>
      <point x="491" y="44"/>
      <point x="484" y="41" type="curve"/>
      <point x="445" y="41"/>
      <point x="442" y="46"/>
      <point x="442" y="71" type="curve" smooth="yes"/>
      <point x="442" y="130"/>
      <point x="450" y="189"/>
      <point x="450" y="247" type="curve" smooth="yes"/>
      <point x="450" y="317"/>
      <point x="440" y="428"/>
      <point x="336" y="428" type="curve" smooth="yes"/>
      <point x="285" y="428"/>
      <point x="229" y="390"/>
      <point x="189" y="362" type="curve"/>
      <point x="187" y="360"/>
      <point x="181" y="372"/>
      <point x="181" y="376" type="curve" smooth="yes"/>
      <point x="181" y="419" type="line" smooth="yes"/>
      <point x="181" y="434"/>
      <point x="171" y="445"/>
      <point x="152" y="441" type="curve" smooth="yes"/>
      <point x="142" y="439"/>
      <point x="132" y="435"/>
      <point x="122" y="431" type="curve" smooth="yes"/>
      <point x="96" y="421"/>
      <point x="63" y="408"/>
      <point x="36" y="399" type="curve"/>
      <point x="26" y="395"/>
      <point x="22" y="365"/>
      <point x="36" y="362" type="curve" smooth="yes"/>
      <point x="56" y="358" type="line" smooth="yes"/>
      <point x="87" y="352"/>
      <point x="89" y="349"/>
      <point x="90" y="346" type="curve"/>
      <point x="92" y="341"/>
      <point x="94" y="326"/>
      <point x="94" y="269" type="curve" smooth="yes"/>
      <point x="94" y="135" type="line" smooth="yes"/>
      <point x="94" y="47"/>
      <point x="83" y="39"/>
      <point x="43" y="39" type="curve" smooth="yes"/>
      <point x="38" y="39" type="line" smooth="yes"/>
      <point x="25" y="39"/>
      <point x="21" y="18"/>
      <point x="25" y="6" type="curve" smooth="yes"/>
      <point x="27" y="0"/>
      <point x="34" y="-2"/>
      <point x="40" y="-2" type="curve" smooth="yes"/>
      <point x="43" y="-2" type="line" smooth="yes"/>
      <point x="95" y="-4"/>
      <point x="180" y="-1"/>
      <point x="230" y="-3" type="curve"/>
      <point x="245" y="-2"/>
      <point x="249" y="5"/>
      <point x="249" y="19" type="curve"/>
      <point x="248" y="29"/>
      <point x="242" y="41"/>
      <point x="235" y="41" type="curve" smooth="yes"/>
      <point x="188" y="41"/>
      <point x="181" y="45"/>
      <point x="181" y="92" type="curve" smooth="yes"/>
      <point x="181" y="310" type="line"/>
      <point x="223" y="342"/>
      <point x="271" y="365"/>
      <point x="296" y="365" type="curve" smooth="yes"/>
      <point x="338" y="365"/>
      <point x="362" y="336"/>
      <point x="362" y="262" type="curve" smooth="yes"/>
      <point x="362" y="205"/>
      <point x="362" y="147"/>
      <point x="356" y="91" type="curve" smooth="yes"/>
      <point x="352" y="54"/>
      <point x="342" y="45"/>
      <point x="301" y="41" type="curve"/>
      <point x="295" y="41" type="line" smooth="yes"/>
      <point x="286" y="41"/>
      <point x="281" y="28"/>
      <point x="281" y="19" type="curve"/>
      <point x="282" y="4"/>
      <point x="286" y="-3"/>
      <point x="303" y="-2" type="curve" smooth="yes"/>
      <point x="354" y="0"/>
      <point x="439" y="-3"/>
      <point x="488" y="-2" type="curve" smooth="yes"/>
      <point x="492" y="-2"/>
      <point x="497" y="-2"/>
    </contour>
  </outline>
</glyph>
<glyph name="o" format="2">
  <advance width="518"/>
  <unicode hex="006F"/>
  <outline>
    <contour>
      <point x="261" y="-15" type="curve" smooth="yes"/>
      <point x="387" y="-15"/>
      <point x="486" y="83"/>
      <point x="487" y="207" type="curve" smooth="yes"/>
      <point x="487" y="334"/>
      <point x="386" y="430"/>
      <point x="258" y="430" type="curve" smooth="yes"/>
      <point x="130" y="430"/>
      <point x="32" y="336"/>
      <point x="32" y="208" type="curve" smooth="yes"/>
      <point x="32" y="82"/>
      <point x="131" y="-15"/>
    </contour>
    <contour>
      <point x="244" y="384" type="curve" smooth="yes"/>
      <point x="320" y="384"/>
      <point x="386" y="304"/>
      <point x="386" y="192" type="curve" smooth="yes"/>
      <point x="386" y="102"/>
      <point x="337" y="32"/>
      <point x="272" y="32" type="curve" smooth="yes"/>
      <point x="196" y="32"/>
      <point x="129" y="119"/>
      <point x="129" y="237" type="curve" smooth="yes"/>
      <point x="129" y="323"/>
      <point x="180" y="384"/>
    </contour>
  </outline>
</glyph>
<glyph name="p" format="2">
  <advance width="503"/>
  <unicode hex="0070"/>
  <outline>
    <contour>
      <point x="254" y="-17" type="curve" smooth="yes"/>
      <point x="373" y="-17"/>
      <point x="477" y="96"/>
      <point x="477" y="223" type="curve" smooth="yes"/>
      <point x="477" y="328"/>
      <point x="404" y="424"/>
      <point x="317" y="424" type="curve" smooth="yes"/>
      <point x="278" y="424"/>
      <point x="243" y="407"/>
      <point x="182" y="364" type="curve" smooth="yes"/>
      <point x="178" y="361"/>
      <point x="176" y="372"/>
      <point x="176" y="382" type="curve" smooth="yes"/>
      <point x="176" y="435" type="line" smooth="yes"/>
      <point x="176" y="458"/>
      <point x="155" y="457"/>
      <point x="139" y="447" type="curve" smooth="yes"/>
      <point x="32" y="379" type="line"/>
      <point x="28" y="376"/>
      <point x="26" y="374"/>
      <point x="24" y="370" type="curve"/>
      <point x="21" y="365"/>
      <point x="17" y="345"/>
      <point x="32" y="342" type="curve"/>
      <point x="43" y="339"/>
      <point x="54" y="334"/>
      <point x="66" y="331" type="curve" smooth="yes"/>
      <point x="86" y="326"/>
      <point x="87" y="325"/>
      <point x="87" y="303" type="curve" smooth="yes"/>
      <point x="87" y="279" type="line"/>
      <point x="87" y="-129" type="line" smooth="yes"/>
      <point x="87" y="-224"/>
      <point x="79" y="-234"/>
      <point x="30" y="-234" type="curve" smooth="yes"/>
      <point x="21" y="-234" type="line" smooth="yes"/>
      <point x="7" y="-234"/>
      <point x="3" y="-261"/>
      <point x="10" y="-272" type="curve"/>
      <point x="13" y="-279"/>
      <point x="19" y="-278"/>
      <point x="25" y="-278" type="curve" smooth="yes"/>
      <point x="95" y="-279"/>
      <point x="181" y="-276"/>
      <point x="250" y="-279" type="curve" smooth="yes"/>
      <point x="254" y="-279"/>
      <point x="264" y="-278"/>
      <point x="267" y="-271" type="curve"/>
      <point x="271" y="-265"/>
      <point x="271" y="-250"/>
      <point x="269" y="-242" type="curve"/>
      <point x="265" y="-234"/>
      <point x="254" y="-231"/>
      <point x="246" y="-231" type="curve" smooth="yes"/>
      <point x="232" y="-231" type="line" smooth="yes"/>
      <point x="183" y="-231"/>
      <point x="176" y="-224"/>
      <point x="176" y="-129" type="curve" smooth="yes"/>
      <point x="176" y="-21" type="line" smooth="yes"/>
      <point x="176" y="-9"/>
      <point x="177" y="-2"/>
      <point x="181" y="-3" type="curve"/>
      <point x="209" y="-12"/>
      <point x="229" y="-17"/>
    </contour>
    <contour>
      <point x="268" y="354" type="curve" smooth="yes"/>
      <point x="334" y="354"/>
      <point x="386" y="289"/>
      <point x="386" y="190" type="curve" smooth="yes"/>
      <point x="386" y="102"/>
      <point x="341" y="37"/>
      <point x="281" y="37" type="curve" smooth="yes"/>
      <point x="247" y="37"/>
      <point x="210" y="55"/>
      <point x="176" y="87" type="curve"/>
      <point x="176" y="300" type="line" smooth="yes"/>
      <point x="176" y="307"/>
      <point x="179" y="312"/>
      <point x="180" y="314" type="curve"/>
      <point x="213" y="340"/>
      <point x="242" y="354"/>
    </contour>
  </outline>
</glyph>
<glyph name="q" format="2">
  <advance width="504"/>
  <unicode hex="0071"/>
  <outline>
    <contour>
      <point x="332" y="38" type="curve" smooth="yes"/>
      <point x="338" y="43"/>
      <point x="335" y="31"/>
      <point x="338" y="17" type="curve"/>
      <point x="338" y="-127" type="line" smooth="yes"/>
      <point x="338" y="-223"/>
      <point x="331" y="-230"/>
      <point x="283" y="-230" type="curve" smooth="yes"/>
      <point x="270" y="-230"/>
      <point x="257" y="-229"/>
      <point x="244" y="-231" type="curve"/>
      <point x="231" y="-237"/>
      <point x="232" y="-246"/>
      <point x="232" y="-257" type="curve" smooth="yes"/>
      <point x="232" y="-275"/>
      <point x="246" y="-277"/>
      <point x="256" y="-277" type="curve" smooth="yes"/>
      <point x="316" y="-275"/>
      <point x="412" y="-275"/>
      <point x="474" y="-277" type="curve" smooth="yes"/>
      <point x="477" y="-277"/>
      <point x="480" y="-277"/>
      <point x="484" y="-277" type="curve"/>
      <point x="501" y="-268"/>
      <point x="497" y="-232"/>
      <point x="482" y="-232" type="curve" smooth="yes"/>
      <point x="472" y="-232" type="line" smooth="yes"/>
      <point x="435" y="-232"/>
      <point x="426" y="-220"/>
      <point x="426" y="-127" type="curve" smooth="yes"/>
      <point x="426" y="301" type="line"/>
      <point x="426" y="345" type="line" smooth="yes"/>
      <point x="426" y="372"/>
      <point x="428" y="399"/>
      <point x="433" y="419" type="curve"/>
      <point x="427" y="430"/>
      <point x="405" y="428"/>
      <point x="399" y="424" type="curve" smooth="yes"/>
      <point x="389" y="417"/>
      <point x="379" y="407"/>
      <point x="371" y="397" type="curve"/>
      <point x="370" y="395"/>
      <point x="367" y="395"/>
      <point x="363" y="397" type="curve" smooth="yes"/>
      <point x="324" y="417"/>
      <point x="286" y="426"/>
      <point x="249" y="426" type="curve" smooth="yes"/>
      <point x="126" y="426"/>
      <point x="31" y="323"/>
      <point x="31" y="193" type="curve" smooth="yes"/>
      <point x="31" y="74"/>
      <point x="102" y="-17"/>
      <point x="200" y="-17" type="curve" smooth="yes"/>
      <point x="245" y="-17"/>
      <point x="286" y="0"/>
    </contour>
    <contour>
      <point x="336" y="285" type="curve" smooth="yes"/>
      <point x="340" y="230"/>
      <point x="338" y="198"/>
      <point x="339" y="117" type="curve" smooth="yes"/>
      <point x="339" y="106"/>
      <point x="335" y="90"/>
      <point x="334" y="89" type="curve"/>
      <point x="301" y="61"/>
      <point x="269" y="46"/>
      <point x="243" y="46" type="curve" smooth="yes"/>
      <point x="174" y="46"/>
      <point x="117" y="119"/>
      <point x="117" y="220" type="curve" smooth="yes"/>
      <point x="117" y="323"/>
      <point x="166" y="383"/>
      <point x="239" y="383" type="curve" smooth="yes"/>
      <point x="280" y="383"/>
      <point x="317" y="356"/>
      <point x="329" y="318" type="curve" smooth="yes"/>
      <point x="333" y="307"/>
      <point x="335" y="299"/>
    </contour>
  </outline>
</glyph>
<glyph name="r" format="2">
  <advance width="350"/>
  <unicode hex="0072"/>
  <outline>
    <contour>
      <point x="176" y="350" type="curve"/>
      <point x="175" y="371"/>
      <point x="175" y="396"/>
      <point x="175" y="418" type="curve"/>
      <point x="174" y="431"/>
      <point x="165" y="443"/>
      <point x="150" y="434" type="curve"/>
      <point x="132" y="425"/>
      <point x="111" y="418"/>
      <point x="91" y="411" type="curve" smooth="yes"/>
      <point x="72" y="405"/>
      <point x="52" y="399"/>
      <point x="34" y="390" type="curve"/>
      <point x="27" y="388"/>
      <point x="23" y="384"/>
      <point x="23" y="374" type="curve" smooth="yes"/>
      <point x="23" y="366" type="line"/>
      <point x="24" y="357"/>
      <point x="28" y="353"/>
      <point x="35" y="350" type="curve" smooth="yes"/>
      <point x="50" y="343"/>
      <point x="70" y="336"/>
      <point x="82" y="331" type="curve"/>
      <point x="88" y="329"/>
      <point x="87" y="317"/>
      <point x="89" y="311" type="curve"/>
      <point x="89" y="134" type="line" smooth="yes"/>
      <point x="89" y="48"/>
      <point x="78" y="40"/>
      <point x="38" y="40" type="curve" smooth="yes"/>
      <point x="19" y="40"/>
      <point x="20" y="33"/>
      <point x="20" y="19" type="curve" smooth="yes"/>
      <point x="20" y="7"/>
      <point x="22" y="-4"/>
      <point x="37" y="-3" type="curve" smooth="yes"/>
      <point x="108" y="1"/>
      <point x="179" y="-3"/>
      <point x="250" y="-3" type="curve" smooth="yes"/>
      <point x="253" y="-3"/>
      <point x="257" y="-3"/>
      <point x="260" y="-1" type="curve"/>
      <point x="270" y="8"/>
      <point x="267" y="41"/>
      <point x="251" y="41" type="curve" smooth="yes"/>
      <point x="229" y="41" type="line" smooth="yes"/>
      <point x="184" y="41"/>
      <point x="180" y="46"/>
      <point x="179" y="92" type="curve" smooth="yes"/>
      <point x="178" y="118"/>
      <point x="178" y="121"/>
      <point x="178" y="141" type="curve" smooth="yes"/>
      <point x="178" y="161"/>
      <point x="178" y="197"/>
      <point x="178" y="286" type="curve"/>
      <point x="202" y="332"/>
      <point x="220" y="343"/>
      <point x="235" y="343" type="curve" smooth="yes"/>
      <point x="246" y="343"/>
      <point x="256" y="339"/>
      <point x="268" y="333" type="curve" smooth="yes"/>
      <point x="283" y="325"/>
      <point x="291" y="321"/>
      <point x="309" y="320" type="curve"/>
      <point x="321" y="342"/>
      <point x="332" y="364"/>
      <point x="339" y="386" type="curve" smooth="yes"/>
      <point x="342" y="396"/>
      <point x="332" y="403"/>
      <point x="327" y="405" type="curve"/>
      <point x="324" y="406"/>
      <point x="321" y="406"/>
      <point x="318" y="407" type="curve"/>
      <point x="285" y="415"/>
      <point x="253" y="438"/>
      <point x="217" y="419" type="curve" smooth="yes"/>
      <point x="199" y="409"/>
      <point x="184" y="368"/>
    </contour>
  </outline>
</glyph>
<glyph name="t" format="2">
  <advance width="319"/>
  <unicode hex="0074"/>
  <outline>
    <contour>
      <point x="176" y="-11" type="curve" smooth="yes"/>
      <point x="227" y="-11"/>
      <point x="268" y="24"/>
      <point x="294" y="82" type="curve"/>
      <point x="295" y="85"/>
      <point x="296" y="101"/>
      <point x="292" y="106" type="curve"/>
      <point x="285" y="113"/>
      <point x="265" y="118"/>
      <point x="261" y="105" type="curve"/>
      <point x="242" y="69"/>
      <point x="224" y="57"/>
      <point x="208" y="57" type="curve" smooth="yes"/>
      <point x="168" y="57"/>
      <point x="154" y="78"/>
      <point x="154" y="181" type="curve" smooth="yes"/>
      <point x="154" y="353" type="line"/>
      <point x="155" y="356"/>
      <point x="160" y="361"/>
      <point x="163" y="360" type="curve"/>
      <point x="252" y="359" type="line"/>
      <point x="264" y="358"/>
      <point x="267" y="360"/>
      <point x="272" y="369" type="curve"/>
      <point x="276" y="379"/>
      <point x="280" y="393"/>
      <point x="281" y="403" type="curve"/>
      <point x="286" y="420"/>
      <point x="274" y="425"/>
      <point x="265" y="425" type="curve" smooth="yes"/>
      <point x="166" y="425" type="line"/>
      <point x="159" y="427"/>
      <point x="154" y="426"/>
      <point x="154" y="433" type="curve"/>
      <point x="151" y="455"/>
      <point x="153" y="496"/>
      <point x="154" y="518" type="curve" smooth="yes"/>
      <point x="155" y="538"/>
      <point x="120" y="534"/>
      <point x="117" y="520" type="curve"/>
      <point x="95" y="457"/>
      <point x="67" y="418"/>
      <point x="32" y="399" type="curve" smooth="yes"/>
      <point x="30" y="398"/>
      <point x="23" y="393"/>
      <point x="21" y="390" type="curve"/>
      <point x="18" y="382"/>
      <point x="21" y="370"/>
      <point x="26" y="362" type="curve"/>
      <point x="39" y="361"/>
      <point x="44" y="360"/>
      <point x="58" y="359" type="curve"/>
      <point x="63" y="358"/>
      <point x="68" y="357"/>
      <point x="68" y="353" type="curve" smooth="yes"/>
      <point x="68" y="157" type="line"/>
      <point x="68" y="117" type="line" smooth="yes"/>
      <point x="68" y="43"/>
      <point x="112" y="-11"/>
    </contour>
  </outline>
</glyph>
<glyph name="w" format="2">
  <advance width="767"/>
  <unicode hex="0077"/>
  <outline>
    <contour>
      <point x="535" y="122" type="curve"/>
      <point x="456" y="310" type="line" smooth="yes"/>
      <point x="444" y="339"/>
      <point x="442" y="349"/>
      <point x="442" y="356" type="curve" smooth="yes"/>
      <point x="442" y="366"/>
      <point x="446" y="375"/>
      <point x="490" y="376" type="curve"/>
      <point x="499" y="382"/>
      <point x="503" y="419"/>
      <point x="477" y="417" type="curve"/>
      <point x="471" y="416" type="line"/>
      <point x="417" y="414"/>
      <point x="316" y="416"/>
      <point x="272" y="417" type="curve" smooth="yes"/>
      <point x="266" y="417"/>
      <point x="260" y="407"/>
      <point x="261" y="396" type="curve"/>
      <point x="261" y="386"/>
      <point x="268" y="376"/>
      <point x="274" y="376" type="curve" smooth="yes"/>
      <point x="280" y="376"/>
      <point x="285" y="375"/>
      <point x="291" y="375" type="curve"/>
      <point x="308" y="374"/>
      <point x="317" y="372"/>
      <point x="330" y="359" type="curve" smooth="yes"/>
      <point x="342" y="347"/>
      <point x="351" y="326"/>
      <point x="359" y="311" type="curve"/>
      <point x="276" y="116" type="line"/>
      <point x="272" y="110"/>
      <point x="269" y="120"/>
      <point x="268" y="122" type="curve"/>
      <point x="254" y="156"/>
      <point x="175" y="341"/>
      <point x="175" y="360" type="curve" smooth="yes"/>
      <point x="175" y="365"/>
      <point x="176" y="375"/>
      <point x="219" y="377" type="curve" smooth="yes"/>
      <point x="229" y="377"/>
      <point x="233" y="394"/>
      <point x="229" y="404" type="curve"/>
      <point x="227" y="414"/>
      <point x="222" y="417"/>
      <point x="213" y="417" type="curve" smooth="yes"/>
      <point x="150" y="414"/>
      <point x="91" y="416"/>
      <point x="30" y="416" type="curve"/>
      <point x="23" y="417"/>
      <point x="16" y="418"/>
      <point x="12" y="412" type="curve" smooth="yes"/>
      <point x="5" y="401"/>
      <point x="12" y="377"/>
      <point x="20" y="376" type="curve"/>
      <point x="66" y="373"/>
      <point x="71" y="370"/>
      <point x="101" y="297" type="curve" smooth="yes"/>
      <point x="221" y="4" type="line" smooth="yes"/>
      <point x="224" y="-4"/>
      <point x="226" y="-9"/>
      <point x="235" y="-11" type="curve" smooth="yes"/>
      <point x="239" y="-12"/>
      <point x="260" y="-13"/>
      <point x="264" y="-11" type="curve"/>
      <point x="273" y="-9"/>
      <point x="278" y="-2"/>
      <point x="281" y="5" type="curve" smooth="yes"/>
      <point x="315" y="85"/>
      <point x="344" y="166"/>
      <point x="382" y="245" type="curve" smooth="yes"/>
      <point x="385" y="251"/>
      <point x="389" y="247"/>
      <point x="391" y="242" type="curve" smooth="yes"/>
      <point x="491" y="3" type="line"/>
      <point x="495" y="-5"/>
      <point x="499" y="-7"/>
      <point x="509" y="-8" type="curve" smooth="yes"/>
      <point x="518" y="-9"/>
      <point x="528" y="-10"/>
      <point x="532" y="-9" type="curve"/>
      <point x="547" y="-7"/>
      <point x="545" y="-7"/>
      <point x="550" y="5" type="curve" smooth="yes"/>
      <point x="592" y="109"/>
      <point x="633" y="212"/>
      <point x="676" y="315" type="curve" smooth="yes"/>
      <point x="683" y="334"/>
      <point x="691" y="352"/>
      <point x="696" y="359" type="curve" smooth="yes"/>
      <point x="706" y="374"/>
      <point x="726" y="374"/>
      <point x="742" y="376" type="curve" smooth="yes"/>
      <point x="755" y="378"/>
      <point x="759" y="421"/>
      <point x="736" y="417" type="curve"/>
      <point x="678" y="416"/>
      <point x="608" y="416"/>
      <point x="565" y="417" type="curve" smooth="yes"/>
      <point x="548" y="417"/>
      <point x="554" y="379"/>
      <point x="562" y="376" type="curve"/>
      <point x="591" y="373"/>
      <point x="638" y="383"/>
      <point x="629" y="336" type="curve" smooth="yes"/>
      <point x="626" y="323"/>
      <point x="606" y="271"/>
      <point x="585" y="221" type="curve" smooth="yes"/>
      <point x="565" y="171"/>
      <point x="548" y="130"/>
      <point x="546" y="127" type="curve"/>
      <point x="542" y="117"/>
      <point x="538" y="113"/>
    </contour>
  </outline>
</glyph>
<glyph name="x" format="2">
  <advance width="522"/>
  <unicode hex="0078"/>
  <outline>
    <contour>
      <point x="496" y="-2" type="curve"/>
      <point x="507" y="-4"/>
      <point x="511" y="8"/>
      <point x="511" y="15" type="curve" smooth="yes"/>
      <point x="511" y="23"/>
      <point x="508" y="33"/>
      <point x="499" y="38" type="curve"/>
      <point x="458" y="41"/>
      <point x="440" y="50"/>
      <point x="414" y="84" type="curve" smooth="yes"/>
      <point x="378" y="129" type="line" smooth="yes"/>
      <point x="367" y="144"/>
      <point x="350" y="167"/>
      <point x="305" y="225" type="curve"/>
      <point x="303" y="228"/>
      <point x="302" y="233"/>
      <point x="306" y="238" type="curve" smooth="yes"/>
      <point x="343" y="280" type="line"/>
      <point x="380" y="321" type="line" smooth="yes"/>
      <point x="417" y="362"/>
      <point x="435" y="380"/>
      <point x="493" y="378" type="curve" smooth="yes"/>
      <point x="510" y="378"/>
      <point x="512" y="396"/>
      <point x="507" y="409" type="curve"/>
      <point x="502" y="417"/>
      <point x="497" y="418"/>
      <point x="489" y="417" type="curve"/>
      <point x="449" y="415"/>
      <point x="378" y="416"/>
      <point x="305" y="417" type="curve"/>
      <point x="300" y="418"/>
      <point x="289" y="418"/>
      <point x="287" y="407" type="curve" smooth="yes"/>
      <point x="286" y="402"/>
      <point x="286" y="392"/>
      <point x="288" y="386" type="curve"/>
      <point x="293" y="376"/>
      <point x="297" y="379"/>
      <point x="304" y="378" type="curve"/>
      <point x="341" y="377"/>
      <point x="343" y="370"/>
      <point x="343" y="361" type="curve" smooth="yes"/>
      <point x="343" y="339"/>
      <point x="300" y="293"/>
      <point x="284" y="277" type="curve"/>
      <point x="278" y="269"/>
      <point x="272" y="266"/>
      <point x="267" y="273" type="curve"/>
      <point x="257" y="283"/>
      <point x="215" y="336"/>
      <point x="200" y="362" type="curve" smooth="yes"/>
      <point x="191" y="378"/>
      <point x="205" y="379"/>
      <point x="222" y="379" type="curve" smooth="yes"/>
      <point x="231" y="379" type="line" smooth="yes"/>
      <point x="237" y="379"/>
      <point x="244" y="402"/>
      <point x="236" y="413" type="curve" smooth="yes"/>
      <point x="232" y="418"/>
      <point x="226" y="417"/>
      <point x="221" y="417" type="curve" smooth="yes"/>
      <point x="175" y="416"/>
      <point x="83" y="414"/>
      <point x="31" y="417" type="curve" smooth="yes"/>
      <point x="11" y="418"/>
      <point x="15" y="381"/>
      <point x="25" y="378" type="curve"/>
      <point x="79" y="375"/>
      <point x="88" y="368"/>
      <point x="134" y="306" type="curve" smooth="yes"/>
      <point x="205" y="212" type="line"/>
      <point x="209" y="206"/>
      <point x="211" y="199"/>
      <point x="205" y="193" type="curve"/>
      <point x="131" y="106" type="line" smooth="yes"/>
      <point x="78" y="46"/>
      <point x="65" y="38"/>
      <point x="20" y="37" type="curve" smooth="yes"/>
      <point x="12" y="37"/>
      <point x="7" y="28"/>
      <point x="7" y="17" type="curve"/>
      <point x="8" y="6"/>
      <point x="15" y="-2"/>
      <point x="20" y="-2" type="curve" smooth="yes"/>
      <point x="67" y="-1"/>
      <point x="156" y="-1"/>
      <point x="207" y="-3" type="curve"/>
      <point x="214" y="-4"/>
      <point x="220" y="5"/>
      <point x="220" y="15" type="curve" smooth="yes"/>
      <point x="220" y="26"/>
      <point x="214" y="35"/>
      <point x="207" y="36" type="curve"/>
      <point x="200" y="36" type="line"/>
      <point x="157" y="40"/>
      <point x="154" y="48"/>
      <point x="154" y="59" type="curve" smooth="yes"/>
      <point x="154" y="74"/>
      <point x="222" y="146"/>
      <point x="236" y="162" type="curve" smooth="yes"/>
      <point x="240" y="167"/>
      <point x="248" y="162"/>
      <point x="253" y="156" type="curve"/>
      <point x="307" y="82" type="line"/>
      <point x="312" y="74"/>
      <point x="331" y="55"/>
      <point x="331" y="46" type="curve" smooth="yes"/>
      <point x="331" y="39"/>
      <point x="326" y="36"/>
      <point x="302" y="36" type="curve" smooth="yes"/>
      <point x="293" y="36" type="line" smooth="yes"/>
      <point x="282" y="36"/>
      <point x="281" y="23"/>
      <point x="281" y="16" type="curve" smooth="yes"/>
      <point x="281" y="10"/>
      <point x="284" y="-3"/>
      <point x="295" y="-3" type="curve" smooth="yes"/>
      <point x="353" y="-1"/>
      <point x="446" y="-1"/>
    </contour>
  </outline>
</glyph>
<glyph name="z" format="2">
  <advance width="410"/>
  <unicode hex="007A"/>
  <outline>
    <contour>
      <point x="241" y="360" type="curve" smooth="yes"/>
      <point x="250" y="360"/>
      <point x="255" y="357"/>
      <point x="250" y="350" type="curve" smooth="yes"/>
      <point x="24" y="37" type="line"/>
      <point x="21" y="31"/>
      <point x="16" y="30"/>
      <point x="15" y="23" type="curve" smooth="yes"/>
      <point x="13" y="12"/>
      <point x="16" y="-2"/>
      <point x="21" y="-2" type="curve" smooth="yes"/>
      <point x="105" y="-2"/>
      <point x="274" y="-1"/>
      <point x="340" y="-2" type="curve"/>
      <point x="345" y="-1"/>
      <point x="352" y="3"/>
      <point x="355" y="9" type="curve"/>
      <point x="395" y="119" type="line" smooth="yes"/>
      <point x="401" y="137"/>
      <point x="366" y="140"/>
      <point x="359" y="125" type="curve"/>
      <point x="355" y="120" type="line"/>
      <point x="332" y="67"/>
      <point x="326" y="57"/>
      <point x="295" y="57" type="curve" smooth="yes"/>
      <point x="237" y="55"/>
      <point x="197" y="56"/>
      <point x="161" y="56" type="curve" smooth="yes"/>
      <point x="154" y="56"/>
      <point x="150" y="62"/>
      <point x="154" y="67" type="curve"/>
      <point x="190" y="120"/>
      <point x="297" y="275"/>
      <point x="379" y="383" type="curve"/>
      <point x="385" y="390"/>
      <point x="384" y="401"/>
      <point x="382" y="411" type="curve"/>
      <point x="372" y="421"/>
      <point x="358" y="417"/>
      <point x="347" y="418" type="curve"/>
      <point x="291" y="418"/>
      <point x="192" y="417"/>
      <point x="135" y="416" type="curve" smooth="yes"/>
      <point x="102" y="415"/>
      <point x="99" y="418"/>
      <point x="99" y="436" type="curve" smooth="yes"/>
      <point x="99" y="444"/>
      <point x="64" y="444"/>
      <point x="61" y="438" type="curve"/>
      <point x="54" y="410"/>
      <point x="40" y="331"/>
      <point x="32" y="282" type="curve"/>
      <point x="31" y="281"/>
      <point x="31" y="279"/>
      <point x="31" y="278" type="curve"/>
      <point x="28" y="258"/>
      <point x="64" y="256"/>
      <point x="70" y="270" type="curve"/>
      <point x="91" y="354"/>
      <point x="100" y="357"/>
      <point x="121" y="357" type="curve" smooth="yes"/>
      <point x="165" y="357"/>
      <point x="198" y="360"/>
    </contour>
  </outline>
</glyph>
<glyph name="bar" format="2">
  <advance width="534"/>
  <unicode hex="007C"/>
  <outline>
    <contour>
      <point x="300" y="5" type="curve" smooth="yes"/>
      <point x="303" y="143"/>
      <point x="301" y="303"/>
      <point x="301" y="422" type="curve" smooth="yes"/>
      <point x="301" y="828" type="line" smooth="yes"/>
      <point x="301" y="844"/>
      <point x="307" y="858"/>
      <point x="285" y="858" type="curve"/>
      <point x="276" y="856"/>
      <point x="269" y="858"/>
      <point x="261" y="860" type="curve"/>
      <point x="242" y="860"/>
      <point x="236" y="850"/>
      <point x="236" y="830" type="curve" smooth="yes"/>
      <point x="236" y="10" type="line" smooth="yes"/>
      <point x="236" y="-9"/>
      <point x="238" y="-22"/>
      <point x="256" y="-22" type="curve"/>
      <point x="263" y="-21"/>
      <point x="270" y="-21"/>
      <point x="276" y="-22" type="curve"/>
      <point x="294" y="-22"/>
      <point x="300" y="-12"/>
    </contour>
  </outline>
</glyph>
